<svg width="14" height="14" viewBox="0 0 14 14" fill="none" xmlns="http://www.w3.org/2000/svg">
<path fill-rule="evenodd" clip-rule="evenodd" d="M3.00156 0.599609C3.21374 0.599609 3.41722 0.683895 3.56725 0.833924C3.71728 0.983953 3.80156 1.18744 3.80156 1.39961V2.19961H4.60156C4.81374 2.19961 5.01722 2.28389 5.16725 2.43392C5.31728 2.58395 5.40156 2.78744 5.40156 2.99961C5.40156 3.21178 5.31728 3.41527 5.16725 3.56529C5.01722 3.71532 4.81374 3.79961 4.60156 3.79961H3.80156V4.59961C3.80156 4.81178 3.71728 5.01527 3.56725 5.16529C3.41722 5.31532 3.21374 5.39961 3.00156 5.39961C2.78939 5.39961 2.58591 5.31532 2.43588 5.16529C2.28585 5.01527 2.20156 4.81178 2.20156 4.59961V3.79961H1.40156C1.18939 3.79961 0.985906 3.71532 0.835877 3.56529C0.685848 3.41527 0.601563 3.21178 0.601562 2.99961C0.601563 2.78744 0.685848 2.58395 0.835877 2.43392C0.985906 2.28389 1.18939 2.19961 1.40156 2.19961H2.20156V1.39961C2.20156 1.18744 2.28585 0.983953 2.43588 0.833924C2.58591 0.683895 2.78939 0.599609 3.00156 0.599609ZM3.00156 8.59961C3.21374 8.59961 3.41722 8.68389 3.56725 8.83392C3.71728 8.98395 3.80156 9.18744 3.80156 9.39961V10.1996H4.60156C4.81374 10.1996 5.01722 10.2839 5.16725 10.4339C5.31728 10.584 5.40156 10.7874 5.40156 10.9996C5.40156 11.2118 5.31728 11.4153 5.16725 11.5653C5.01722 11.7153 4.81374 11.7996 4.60156 11.7996H3.80156V12.5996C3.80156 12.8118 3.71728 13.0153 3.56725 13.1653C3.41722 13.3153 3.21374 13.3996 3.00156 13.3996C2.78939 13.3996 2.58591 13.3153 2.43588 13.1653C2.28585 13.0153 2.20156 12.8118 2.20156 12.5996V11.7996H1.40156C1.18939 11.7996 0.985906 11.7153 0.835877 11.5653C0.685848 11.4153 0.601563 11.2118 0.601562 10.9996C0.601563 10.7874 0.685848 10.584 0.835877 10.4339C0.985906 10.2839 1.18939 10.1996 1.40156 10.1996H2.20156V9.39961C2.20156 9.18744 2.28585 8.98395 2.43588 8.83392C2.58591 8.68389 2.78939 8.59961 3.00156 8.59961ZM8.60156 0.599609C8.77811 0.599552 8.94973 0.6579 9.08965 0.765559C9.22958 0.873218 9.32997 1.02414 9.37516 1.19481L10.3184 4.75961L13.0016 6.30681C13.1232 6.37703 13.2241 6.47802 13.2944 6.59963C13.3646 6.72124 13.4015 6.85919 13.4015 6.99961C13.4015 7.14003 13.3646 7.27798 13.2944 7.39959C13.2241 7.5212 13.1232 7.62219 13.0016 7.69241L10.3184 9.24041L9.37436 12.8044C9.32908 12.9749 9.22872 13.1257 9.08888 13.2332C8.94904 13.3408 8.77758 13.3991 8.60116 13.3991C8.42475 13.3991 8.25328 13.3408 8.11345 13.2332C7.97361 13.1257 7.87324 12.9749 7.82796 12.8044L6.88476 9.23961L4.20156 7.69241C4.07996 7.62219 3.97898 7.5212 3.90877 7.39959C3.83856 7.27798 3.8016 7.14003 3.8016 6.99961C3.8016 6.85919 3.83856 6.72124 3.90877 6.59963C3.97898 6.47802 4.07996 6.37703 4.20156 6.30681L6.88476 4.75881L7.82876 1.19481C7.87392 1.02427 7.97419 0.873448 8.11396 0.765803C8.25372 0.658157 8.42515 0.599729 8.60156 0.599609Z" fill="url(#paint0_radial_2548_40733)"/>
<defs>
<radialGradient id="paint0_radial_2548_40733" cx="0" cy="0" r="1" gradientUnits="userSpaceOnUse" gradientTransform="translate(12.6229 5.90095) rotate(180) scale(12.0213 85.6233)">
<stop stop-color="#F17EB8"/>
<stop offset="1" stop-color="#9061F9"/>
</radialGradient>
</defs>
</svg>
