<svg width="42" height="42" viewBox="0 0 42 42" fill="none" xmlns="http://www.w3.org/2000/svg">
<path d="M19.25 26.25L14 21M14 21L19.25 15.75M14 21H28M5.25 21C5.25 18.9317 5.65739 16.8836 6.4489 14.9727C7.24041 13.0619 8.40055 11.3256 9.86307 9.86307C11.3256 8.40055 13.0619 7.24041 14.9727 6.4489C16.8836 5.65739 18.9317 5.25 21 5.25C23.0683 5.25 25.1164 5.65739 27.0273 6.4489C28.9381 7.24041 30.6744 8.40055 32.1369 9.86307C33.5995 11.3256 34.7596 13.0619 35.5511 14.9727C36.3426 16.8836 36.75 18.9317 36.75 21C36.75 25.1772 35.0906 29.1832 32.1369 32.1369C29.1832 35.0906 25.1772 36.75 21 36.75C16.8228 36.75 12.8168 35.0906 9.86307 32.1369C6.90937 29.1832 5.25 25.1772 5.25 21Z" stroke="#4B5563" stroke-width="2" stroke-linecap="round" stroke-linejoin="round"/>
</svg>
