<svg xmlns="http://www.w3.org/2000/svg" width="16" height="16" viewBox="0 0 16 16" fill="none">
    <path d="M14 8.83665C12.0937 9.60747 10.0563 10.0025 8 9.99998C5.878 9.99998 3.85333 9.58665 2 8.83665M8 7.99998H8.00667M10.6667 3.99998V2.66665C10.6667 2.31302 10.5262 1.97389 10.2761 1.72384C10.0261 1.47379 9.68696 1.33331 9.33333 1.33331H6.66667C6.31304 1.33331 5.97391 1.47379 5.72386 1.72384C5.47381 1.97389 5.33333 2.31302 5.33333 2.66665V3.99998H10.6667ZM3.33333 13.3333H12.6667C13.0203 13.3333 13.3594 13.1928 13.6095 12.9428C13.8595 12.6927 14 12.3536 14 12V5.33331C14 4.97969 13.8595 4.64055 13.6095 4.3905C13.3594 4.14046 13.0203 3.99998 12.6667 3.99998H3.33333C2.97971 3.99998 2.64057 4.14046 2.39052 4.3905C2.14048 4.64055 2 4.97969 2 5.33331V12C2 12.3536 2.14048 12.6927 2.39052 12.9428C2.64057 13.1928 2.97971 13.3333 3.33333 13.3333Z" stroke="#4B5563" stroke-width="1.5" stroke-linecap="round" stroke-linejoin="round"/>
    </svg>