<svg xmlns="http://www.w3.org/2000/svg" width="16" height="17" viewBox="0 0 16 17" fill="none">
    <path d="M8.5 9C8.5 9.27614 8.27614 9.5 8 9.5C7.72386 9.5 7.5 9.27614 7.5 9C7.5 8.72386 7.72386 8.5 8 8.5C8.27614 8.5 8.5 8.72386 8.5 9Z" fill="white"/>
    <path d="M5 11C5.27614 11 5.5 10.7761 5.5 10.5C5.5 10.2239 5.27614 10 5 10C4.72386 10 4.5 10.2239 4.5 10.5C4.5 10.7761 4.72386 11 5 11Z" fill="white"/>
    <path d="M5.5 12C5.5 12.2761 5.27614 12.5 5 12.5C4.72386 12.5 4.5 12.2761 4.5 12C4.5 11.7239 4.72386 11.5 5 11.5C5.27614 11.5 5.5 11.7239 5.5 12Z" fill="white"/>
    <path d="M6.5 11C6.77614 11 7 10.7761 7 10.5C7 10.2239 6.77614 10 6.5 10C6.22386 10 6 10.2239 6 10.5C6 10.7761 6.22386 11 6.5 11Z" fill="white"/>
    <path d="M7 12C7 12.2761 6.77614 12.5 6.5 12.5C6.22386 12.5 6 12.2761 6 12C6 11.7239 6.22386 11.5 6.5 11.5C6.77614 11.5 7 11.7239 7 12Z" fill="white"/>
    <path d="M8 11C8.27614 11 8.5 10.7761 8.5 10.5C8.5 10.2239 8.27614 10 8 10C7.72386 10 7.5 10.2239 7.5 10.5C7.5 10.7761 7.72386 11 8 11Z" fill="white"/>
    <path d="M8.5 12C8.5 12.2761 8.27614 12.5 8 12.5C7.72386 12.5 7.5 12.2761 7.5 12C7.5 11.7239 7.72386 11.5 8 11.5C8.27614 11.5 8.5 11.7239 8.5 12Z" fill="white"/>
    <path d="M9.5 11C9.77614 11 10 10.7761 10 10.5C10 10.2239 9.77614 10 9.5 10C9.22386 10 9 10.2239 9 10.5C9 10.7761 9.22386 11 9.5 11Z" fill="white"/>
    <path d="M10 12C10 12.2761 9.77614 12.5 9.5 12.5C9.22386 12.5 9 12.2761 9 12C9 11.7239 9.22386 11.5 9.5 11.5C9.77614 11.5 10 11.7239 10 12Z" fill="white"/>
    <path d="M11 11C11.2761 11 11.5 10.7761 11.5 10.5C11.5 10.2239 11.2761 10 11 10C10.7239 10 10.5 10.2239 10.5 10.5C10.5 10.7761 10.7239 11 11 11Z" fill="white"/>
    <path d="M10 9C10 9.27614 9.77614 9.5 9.5 9.5C9.22386 9.5 9 9.27614 9 9C9 8.72386 9.22386 8.5 9.5 8.5C9.77614 8.5 10 8.72386 10 9Z" fill="white"/>
    <path d="M11 9.5C11.2761 9.5 11.5 9.27614 11.5 9C11.5 8.72386 11.2761 8.5 11 8.5C10.7239 8.5 10.5 8.72386 10.5 9C10.5 9.27614 10.7239 9.5 11 9.5Z" fill="white"/>
    <path fill-rule="evenodd" clip-rule="evenodd" d="M4.5 2C4.77614 2 5 2.22386 5 2.5V3.5H11V2.5C11 2.22386 11.2239 2 11.5 2C11.7761 2 12 2.22386 12 2.5V3.5H12.5C13.6046 3.5 14.5 4.39543 14.5 5.5V13C14.5 14.1046 13.6046 15 12.5 15H3.5C2.39543 15 1.5 14.1046 1.5 13V5.5C1.5 4.39543 2.39543 3.5 3.5 3.5H4V2.5C4 2.22386 4.22386 2 4.5 2ZM13.5 8C13.5 7.44772 13.0523 7 12.5 7H3.5C2.94772 7 2.5 7.44772 2.5 8V13C2.5 13.5523 2.94772 14 3.5 14H12.5C13.0523 14 13.5 13.5523 13.5 13V8Z" fill="white"/>
    </svg>