<svg xmlns="http://www.w3.org/2000/svg" width="12" height="16" viewBox="0 0 12 16" fill="none">
    <path fill-rule="evenodd" clip-rule="evenodd" d="M0 2.5C0 1.96957 0.210714 1.46086 0.585786 1.08579C0.960859 0.710714 1.46957 0.5 2 0.5C2 1.29565 2.31607 2.05871 2.87868 2.62132C3.44129 3.18393 4.20435 3.5 5 3.5H7C7.79565 3.5 8.55871 3.18393 9.12132 2.62132C9.68393 2.05871 10 1.29565 10 0.5C10.5304 0.5 11.0391 0.710714 11.4142 1.08579C11.7893 1.46086 12 1.96957 12 2.5V13.5C12 14.0304 11.7893 14.5391 11.4142 14.9142C11.0391 15.2893 10.5304 15.5 10 15.5H2C1.46957 15.5 0.960859 15.2893 0.585786 14.9142C0.210714 14.5391 0 14.0304 0 13.5V2.5ZM3 6.5C2.73478 6.5 2.48043 6.60536 2.29289 6.79289C2.10536 6.98043 2 7.23478 2 7.5C2 7.76522 2.10536 8.01957 2.29289 8.20711C2.48043 8.39464 2.73478 8.5 3 8.5H3.01C3.27522 8.5 3.52957 8.39464 3.71711 8.20711C3.90464 8.01957 4.01 7.76522 4.01 7.5C4.01 7.23478 3.90464 6.98043 3.71711 6.79289C3.52957 6.60536 3.27522 6.5 3.01 6.5H3ZM6 6.5C5.73478 6.5 5.48043 6.60536 5.29289 6.79289C5.10536 6.98043 5 7.23478 5 7.5C5 7.76522 5.10536 8.01957 5.29289 8.20711C5.48043 8.39464 5.73478 8.5 6 8.5H9C9.26522 8.5 9.51957 8.39464 9.70711 8.20711C9.89464 8.01957 10 7.76522 10 7.5C10 7.23478 9.89464 6.98043 9.70711 6.79289C9.51957 6.60536 9.26522 6.5 9 6.5H6ZM3 10.5C2.73478 10.5 2.48043 10.6054 2.29289 10.7929C2.10536 10.9804 2 11.2348 2 11.5C2 11.7652 2.10536 12.0196 2.29289 12.2071C2.48043 12.3946 2.73478 12.5 3 12.5H3.01C3.27522 12.5 3.52957 12.3946 3.71711 12.2071C3.90464 12.0196 4.01 11.7652 4.01 11.5C4.01 11.2348 3.90464 10.9804 3.71711 10.7929C3.52957 10.6054 3.27522 10.5 3.01 10.5H3ZM6 10.5C5.73478 10.5 5.48043 10.6054 5.29289 10.7929C5.10536 10.9804 5 11.2348 5 11.5C5 11.7652 5.10536 12.0196 5.29289 12.2071C5.48043 12.3946 5.73478 12.5 6 12.5H9C9.26522 12.5 9.51957 12.3946 9.70711 12.2071C9.89464 12.0196 10 11.7652 10 11.5C10 11.2348 9.89464 10.9804 9.70711 10.7929C9.51957 10.6054 9.26522 10.5 9 10.5H6Z" fill="white"/>
    </svg>