<svg xmlns="http://www.w3.org/2000/svg" width="19" height="19" viewBox="0 0 19 19" fill="none">
    <path d="M5.9375 6.53125H13.0625M5.9375 8.90625H9.5M1.78125 10.1011C1.78125 11.3687 2.67062 12.472 3.92466 12.6563C4.81805 12.7877 5.72156 12.888 6.63405 12.956C6.91129 12.9767 7.16472 13.1221 7.31893 13.3534L9.5 16.625L11.681 13.3534C11.8353 13.1221 12.0887 12.9767 12.3659 12.9561C13.2784 12.888 14.1819 12.7878 15.0753 12.6564C16.3294 12.4721 17.2188 11.3688 17.2188 10.1012V5.33627C17.2188 4.06874 16.3294 2.96545 15.0753 2.78107C13.2557 2.51355 11.3941 2.375 9.50023 2.375C7.60614 2.375 5.74443 2.51358 3.92466 2.78114C2.67062 2.96553 1.78125 4.06882 1.78125 5.33634V10.1011Z" stroke="white" stroke-width="1.5" stroke-linecap="round" stroke-linejoin="round"/>
    </svg>