<svg width="16" height="16" viewBox="0 0 16 16" fill="none" xmlns="http://www.w3.org/2000/svg">
<path d="M5.33333 6.66699H5.34M8 6.66699H8.00667M10.6667 6.66699H10.6733M6 10.667H3.33333C2.97971 10.667 2.64057 10.5265 2.39052 10.2765C2.14048 10.0264 2 9.68728 2 9.33366V4.00033C2 3.6467 2.14048 3.30756 2.39052 3.05752C2.64057 2.80747 2.97971 2.66699 3.33333 2.66699H12.6667C13.0203 2.66699 13.3594 2.80747 13.6095 3.05752C13.8595 3.30756 14 3.6467 14 4.00033V9.33366C14 9.68728 13.8595 10.0264 13.6095 10.2765C13.3594 10.5265 13.0203 10.667 12.6667 10.667H9.33333L6 14.0003V10.667Z" stroke="#4B5563" stroke-width="1.5" stroke-linecap="round" stroke-linejoin="round"/>
</svg>
