<svg width="16" height="17" viewBox="0 0 16 17" fill="none" xmlns="http://www.w3.org/2000/svg">
<path fill-rule="evenodd" clip-rule="evenodd" d="M8.00156 14.8996C9.69895 14.8996 11.3268 14.2253 12.527 13.0251C13.7273 11.8249 14.4016 10.197 14.4016 8.49961C14.4016 6.80222 13.7273 5.17436 12.527 3.97413C11.3268 2.77389 9.69895 2.09961 8.00156 2.09961C6.30418 2.09961 4.67631 2.77389 3.47608 3.97413C2.27585 5.17436 1.60156 6.80222 1.60156 8.49961C1.60156 10.197 2.27585 11.8249 3.47608 13.0251C4.67631 14.2253 6.30418 14.8996 8.00156 14.8996ZM10.9672 7.46521C11.1129 7.31433 11.1935 7.11225 11.1917 6.90249C11.1899 6.69273 11.1057 6.49208 10.9574 6.34375C10.8091 6.19543 10.6084 6.11129 10.3987 6.10947C10.1889 6.10765 9.98684 6.18828 9.83596 6.33401L7.20156 8.96841L6.16716 7.93401C6.01628 7.78828 5.8142 7.70765 5.60444 7.70947C5.39468 7.71129 5.19403 7.79543 5.04571 7.94375C4.89738 8.09208 4.81325 8.29273 4.81142 8.50249C4.8096 8.71225 4.89024 8.91433 5.03596 9.06521L6.63596 10.6652C6.78598 10.8152 6.98943 10.8994 7.20156 10.8994C7.41369 10.8994 7.61714 10.8152 7.76716 10.6652L10.9672 7.46521Z" fill="#0E9F6E"/>
</svg>
