<svg width="20" height="21" viewBox="0 0 20 21" fill="none" xmlns="http://www.w3.org/2000/svg">
<path d="M9.99979 12.1463L9.46946 11.6159L6.17654 8.323C6.17651 8.32298 6.17648 8.32295 6.17646 8.32292C6.12958 8.27611 6.06604 8.24981 5.99979 8.24981C5.93357 8.24981 5.87006 8.27608 5.8232 8.32284C5.82314 8.3229 5.82309 8.32295 5.82304 8.323M9.99979 12.1463L5.82304 8.323M9.99979 12.1463L10.5301 11.6159L13.8231 8.32292L13.8232 8.323L13.8323 8.31363C13.8553 8.28975 13.8829 8.2707 13.9134 8.2576C13.9439 8.2445 13.9767 8.2376 14.0099 8.23731C14.0431 8.23703 14.076 8.24335 14.1067 8.25592C14.1375 8.26849 14.1654 8.28705 14.1889 8.31053C14.2123 8.334 14.2309 8.36191 14.2435 8.39264C14.256 8.42337 14.2624 8.45629 14.2621 8.48948C14.2618 8.52267 14.2549 8.55548 14.2418 8.58598C14.2287 8.61648 14.2096 8.64406 14.1858 8.66713L14.1857 8.66704L14.1765 8.67626L10.1765 12.6762C10.1765 12.6762 10.1765 12.6762 10.1765 12.6763C10.1296 12.7231 10.066 12.7494 9.99979 12.7494C9.93353 12.7494 9.86999 12.7231 9.82312 12.6763C9.82309 12.6762 9.82306 12.6762 9.82304 12.6762L5.8232 8.67634M9.99979 12.1463L5.8232 8.67634M5.82304 8.323C5.77627 8.36987 5.75 8.43338 5.75 8.49959C5.75 8.56585 5.7763 8.62939 5.82312 8.67626M5.82304 8.323L5.82312 8.67626M5.82312 8.67626L5.8232 8.67634M5.82312 8.67626L5.8232 8.67634" stroke="#4B5563" stroke-width="1.5"/>
</svg>
