<svg width="21" height="21" viewBox="0 0 21 21" fill="none" xmlns="http://www.w3.org/2000/svg">
<path fill-rule="evenodd" clip-rule="evenodd" d="M13.2068 5.79279C13.3943 5.98031 13.4996 6.23462 13.4996 6.49979C13.4996 6.76495 13.3943 7.01926 13.2068 7.20679L9.91379 10.4998L13.2068 13.7928C13.3889 13.9814 13.4897 14.234 13.4875 14.4962C13.4852 14.7584 13.38 15.0092 13.1946 15.1946C13.0092 15.38 12.7584 15.4852 12.4962 15.4875C12.234 15.4897 11.9814 15.3889 11.7928 15.2068L7.79279 11.2068C7.60532 11.0193 7.5 10.765 7.5 10.4998C7.5 10.2346 7.60532 9.98031 7.79279 9.79279L11.7928 5.79279C11.9803 5.60532 12.2346 5.5 12.4998 5.5C12.765 5.5 13.0193 5.60532 13.2068 5.79279Z" fill="#4B5563"/>
</svg>
