<svg width="21" height="21" viewBox="0 0 21 21" fill="none" xmlns="http://www.w3.org/2000/svg">
<path fill-rule="evenodd" clip-rule="evenodd" d="M7.79279 15.2074C7.60532 15.0199 7.5 14.7656 7.5 14.5004C7.5 14.2352 7.60532 13.9809 7.79279 13.7934L11.0858 10.5004L7.79279 7.20741C7.61063 7.0188 7.50983 6.7662 7.51211 6.50401C7.51439 6.24181 7.61956 5.991 7.80497 5.80559C7.99038 5.62018 8.24119 5.51501 8.50339 5.51273C8.76558 5.51045 9.01818 5.61125 9.20679 5.79341L13.2068 9.79341C13.3943 9.98094 13.4996 10.2352 13.4996 10.5004C13.4996 10.7656 13.3943 11.0199 13.2068 11.2074L9.20679 15.2074C9.01926 15.3949 8.76495 15.5002 8.49979 15.5002C8.23462 15.5002 7.98031 15.3949 7.79279 15.2074Z" fill="#4B5563"/>
</svg>
