<svg xmlns="http://www.w3.org/2000/svg" width="18" height="18" viewBox="0 0 18 18" fill="none">
    <path fill-rule="evenodd" clip-rule="evenodd" d="M7.2002 3.59999C6.48411 3.59999 5.79736 3.88445 5.29101 4.3908C4.78466 4.89715 4.5002 5.5839 4.5002 6.29999V9.89999C4.5002 11.0935 4.9743 12.2381 5.81821 13.082C6.66213 13.9259 7.80672 14.4 9.0002 14.4C10.1937 14.4 11.3383 13.9259 12.1822 13.082C13.0261 12.2381 13.5002 11.0935 13.5002 9.89999V6.29999C13.5002 6.06129 13.595 5.83237 13.7638 5.66359C13.9326 5.49481 14.1615 5.39999 14.4002 5.39999C14.6389 5.39999 14.8678 5.49481 15.0366 5.66359C15.2054 5.83237 15.3002 6.06129 15.3002 6.29999V9.89999C15.3002 10.7273 15.1372 11.5465 14.8206 12.3109C14.504 13.0752 14.04 13.7698 13.455 14.3548C12.87 14.9398 12.1755 15.4038 11.4111 15.7204C10.6468 16.037 9.82752 16.2 9.0002 16.2C8.17287 16.2 7.35364 16.037 6.58929 15.7204C5.82494 15.4038 5.13043 14.9398 4.54542 14.3548C3.96041 13.7698 3.49636 13.0752 3.17975 12.3109C2.86315 11.5465 2.7002 10.7273 2.7002 9.89999V6.29999C2.7002 5.10651 3.1743 3.96192 4.01821 3.11801C4.86213 2.27409 6.00672 1.79999 7.2002 1.79999C8.39367 1.79999 9.53826 2.27409 10.3822 3.11801C11.2261 3.96192 11.7002 5.10651 11.7002 6.29999V9.89999C11.7002 10.6161 11.4157 11.3028 10.9094 11.8092C10.403 12.3155 9.71628 12.6 9.0002 12.6C8.28411 12.6 7.59736 12.3155 7.09101 11.8092C6.58466 11.3028 6.3002 10.6161 6.3002 9.89999V6.29999C6.3002 6.06129 6.39502 5.83237 6.5638 5.66359C6.73258 5.49481 6.9615 5.39999 7.2002 5.39999C7.43889 5.39999 7.66781 5.49481 7.83659 5.66359C8.00537 5.83237 8.1002 6.06129 8.1002 6.29999V9.89999C8.1002 10.1387 8.19502 10.3676 8.3638 10.5364C8.53258 10.7052 8.7615 10.8 9.0002 10.8C9.23889 10.8 9.46781 10.7052 9.63659 10.5364C9.80537 10.3676 9.9002 10.1387 9.9002 9.89999V6.29999C9.9002 5.5839 9.61573 4.89715 9.10938 4.3908C8.60304 3.88445 7.91628 3.59999 7.2002 3.59999Z" fill="#6B7280"/>
    </svg>