<svg xmlns="http://www.w3.org/2000/svg" width="16" height="16" viewBox="0 0 16 16" fill="none">
    <path fill-rule="evenodd" clip-rule="evenodd" d="M4.3998 13.6004C2.41158 13.6004 0.799805 11.9886 0.799805 10.0004C0.799805 8.41511 1.82448 7.06915 3.24764 6.58871C3.21617 6.39727 3.1998 6.20074 3.1998 6.00039C3.1998 4.01217 4.81158 2.40039 6.7998 2.40039C8.11211 2.40039 9.26041 3.10256 9.8895 4.15169C10.1749 4.05363 10.4811 4.00039 10.7998 4.00039C12.3462 4.00039 13.5998 5.25399 13.5998 6.80039C13.5998 7.06706 13.5625 7.32502 13.4929 7.56935C14.508 8.10584 15.1998 9.17233 15.1998 10.4004C15.1998 12.1677 13.7671 13.6004 11.9998 13.6004H4.3998ZM7.2498 11.4004C7.2498 11.8146 7.58559 12.1504 7.9998 12.1504C8.41402 12.1504 8.7498 11.8146 8.7498 11.4004L8.74981 8.11029L10.0502 9.51073C10.3321 9.81426 10.8066 9.83184 11.1101 9.54999C11.4137 9.26813 11.4313 8.79359 11.1494 8.49005L8.5494 5.69005C8.40749 5.53723 8.20836 5.45039 7.99981 5.45039C7.79125 5.45039 7.59212 5.53723 7.45021 5.69005L4.85021 8.49005C4.56836 8.79358 4.58593 9.26813 4.88947 9.54998C5.193 9.83184 5.66755 9.81426 5.9494 9.51073L7.24981 8.11029L7.2498 11.4004Z" fill="white"/>
    </svg>