<svg width="20" height="21" viewBox="0 0 20 21" fill="none" xmlns="http://www.w3.org/2000/svg">
<path d="M8.61944 3.78338C8.69478 3.33132 9.0859 3 9.54418 3H10.4558C10.9141 3 11.3052 3.33132 11.3806 3.78338L11.5047 4.52822C11.5636 4.88178 11.8244 5.16532 12.1554 5.30276C12.4866 5.44027 12.8669 5.4219 13.1587 5.21348L13.7734 4.77445C14.1463 4.50807 14.6571 4.55035 14.9812 4.87441L15.6258 5.51903C15.9499 5.84309 15.9921 6.35393 15.7258 6.72686L15.2866 7.34172C15.0782 7.63343 15.0598 8.01361 15.1973 8.34469C15.3347 8.67565 15.6182 8.93636 15.9716 8.99527L16.7166 9.11944C17.1687 9.19478 17.5 9.5859 17.5 10.0442V10.9558C17.5 11.4141 17.1687 11.8052 16.7166 11.8806L15.9718 12.0047C15.6182 12.0636 15.3347 12.3244 15.1972 12.6554C15.0597 12.9866 15.0781 13.3669 15.2865 13.6587L15.7255 14.2732C15.9919 14.6461 15.9496 15.157 15.6255 15.481L14.9809 16.1256C14.6568 16.4497 14.146 16.492 13.7731 16.2256L13.1584 15.7866C12.8667 15.5782 12.4865 15.5598 12.1553 15.6973C11.8244 15.8347 11.5636 16.1182 11.5047 16.4717L11.3806 17.2166C11.3052 17.6687 10.9141 18 10.4558 18H9.54418C9.0859 18 8.69478 17.6687 8.61944 17.2166L8.4953 16.4718C8.43637 16.1182 8.1756 15.8347 7.84457 15.6972C7.5134 15.5597 7.13312 15.5781 6.84133 15.7865L6.22665 16.2256C5.85373 16.492 5.34288 16.4497 5.01883 16.1256L4.3742 15.481C4.05014 15.1569 4.00787 14.6461 4.27424 14.2732L4.71343 13.6583C4.9218 13.3666 4.94017 12.9864 4.80271 12.6553C4.66531 12.3244 4.38183 12.0636 4.02835 12.0047L3.28338 11.8806C2.83132 11.8052 2.5 11.4141 2.5 10.9558V10.0442C2.5 9.5859 2.83132 9.19478 3.28338 9.11944L4.02821 8.9953C4.38178 8.93637 4.66532 8.6756 4.80277 8.34456C4.94027 8.01337 4.92191 7.63308 4.71348 7.34128L4.27457 6.7268C4.00819 6.35388 4.05047 5.84304 4.37453 5.51898L5.01915 4.87435C5.34321 4.5503 5.85405 4.50802 6.22698 4.77439L6.84164 5.21344C7.13337 5.42181 7.51357 5.44018 7.84467 5.30272C8.17564 5.16531 8.43636 4.88182 8.49528 4.52833L8.61944 3.78338Z" stroke="#4B5563" stroke-width="1.5" stroke-linecap="round" stroke-linejoin="round"/>
<path d="M12.5006 10.5C12.5006 11.8807 11.3813 13 10.0006 13C8.61987 13 7.50058 11.8807 7.50058 10.5C7.50058 9.11931 8.61987 8.00002 10.0006 8.00002C11.3813 8.00002 12.5006 9.11931 12.5006 10.5Z" stroke="#4B5563" stroke-width="1.5" stroke-linecap="round" stroke-linejoin="round"/>
</svg>
