<svg xmlns="http://www.w3.org/2000/svg" width="16" height="16" viewBox="0 0 16 16" fill="none">
    <path fill-rule="evenodd" clip-rule="evenodd" d="M1.5 3.5C1.5 2.39543 2.39543 1.5 3.5 1.5H12.5C13.6046 1.5 14.5 2.39543 14.5 3.5V10C14.5 11.1046 13.6046 12 12.5 12H10.5V12.1716C10.5 12.5694 10.658 12.9509 10.9393 13.2322L11.3536 13.6464C11.4966 13.7894 11.5393 14.0045 11.4619 14.1913C11.3845 14.3782 11.2022 14.5 11 14.5H5C4.79777 14.5 4.61545 14.3782 4.53806 14.1913C4.46067 14.0045 4.50345 13.7894 4.64645 13.6464L5.06066 13.2322C5.34196 12.9509 5.5 12.5694 5.5 12.1716V12H3.5C2.39543 12 1.5 11.1046 1.5 10V3.5ZM2.5 3.5V8.5C2.5 9.05228 2.94772 9.5 3.5 9.5H12.5C13.0523 9.5 13.5 9.05228 13.5 8.5V3.5C13.5 2.94772 13.0523 2.5 12.5 2.5H3.5C2.94772 2.5 2.5 2.94772 2.5 3.5Z" fill="white"/>
    </svg>