<svg xmlns="http://www.w3.org/2000/svg" width="16" height="16" viewBox="0 0 16 16" fill="none">
    <path d="M7.96835 0.187678C8.02136 0.187753 8.07437 0.187825 8.12739 0.187894C10.0652 0.191546 12.2343 0.350394 13.7911 1.6452C13.8271 1.67481 13.8631 1.70441 13.9002 1.73492C15.2271 2.88032 15.6484 4.73666 15.7833 6.41082C15.7867 6.45255 15.7901 6.49428 15.7937 6.53728C15.8287 7.02061 15.8302 7.50354 15.8297 7.98797C15.8297 8.03135 15.8296 8.07474 15.8296 8.11944C15.8287 8.75079 15.8227 9.37724 15.7442 10.0046C15.7392 10.0455 15.7342 10.0865 15.729 10.1287C15.5615 11.4384 15.2323 12.755 14.377 13.7936C14.3474 13.8297 14.3177 13.8658 14.2872 13.903C13.1053 15.2706 11.1946 15.6757 9.4737 15.8063C9.20164 15.8253 8.93086 15.8318 8.6582 15.8328C8.61019 15.8331 8.56219 15.8334 8.51273 15.8336C8.35894 15.8343 8.20515 15.8346 8.05136 15.8347C8.02519 15.8347 7.99902 15.8347 7.97206 15.8347C7.18472 15.8352 6.40709 15.8258 5.62704 15.7077C5.58825 15.7021 5.54946 15.6964 5.50949 15.6906C4.23426 15.4993 3.00672 15.0972 2.03329 14.2233C2.00338 14.1966 1.97347 14.1699 1.94265 14.1425C0.61291 12.8868 0.24928 10.7984 0.193149 9.05362C0.190999 8.92265 0.189921 8.79172 0.189417 8.66073C0.189145 8.61273 0.188873 8.56472 0.188593 8.51526C0.187918 8.36147 0.187648 8.20768 0.187586 8.05389C0.187563 8.02772 0.18754 8.00155 0.187517 7.97459C0.187028 7.18722 0.196568 6.40967 0.31454 5.62957C0.320185 5.59057 0.325831 5.55157 0.331648 5.51139C0.55478 4.01397 1.11202 2.48438 2.34579 1.52801C3.26099 0.878405 4.30164 0.530159 5.40243 0.348811C5.43858 0.342762 5.47474 0.336714 5.51199 0.330482C6.3277 0.204194 7.14441 0.18536 7.96835 0.187678ZM9.82321 5.23071C9.78769 5.24224 9.75217 5.25377 9.71557 5.26565C9.59931 5.30348 9.4833 5.34201 9.36727 5.38055C9.24475 5.42067 9.12217 5.46061 8.99958 5.50053C8.91514 5.52802 8.83071 5.55557 8.74631 5.58318C8.45102 5.67949 8.1548 5.77225 7.85772 5.86288C7.81748 5.87519 7.77723 5.88751 7.73577 5.90019C7.57985 5.94787 7.42393 5.9955 7.2678 6.04246C7.16058 6.07473 7.05352 6.10747 6.94647 6.14028C6.91505 6.14958 6.88364 6.15888 6.85127 6.16846C6.61165 6.24257 6.42866 6.3168 6.28926 6.53732C6.17166 6.80047 6.09327 7.08074 6.00805 7.35565C5.98862 7.41764 5.96917 7.47963 5.9497 7.54161C5.89861 7.70441 5.84785 7.86731 5.79715 8.03023C5.74611 8.19407 5.69476 8.35782 5.64344 8.52157C5.5591 8.79084 5.47479 9.06011 5.3911 9.32958C5.34761 9.4695 5.30363 9.60924 5.25881 9.74874C5.2498 9.77699 5.2408 9.80523 5.23151 9.83433C5.21446 9.88773 5.19727 9.94108 5.1799 9.99438C5.09981 10.2462 5.06273 10.4385 5.18514 10.6833C5.27915 10.79 5.33934 10.8492 5.47079 10.903C5.69934 10.916 5.8799 10.8867 6.09633 10.8165C6.12592 10.8073 6.1555 10.798 6.18598 10.7886C6.28306 10.7582 6.37993 10.7272 6.4768 10.6963C6.545 10.6748 6.61322 10.6534 6.68144 10.632C6.86083 10.5756 7.04004 10.5187 7.21922 10.4617C7.39978 10.4044 7.5805 10.3476 7.76121 10.2908C8.24971 10.137 8.24971 10.137 8.73752 9.98105C8.85037 9.94469 8.9635 9.90961 9.07703 9.87542C9.12958 9.85911 9.18212 9.84279 9.23466 9.82646C9.30296 9.80581 9.30296 9.80581 9.37264 9.78475C9.53943 9.7112 9.64609 9.61317 9.73554 9.45394C9.74591 9.42577 9.75629 9.39759 9.76698 9.36856C9.77956 9.3344 9.79215 9.30024 9.80511 9.26505C9.89115 9.01153 9.97229 8.75666 10.0521 8.50112C10.0716 8.43896 10.0912 8.3768 10.1107 8.31465C10.1619 8.15184 10.2129 7.98898 10.2639 7.8261C10.3154 7.66164 10.3671 7.49724 10.4188 7.33284C10.5196 7.01171 10.6204 6.69056 10.7206 6.3692C10.7439 6.2947 10.7675 6.22029 10.7911 6.14588C10.8053 6.10082 10.8194 6.05576 10.834 6.00934C10.8464 5.97017 10.8589 5.931 10.8716 5.89064C10.9283 5.68467 10.9343 5.53976 10.8346 5.34393C10.7259 5.21767 10.646 5.13234 10.4744 5.11364C10.2391 5.10966 10.0451 5.15566 9.82321 5.23071Z" fill="black"/>
    </svg>