<svg width="20" height="21" viewBox="0 0 20 21" fill="none" xmlns="http://www.w3.org/2000/svg">
<path d="M10 5.5V15.5M7.5 13.1515L8.23239 13.7008C9.20867 14.4331 10.7915 14.4331 11.7678 13.7008C12.7441 12.9686 12.7441 11.7814 11.7678 11.0492C11.2796 10.683 10.6398 10.5 9.99991 10.5C9.3958 10.5 8.79183 10.317 8.33091 9.95085C7.40916 9.21861 7.40916 8.03143 8.33091 7.2992C9.25266 6.56696 10.7471 6.56696 11.6689 7.2992L12.0146 7.57386M17.5 10.5C17.5 14.6421 14.1421 18 10 18C5.85786 18 2.5 14.6421 2.5 10.5C2.5 6.35786 5.85786 3 10 3C14.1421 3 17.5 6.35786 17.5 10.5Z" stroke="#4B5563" stroke-width="1.5" stroke-linecap="round" stroke-linejoin="round"/>
</svg>
