<svg>
  <symbol
    id="home"
    width="18"
    height="17"
    viewBox="0 0 18 17"
    fill="none"
    xmlns="http://www.w3.org/2000/svg"
  >
    <path
      d="M0.875 8.5L8.33709 1.03792C8.7032 0.6718 9.2968 0.671799 9.66291 1.03792L17.125 8.5M2.75 6.625V15.0625C2.75 15.5803 3.16973 16 3.6875 16H7.125V11.9375C7.125 11.4197 7.54473 11 8.0625 11H9.9375C10.4553 11 10.875 11.4197 10.875 11.9375V16H14.3125C14.8303 16 15.25 15.5803 15.25 15.0625V6.625M5.875 16H12.75"
      stroke="#4B5563"
      stroke-width="1.5"
      stroke-linecap="round"
      stroke-linejoin="round"
    />
  </symbol>

  <symbol
    id="discover"
    width="18"
    height="17"
    viewBox="0 0 18 17"
    fill="none"
    xmlns="http://www.w3.org/2000/svg"
  >
    <path
      d="M16.5 16L12.1694 11.6694M12.1694 11.6694C13.3004 10.5384 14 8.97589 14 7.25C14 3.79822 11.2018 1 7.75 1C4.29822 1 1.5 3.79822 1.5 7.25C1.5 10.7018 4.29822 13.5 7.75 13.5C9.47589 13.5 11.0384 12.8004 12.1694 11.6694Z"
      stroke="#4B5563"
      stroke-width="1.5"
      stroke-linecap="round"
      stroke-linejoin="round"
    />
  </symbol>

  <symbol
    id="analyze"
    width="18"
    height="17"
    viewBox="0 0 18 17"
    fill="none"
    xmlns="http://www.w3.org/2000/svg"
  >
    <path
      d="M6.5 14.3333V9.33333C6.5 8.89131 6.3244 8.46738 6.01184 8.15482C5.69928 7.84226 5.27536 7.66667 4.83333 7.66667H3.16667C2.72464 7.66667 2.30072 7.84226 1.98816 8.15482C1.67559 8.46738 1.5 8.89131 1.5 9.33333V14.3333C1.5 14.7754 1.67559 15.1993 1.98816 15.5118C2.30072 15.8244 2.72464 16 3.16667 16H4.83333C5.27536 16 5.69928 15.8244 6.01184 15.5118C6.3244 15.1993 6.5 14.7754 6.5 14.3333ZM6.5 14.3333V6C6.5 5.55797 6.67559 5.13405 6.98816 4.82149C7.30072 4.50893 7.72464 4.33333 8.16667 4.33333H9.83333C10.2754 4.33333 10.6993 4.50893 11.0118 4.82149C11.3244 5.13405 11.5 5.55797 11.5 6V14.3333M6.5 14.3333C6.5 14.7754 6.67559 15.1993 6.98816 15.5118C7.30072 15.8244 7.72464 16 8.16667 16H9.83333C10.2754 16 10.6993 15.8244 11.0118 15.5118C11.3244 15.1993 11.5 14.7754 11.5 14.3333M11.5 14.3333V2.66667C11.5 2.22464 11.6756 1.80072 11.9882 1.48816C12.3007 1.17559 12.7246 1 13.1667 1H14.8333C15.2754 1 15.6993 1.17559 16.0118 1.48816C16.3244 1.80072 16.5 2.22464 16.5 2.66667V14.3333C16.5 14.7754 16.3244 15.1993 16.0118 15.5118C15.6993 15.8244 15.2754 16 14.8333 16H13.1667C12.7246 16 12.3007 15.8244 11.9882 15.5118C11.6756 15.1993 11.5 14.7754 11.5 14.3333Z"
      stroke="#4B5563"
      stroke-width="1.5"
      stroke-linecap="round"
      stroke-linejoin="round"
    />
  </symbol>

  <symbol
    id="action"
    width="16"
    height="17"
    viewBox="0 0 16 17"
    fill="none"
    xmlns="http://www.w3.org/2000/svg"
  >
    <path
      d="M8.83398 1V6.83333H14.6673L7.16732 16V10.1667H1.33398L8.83398 1Z"
      stroke="#4B5563"
      stroke-width="1.5"
      stroke-linecap="round"
      stroke-linejoin="round"
    />
  </symbol>

  <symbol
    id="reflect"
    width="18"
    height="17"
    viewBox="0 0 18 17"
    fill="none"
    xmlns="http://www.w3.org/2000/svg"
  >
    <path
      d="M7.0525 12.6667H10.9467M9 1V1.83333M14.3033 3.19667L13.7142 3.78583M16.5 8.5H15.6667M2.33333 8.5H1.5M4.28583 3.78583L3.69667 3.19667M6.05333 11.4467C5.47072 10.8639 5.074 10.1215 4.91331 9.31325C4.75263 8.50502 4.83521 7.6673 5.15061 6.90601C5.466 6.14471 6.00006 5.49403 6.68524 5.03624C7.37042 4.57845 8.17596 4.33411 9 4.33411C9.82404 4.33411 10.6296 4.57845 11.3148 5.03624C11.9999 5.49403 12.534 6.14471 12.8494 6.90601C13.1648 7.6673 13.2474 8.50502 13.0867 9.31325C12.926 10.1215 12.5293 10.8639 11.9467 11.4467L11.49 11.9025C11.2289 12.1636 11.0218 12.4736 10.8806 12.8148C10.7393 13.1559 10.6666 13.5216 10.6667 13.8908V14.3333C10.6667 14.7754 10.4911 15.1993 10.1785 15.5118C9.86595 15.8244 9.44203 16 9 16C8.55797 16 8.13405 15.8244 7.82149 15.5118C7.50893 15.1993 7.33333 14.7754 7.33333 14.3333V13.8908C7.33333 13.145 7.03667 12.4292 6.51 11.9025L6.05333 11.4467Z"
      stroke="#4B5563"
      stroke-width="1.5"
      stroke-linecap="round"
      stroke-linejoin="round"
    />
  </symbol>

  <symbol
    id="users"
    width="18"
    height="17"
    viewBox="0 0 18 17"
    fill="none"
    xmlns="http://www.w3.org/2000/svg"
  >
    <path
      d="M3.2675 13.3367C5.01618 12.3483 6.99132 11.8303 9 11.8333C11.0833 11.8333 13.0392 12.3792 14.7325 13.3367M11.5 6.83333C11.5 7.49637 11.2366 8.13226 10.7678 8.6011C10.2989 9.06994 9.66304 9.33333 9 9.33333C8.33696 9.33333 7.70107 9.06994 7.23223 8.6011C6.76339 8.13226 6.5 7.49637 6.5 6.83333C6.5 6.17029 6.76339 5.53441 7.23223 5.06557C7.70107 4.59673 8.33696 4.33333 9 4.33333C9.66304 4.33333 10.2989 4.59673 10.7678 5.06557C11.2366 5.53441 11.5 6.17029 11.5 6.83333ZM16.5 8.5C16.5 9.48491 16.306 10.4602 15.9291 11.3701C15.5522 12.2801 14.9997 13.1069 14.3033 13.8033C13.6069 14.4997 12.7801 15.0522 11.8701 15.4291C10.9602 15.806 9.98491 16 9 16C8.01509 16 7.03982 15.806 6.12987 15.4291C5.21993 15.0522 4.39314 14.4997 3.6967 13.8033C3.00026 13.1069 2.44781 12.2801 2.0709 11.3701C1.69399 10.4602 1.5 9.48491 1.5 8.5C1.5 6.51088 2.29018 4.60322 3.6967 3.1967C5.10322 1.79018 7.01088 1 9 1C10.9891 1 12.8968 1.79018 14.3033 3.1967C15.7098 4.60322 16.5 6.51088 16.5 8.5Z"
      stroke="#4B5563"
      stroke-width="1.5"
      stroke-linecap="round"
      stroke-linejoin="round"
    />
  </symbol>

  <symbol
    id="teams"
    width="20"
    height="15"
    viewBox="0 0 20 15"
    fill="none"
    xmlns="http://www.w3.org/2000/svg"
  >
    <path
      d="M14.166 14.1667H18.3327V12.5C18.3326 11.9805 18.1707 11.4738 17.8695 11.0505C17.5682 10.6272 17.1425 10.3083 16.6516 10.1381C16.1608 9.96794 15.629 9.95491 15.1304 10.1009C14.6318 10.2468 14.191 10.5445 13.8693 10.9525M14.166 14.1667H5.83268M14.166 14.1667V12.5C14.166 11.9533 14.061 11.4308 13.8693 10.9525M13.8693 10.9525C13.5599 10.1791 13.0258 9.51623 12.336 9.04928C11.6462 8.58233 10.8323 8.33276 9.99935 8.33276C9.16636 8.33276 8.35248 8.58233 7.66269 9.04928C6.97289 9.51623 6.43881 10.1791 6.12935 10.9525M5.83268 14.1667H1.66602V12.5C1.66605 11.9805 1.82796 11.4738 2.12923 11.0505C2.43051 10.6272 2.85617 10.3083 3.34706 10.1381C3.83795 9.96794 4.36966 9.95491 4.8683 10.1009C5.36693 10.2468 5.80771 10.5445 6.12935 10.9525M5.83268 14.1667V12.5C5.83268 11.9533 5.93768 11.4308 6.12935 10.9525M12.4993 3.33334C12.4993 3.99638 12.236 4.63227 11.7671 5.10111C11.2983 5.56995 10.6624 5.83334 9.99935 5.83334C9.33631 5.83334 8.70042 5.56995 8.23158 5.10111C7.76274 4.63227 7.49935 3.99638 7.49935 3.33334C7.49935 2.6703 7.76274 2.03442 8.23158 1.56558C8.70042 1.09674 9.33631 0.833344 9.99935 0.833344C10.6624 0.833344 11.2983 1.09674 11.7671 1.56558C12.236 2.03442 12.4993 2.6703 12.4993 3.33334ZM17.4993 5.83334C17.4993 6.27537 17.3238 6.69929 17.0112 7.01185C16.6986 7.32441 16.2747 7.50001 15.8327 7.50001C15.3907 7.50001 14.9667 7.32441 14.6542 7.01185C14.3416 6.69929 14.166 6.27537 14.166 5.83334C14.166 5.39132 14.3416 4.96739 14.6542 4.65483C14.9667 4.34227 15.3907 4.16668 15.8327 4.16668C16.2747 4.16668 16.6986 4.34227 17.0112 4.65483C17.3238 4.96739 17.4993 5.39132 17.4993 5.83334ZM5.83268 5.83334C5.83268 6.27537 5.65709 6.69929 5.34453 7.01185C5.03197 7.32441 4.60804 7.50001 4.16602 7.50001C3.72399 7.50001 3.30006 7.32441 2.9875 7.01185C2.67494 6.69929 2.49935 6.27537 2.49935 5.83334C2.49935 5.39132 2.67494 4.96739 2.9875 4.65483C3.30006 4.34227 3.72399 4.16668 4.16602 4.16668C4.60804 4.16668 5.03197 4.34227 5.34453 4.65483C5.65709 4.96739 5.83268 5.39132 5.83268 5.83334Z"
      stroke="#4B5563"
      stroke-width="1.5"
      stroke-linecap="round"
      stroke-linejoin="round"
    />
  </symbol>

  <symbol
    id="settings"
    width="18"
    height="17"
    viewBox="0 0 18 17"
    fill="none"
    xmlns="http://www.w3.org/2000/svg"
  >
    <path
      d="M7.61944 1.78335C7.69478 1.33129 8.0859 0.999969 8.54418 0.999969H9.45582C9.91411 0.999969 10.3052 1.33129 10.3806 1.78335L10.5047 2.52819C10.5636 2.88175 10.8244 3.16529 11.1554 3.30273C11.4866 3.44024 11.8669 3.42187 12.1587 3.21345L12.7734 2.77442C13.1463 2.50804 13.6571 2.55032 13.9812 2.87438L14.6258 3.519C14.9499 3.84306 14.9921 4.3539 14.7258 4.72683L14.2866 5.34169C14.0782 5.6334 14.0598 6.01358 14.1973 6.34466C14.3347 6.67562 14.6182 6.93633 14.9716 6.99524L15.7166 7.11941C16.1687 7.19475 16.5 7.58586 16.5 8.04415V8.95579C16.5 9.41407 16.1687 9.80519 15.7166 9.88053L14.9718 10.0047C14.6182 10.0636 14.3347 10.3244 14.1972 10.6554C14.0597 10.9866 14.0781 11.3668 14.2865 11.6586L14.7255 12.2732C14.9919 12.6461 14.9496 13.1569 14.6255 13.481L13.9809 14.1256C13.6568 14.4497 13.146 14.492 12.7731 14.2256L12.1584 13.7865C11.8667 13.5781 11.4865 13.5598 11.1553 13.6972C10.8244 13.8347 10.5636 14.1182 10.5047 14.4716L10.3806 15.2166C10.3052 15.6686 9.91411 16 9.45582 16H8.54418C8.0859 16 7.69478 15.6686 7.61944 15.2166L7.4953 14.4717C7.43637 14.1182 7.1756 13.8347 6.84457 13.6972C6.5134 13.5597 6.13312 13.5781 5.84133 13.7865L5.22665 14.2256C4.85373 14.4919 4.34288 14.4497 4.01883 14.1256L3.3742 13.481C3.05014 13.1569 3.00787 12.6461 3.27424 12.2731L3.71343 11.6583C3.9218 11.3666 3.94017 10.9864 3.80271 10.6553C3.66531 10.3243 3.38183 10.0636 3.02835 10.0047L2.28338 9.88053C1.83132 9.80519 1.5 9.41407 1.5 8.95579V8.04415C1.5 7.58586 1.83132 7.19475 2.28338 7.11941L3.02821 6.99527C3.38178 6.93634 3.66532 6.67556 3.80277 6.34453C3.94027 6.01334 3.92191 5.63305 3.71348 5.34125L3.27457 4.72677C3.00819 4.35385 3.05047 3.84301 3.37453 3.51895L4.01915 2.87432C4.34321 2.55027 4.85405 2.50799 5.22698 2.77436L5.84164 3.21341C6.13337 3.42178 6.51357 3.44015 6.84467 3.30269C7.17564 3.16528 7.43636 2.88179 7.49528 2.5283L7.61944 1.78335Z"
      stroke="#4B5563"
      stroke-width="1.5"
      stroke-linecap="round"
      stroke-linejoin="round"
    />
    <path
      d="M11.5006 8.49999C11.5006 9.8807 10.3813 11 9.00058 11C7.61987 11 6.50058 9.8807 6.50058 8.49999C6.50058 7.11928 7.61987 5.99999 9.00058 5.99999C10.3813 5.99999 11.5006 7.11928 11.5006 8.49999Z"
      stroke="#4B5563"
      stroke-width="1.5"
      stroke-linecap="round"
      stroke-linejoin="round"
    />
  </symbol>

  <symbol
    id="goals"
    width="16"
    height="16"
    viewBox="0 0 16 16"
    fill="none"
    xmlns="http://www.w3.org/2000/svg"
  >
    <path
      d="M10.9415 7.06882C11.3188 7.77051 11.5338 8.57231 11.5338 9.42321C11.5338 12.1648 9.30685 14.3945 6.56865 14.3945C3.83046 14.3945 1.60349 12.1648 1.60349 9.42321C1.60349 6.68162 3.8314 4.4519 6.56865 4.4519C7.42982 4.4519 8.24005 4.67194 8.94653 5.06009L10.1152 3.88998C9.09179 3.22984 7.87408 2.84642 6.56865 2.84642C2.94665 2.84642 0 5.79672 0 9.42321C0 13.0497 2.94665 16 6.56865 16C10.1907 16 13.1373 13.0497 13.1373 9.42321C13.1373 8.12749 12.761 6.91772 12.1111 5.89777L10.9415 7.06882Z"
      fill="#3F83F8"
    />
    <path
      d="M6.52149 7.48814L7.87503 6.13293C7.47038 5.97049 7.02989 5.88172 6.56865 5.88172C4.61805 5.88172 3.03154 7.47114 3.03154 9.42321C3.03154 11.3753 4.61805 12.9647 6.56865 12.9647C8.51925 12.9647 10.1058 11.3762 10.1058 9.42321C10.1058 8.97273 10.0218 8.54114 9.86713 8.1445L8.49944 9.51387C8.45228 10.5404 7.60432 11.3592 6.56865 11.3592C5.53299 11.3592 4.63503 10.4913 4.63503 9.42321C4.63503 8.3551 5.47734 7.51269 6.52149 7.48814Z"
      fill="#3F83F8"
    />
    <path
      d="M14.4173 2.84075H13.1637V0L10.5434 2.62354V4.12797L6.56204 8.11427C6.19324 8.48353 6.19324 9.08134 6.56204 9.44965C6.93085 9.81891 7.52791 9.81891 7.89577 9.44965L11.8771 5.46335H13.3797L16 2.83981H14.4173V2.84075Z"
      fill="#3F83F8"
    />
  </symbol>

  <symbol
    id="drivers"
    width="18"
    height="18"
    viewBox="0 0 18 18"
    fill="none"
    xmlns="http://www.w3.org/2000/svg"
  >
    <path
      d="M6.5 1.5V3.16667M11.5 1.5V3.16667M6.5 14.8333V16.5M11.5 14.8333V16.5M3.16667 6.5H1.5M3.16667 11.5H1.5M16.5 6.5H14.8333M16.5 11.5H14.8333M4.83333 14.8333H13.1667C13.6087 14.8333 14.0326 14.6577 14.3452 14.3452C14.6577 14.0326 14.8333 13.6087 14.8333 13.1667V4.83333C14.8333 4.39131 14.6577 3.96738 14.3452 3.65482C14.0326 3.34226 13.6087 3.16667 13.1667 3.16667H4.83333C4.39131 3.16667 3.96738 3.34226 3.65482 3.65482C3.34226 3.96738 3.16667 4.39131 3.16667 4.83333V13.1667C3.16667 13.6087 3.34226 14.0326 3.65482 14.3452C3.96738 14.6577 4.39131 14.8333 4.83333 14.8333ZM6.5 6.5H11.5V11.5H6.5V6.5Z"
      stroke="#31C48D"
      stroke-width="1.5"
      stroke-linecap="round"
      stroke-linejoin="round"
    />
  </symbol>

  <symbol
    id="initiatives"
    width="18"
    height="18"
    viewBox="0 0 18 18"
    fill="none"
    xmlns="http://www.w3.org/2000/svg"
  >
    <path
      d="M7.0525 13.1667H10.9467M9 1.5V2.33333M14.3033 3.69667L13.7142 4.28583M16.5 9H15.6667M2.33333 9H1.5M4.28583 4.28583L3.69667 3.69667M6.05333 11.9467C5.47072 11.3639 5.074 10.6215 4.91331 9.81325C4.75263 9.00502 4.83521 8.1673 5.15061 7.40601C5.466 6.64471 6.00006 5.99403 6.68524 5.53624C7.37042 5.07845 8.17596 4.83411 9 4.83411C9.82404 4.83411 10.6296 5.07845 11.3148 5.53624C11.9999 5.99403 12.534 6.64471 12.8494 7.40601C13.1648 8.1673 13.2474 9.00502 13.0867 9.81325C12.926 10.6215 12.5293 11.3639 11.9467 11.9467L11.49 12.4025C11.2289 12.6636 11.0218 12.9736 10.8806 13.3148C10.7393 13.6559 10.6666 14.0216 10.6667 14.3908V14.8333C10.6667 15.2754 10.4911 15.6993 10.1785 16.0118C9.86595 16.3244 9.44203 16.5 9 16.5C8.55797 16.5 8.13405 16.3244 7.82149 16.0118C7.50893 15.6993 7.33333 15.2754 7.33333 14.8333V14.3908C7.33333 13.645 7.03667 12.9292 6.51 12.4025L6.05333 11.9467Z"
      stroke="#7A499D"
      stroke-width="1.5"
      stroke-linecap="round"
      stroke-linejoin="round"
    />
  </symbol>

  <symbol
    id="measures"
    width="18"
    height="18"
    viewBox="0 0 18 18"
    fill="none"
    xmlns="http://www.w3.org/2000/svg"
  >
    <path
      d="M1.5 4L4 4.83333M4 4.83333L1.5 12.3333C2.22142 12.8742 3.09876 13.1666 4.00042 13.1666C4.90207 13.1666 5.77942 12.8742 6.50083 12.3333L4 4.83333ZM4 4.83333L6.5 12.3333M4 4.83333L9 3.16667M9 3.16667L14 4.83333M9 3.16667V1.5M9 3.16667V16.5M14 4.83333L16.5 4M14 4.83333L11.5 12.3333C12.2214 12.8742 13.0988 13.1666 14.0004 13.1666C14.9021 13.1666 15.7794 12.8742 16.5008 12.3333L14 4.83333ZM9 16.5H6.5M9 16.5H11.5"
      stroke="#FF8A4C"
      stroke-width="1.5"
      stroke-linecap="round"
      stroke-linejoin="round"
    />
  </symbol>

  <symbol
    id="risks"
    width="18"
    height="16"
    viewBox="0 0 18 16"
    fill="none"
    xmlns="http://www.w3.org/2000/svg"
  >
    <path
      d="M8.9992 6.49998V8.16664M8.9992 11.5H9.00754M3.22587 14.8333H14.7725C16.0559 14.8333 16.8575 13.4441 16.2159 12.3333L10.4425 2.33331C9.80087 1.22247 8.19754 1.22247 7.55587 2.33331L1.78254 12.3333C1.14087 13.4441 1.94254 14.8333 3.22587 14.8333Z"
      stroke="#9061F9"
      stroke-width="1.5"
      stroke-linecap="round"
      stroke-linejoin="round"
    />
  </symbol>

  <symbol
    id="constraints"
    width="18"
    height="18"
    viewBox="0 0 18 18"
    fill="none"
    xmlns="http://www.w3.org/2000/svg"
  >
    <path
      d="M10.5233 7.47666C9.89819 6.85176 9.05049 6.50071 8.16661 6.50071C7.28273 6.50071 6.43504 6.85176 5.80994 7.47666L2.47661 10.81C2.15824 11.1175 1.9043 11.4853 1.72961 11.892C1.55491 12.2987 1.46296 12.7361 1.45911 13.1787C1.45526 13.6213 1.5396 14.0602 1.70721 14.4698C1.87481 14.8795 2.12232 15.2517 2.43529 15.5646C2.74827 15.8776 3.12044 16.1251 3.5301 16.2927C3.93975 16.4603 4.37868 16.5447 4.82128 16.5408C5.26388 16.537 5.70128 16.445 6.10796 16.2703C6.51464 16.0956 6.88246 15.8417 7.18995 15.5233L8.10828 14.6058M7.47661 10.5233C8.1017 11.1482 8.9494 11.4993 9.83328 11.4993C10.7172 11.4993 11.5649 11.1482 12.1899 10.5233L15.5233 7.18999C16.1305 6.56132 16.4665 5.71931 16.4589 4.84532C16.4513 3.97133 16.1007 3.13529 15.4827 2.51727C14.8646 1.89924 14.0286 1.54868 13.1546 1.54108C12.2806 1.53349 11.4386 1.86947 10.8099 2.47666L9.89328 3.39333"
      stroke="#EF518C"
      stroke-width="1.5"
      stroke-linecap="round"
      stroke-linejoin="round"
    />
  </symbol>
</svg>
