<svg xmlns="http://www.w3.org/2000/svg" width="16" height="16" viewBox="0 0 16 16" fill="none">
    <g clip-path="url(#clip0_2360_32985)">
    <path d="M8.74859 7.50789H7.09609V6.02289H8.74859V7.50789ZM8.74859 2.40039H7.09609V3.91789H8.74859V2.40039ZM10.7036 6.02039H9.05109V7.50539H10.7036V6.02039ZM6.79609 4.21789H5.14359V5.72039H6.79609V4.21789ZM8.74859 4.21789H7.09609V5.72039H8.74859V4.21789ZM15.6686 6.71789C15.3086 6.47539 14.4786 6.38789 13.8411 6.50789C13.7586 5.90789 13.4236 5.38539 12.8136 4.91539L12.4636 4.68289L12.2311 5.03289C11.7711 5.72789 11.6461 6.87289 12.1386 7.62789C11.9211 7.74539 11.4936 7.90539 10.9286 7.89539H0.0610897C-0.15641 9.16539 0.20609 10.8154 1.16109 11.9479C2.08859 13.0454 3.47859 13.6029 5.29609 13.6029C9.23109 13.6029 12.1436 11.7904 13.5061 8.49789C14.0411 8.50789 15.1961 8.50039 15.7886 7.36789C15.8261 7.30539 15.9536 7.03789 16.0011 6.94039L15.6686 6.71789ZM2.89109 6.02039H1.24109V7.50539H2.89359V6.02039H2.89109ZM4.84359 6.02039H3.19109V7.50539H4.84359V6.02039ZM6.79609 6.02039H5.14359V7.50539H6.79609V6.02039ZM4.84359 4.21789H3.19109V5.72039H4.84359V4.21789Z" fill="white"/>
    </g>
    <defs>
    <clipPath id="clip0_2360_32985">
    <rect width="16" height="16" fill="white"/>
    </clipPath>
    </defs>
    </svg>