<svg xmlns="http://www.w3.org/2000/svg" width="16" height="16" viewBox="0 0 16 16" fill="none">
    <path fill-rule="evenodd" clip-rule="evenodd" d="M3.75 1C3.05964 1 2.5 1.55964 2.5 2.25V13.75C2.5 14.4404 3.05964 15 3.75 15H12.25C12.9404 15 13.5 14.4404 13.5 13.75V8.5C13.5 7.11929 12.3807 6 11 6H9.75C9.05964 6 8.5 5.44036 8.5 4.75V3.5C8.5 2.11929 7.38071 1 6 1H3.75ZM5 10C5 9.72386 5.22386 9.5 5.5 9.5H10.5C10.7761 9.5 11 9.72386 11 10C11 10.2761 10.7761 10.5 10.5 10.5H5.5C5.22386 10.5 5 10.2761 5 10ZM5.5 11.5C5.22386 11.5 5 11.7239 5 12C5 12.2761 5.22386 12.5 5.5 12.5H8C8.27614 12.5 8.5 12.2761 8.5 12C8.5 11.7239 8.27614 11.5 8 11.5H5.5Z" fill="white"/>
    <path d="M8.64746 1.2106C9.17864 1.82432 9.5 2.62463 9.5 3.5V4.75C9.5 4.88807 9.61193 5 9.75 5H11C11.8754 5 12.6757 5.32136 13.2894 5.85254C12.6975 3.58658 10.9134 1.80252 8.64746 1.2106Z" fill="white"/>
    </svg>