<svg width="16" height="16" viewBox="0 0 16 16" fill="none" xmlns="http://www.w3.org/2000/svg">
<path d="M7.52729 3.80506C7.65232 3.93009 7.82189 4.00033 7.9987 4.00033C8.17551 4.00033 8.34508 3.93009 8.4701 3.80506C8.59513 3.68004 8.66536 3.51047 8.66536 3.33366C8.66536 3.15685 8.59513 2.98728 8.4701 2.86225C8.34508 2.73723 8.17551 2.66699 7.9987 2.66699C7.82189 2.66699 7.65232 2.73723 7.52729 2.86225C7.40227 2.98728 7.33203 3.15685 7.33203 3.33366C7.33203 3.51047 7.40227 3.68004 7.52729 3.80506Z" fill="white"/>
<path d="M7.52729 8.47173C7.65232 8.59675 7.82189 8.66699 7.9987 8.66699C8.17551 8.66699 8.34508 8.59675 8.4701 8.47173C8.59513 8.34671 8.66536 8.17714 8.66536 8.00033C8.66536 7.82351 8.59513 7.65394 8.4701 7.52892C8.34508 7.4039 8.17551 7.33366 7.9987 7.33366C7.82189 7.33366 7.65232 7.4039 7.52729 7.52892C7.40227 7.65394 7.33203 7.82351 7.33203 8.00033C7.33203 8.17714 7.40227 8.34671 7.52729 8.47173Z" fill="white"/>
<path d="M7.52729 13.1384C7.65232 13.2634 7.82189 13.3337 7.9987 13.3337C8.17551 13.3337 8.34508 13.2634 8.4701 13.1384C8.59513 13.0134 8.66536 12.8438 8.66536 12.667C8.66536 12.4902 8.59513 12.3206 8.4701 12.1956C8.34508 12.0706 8.17551 12.0003 7.9987 12.0003C7.82189 12.0003 7.65232 12.0706 7.52729 12.1956C7.40227 12.3206 7.33203 12.4902 7.33203 12.667C7.33203 12.8438 7.40227 13.0134 7.52729 13.1384Z" fill="white"/>
<path d="M7.9987 3.33366V3.34033M7.9987 8.00033V8.00699M7.9987 12.667V12.6737M7.9987 4.00033C7.82189 4.00033 7.65232 3.93009 7.52729 3.80506C7.40227 3.68004 7.33203 3.51047 7.33203 3.33366C7.33203 3.15685 7.40227 2.98728 7.52729 2.86225C7.65232 2.73723 7.82189 2.66699 7.9987 2.66699C8.17551 2.66699 8.34508 2.73723 8.4701 2.86225C8.59513 2.98728 8.66536 3.15685 8.66536 3.33366C8.66536 3.51047 8.59513 3.68004 8.4701 3.80506C8.34508 3.93009 8.17551 4.00033 7.9987 4.00033ZM7.9987 8.66699C7.82189 8.66699 7.65232 8.59675 7.52729 8.47173C7.40227 8.34671 7.33203 8.17714 7.33203 8.00033C7.33203 7.82351 7.40227 7.65395 7.52729 7.52892C7.65232 7.4039 7.82189 7.33366 7.9987 7.33366C8.17551 7.33366 8.34508 7.4039 8.4701 7.52892C8.59513 7.65395 8.66536 7.82351 8.66536 8.00033C8.66536 8.17714 8.59513 8.34671 8.4701 8.47173C8.34508 8.59675 8.17551 8.66699 7.9987 8.66699ZM7.9987 13.3337C7.82189 13.3337 7.65232 13.2634 7.52729 13.1384C7.40227 13.0134 7.33203 12.8438 7.33203 12.667C7.33203 12.4902 7.40227 12.3206 7.52729 12.1956C7.65232 12.0706 7.82189 12.0003 7.9987 12.0003C8.17551 12.0003 8.34508 12.0706 8.4701 12.1956C8.59513 12.3206 8.66536 12.4902 8.66536 12.667C8.66536 12.8438 8.59513 13.0134 8.4701 13.1384C8.34508 13.2634 8.17551 13.3337 7.9987 13.3337Z" stroke="#4B5563" stroke-width="2" stroke-linecap="round" stroke-linejoin="round"/>
</svg>
