<svg xmlns="http://www.w3.org/2000/svg" width="20" height="20" viewBox="0 0 20 20" fill="none">
    <path fill-rule="evenodd" clip-rule="evenodd" d="M10.293 15.7076C10.1055 15.52 10.0002 15.2657 10.0002 15.0006C10.0002 14.7354 10.1055 14.4811 10.293 14.2936L14.586 10.0006L10.293 5.70757C10.1975 5.61532 10.1213 5.50498 10.0689 5.38297C10.0165 5.26097 9.98889 5.12975 9.98774 4.99697C9.98659 4.86419 10.0119 4.73251 10.0622 4.60962C10.1124 4.48672 10.1867 4.37507 10.2806 4.28117C10.3745 4.18728 10.4861 4.11303 10.609 4.06275C10.7319 4.01247 10.8636 3.98717 10.9964 3.98832C11.1292 3.98947 11.2604 4.01706 11.3824 4.06947C11.5044 4.12188 11.6147 4.19806 11.707 4.29357L16.707 9.29357C16.8945 9.4811 16.9998 9.7354 16.9998 10.0006C16.9998 10.2657 16.8945 10.52 16.707 10.7076L11.707 15.7076C11.5195 15.895 11.2652 16.0004 11 16.0004C10.7348 16.0004 10.4805 15.895 10.293 15.7076Z" fill="#0D0D12"/>
    <path fill-rule="evenodd" clip-rule="evenodd" d="M4.293 15.7064C4.10553 15.5189 4.00021 15.2646 4.00021 14.9994C4.00021 14.7343 4.10553 14.48 4.293 14.2924L8.586 9.99943L4.293 5.70643C4.11084 5.51783 4.01005 5.26523 4.01233 5.00303C4.0146 4.74083 4.11977 4.49002 4.30518 4.30461C4.49059 4.1192 4.7414 4.01403 5.0036 4.01176C5.2658 4.00948 5.5184 4.11027 5.707 4.29243L10.707 9.29243C10.8945 9.47996 10.9998 9.73427 10.9998 9.99943C10.9998 10.2646 10.8945 10.5189 10.707 10.7064L5.707 15.7064C5.51947 15.8939 5.26516 15.9992 5 15.9992C4.73484 15.9992 4.48053 15.8939 4.293 15.7064Z" fill="#0D0D12"/>
    </svg>