<svg xmlns="http://www.w3.org/2000/svg" width="16" height="14" viewBox="0 0 16 14" fill="none">
    <path d="M12.4485 6.24813L7.15147 0.951084C6.92643 0.72604 6.62121 0.599611 6.30295 0.599609H1.2C0.53725 0.599609 0 1.13686 0 1.79961V6.90256C1.66419e-06 7.22082 0.126431 7.52604 0.351475 7.75108L5.64852 13.0481C6.11713 13.5168 6.87692 13.5168 7.34557 13.0481L12.4485 7.94518C12.9172 7.47656 12.9172 6.71676 12.4485 6.24813ZM2.8 4.59961C2.13725 4.59961 1.6 4.06236 1.6 3.39961C1.6 2.73686 2.13725 2.19961 2.8 2.19961C3.46275 2.19961 4 2.73686 4 3.39961C4 4.06236 3.46275 4.59961 2.8 4.59961ZM15.6485 7.94518L10.5456 13.0481C10.077 13.5168 9.31715 13.5168 8.84853 13.0481L8.83953 13.0391L13.191 8.68766C13.616 8.26268 13.85 7.69766 13.85 7.09666C13.85 6.49566 13.616 5.93063 13.191 5.50566L8.28493 0.599609H9.50295C9.82121 0.599611 10.1264 0.72604 10.3515 0.951084L15.6485 6.24813C16.1171 6.71676 16.1171 7.47656 15.6485 7.94518Z" fill="#4B5563"/>
    </svg>