<svg xmlns="http://www.w3.org/2000/svg" width="24" height="24" viewBox="0 0 24 24" fill="none">
    <path fill-rule="evenodd" clip-rule="evenodd" d="M12.3507 18.8484C12.1258 18.6234 11.9994 18.3182 11.9994 18C11.9994 17.6818 12.1258 17.3767 12.3507 17.1516L17.5023 12L12.3507 6.84842C12.2361 6.73773 12.1447 6.60531 12.0818 6.45891C12.0189 6.3125 11.9858 6.15504 11.9844 5.99571C11.983 5.83637 12.0134 5.67835 12.0737 5.53088C12.1341 5.3834 12.2232 5.24942 12.3358 5.13675C12.4485 5.02408 12.5825 4.93497 12.73 4.87464C12.8775 4.8143 13.0355 4.78394 13.1948 4.78532C13.3541 4.78671 13.5116 4.81981 13.658 4.8827C13.8044 4.94559 13.9368 5.03701 14.0475 5.15162L20.0475 11.1516C20.2725 11.3767 20.3989 11.6818 20.3989 12C20.3989 12.3182 20.2725 12.6234 20.0475 12.8484L14.0475 18.8484C13.8225 19.0734 13.5173 19.1998 13.1991 19.1998C12.8809 19.1998 12.5758 19.0734 12.3507 18.8484Z" fill="#0D0D12"/>
    <path fill-rule="evenodd" clip-rule="evenodd" d="M5.15213 18.8484C4.92716 18.6234 4.80078 18.3182 4.80078 18C4.80078 17.6818 4.92716 17.3766 5.15213 17.1516L10.3037 12L5.15213 6.84841C4.93354 6.62209 4.81258 6.31897 4.81532 6.00433C4.81805 5.6897 4.94425 5.38872 5.16674 5.16623C5.38923 4.94374 5.69021 4.81754 6.00484 4.8148C6.31948 4.81207 6.6226 4.93302 6.84892 5.15161L12.8489 11.1516C13.0739 11.3766 13.2003 11.6818 13.2003 12C13.2003 12.3182 13.0739 12.6234 12.8489 12.8484L6.84892 18.8484C6.62389 19.0734 6.31872 19.1998 6.00052 19.1998C5.68233 19.1998 5.37716 19.0734 5.15213 18.8484Z" fill="#0D0D12"/>
    </svg>