<svg xmlns="http://www.w3.org/2000/svg" width="12" height="13" viewBox="0 0 12 13" fill="none">
    <path fill-rule="evenodd" clip-rule="evenodd" d="M0.398438 2.80039C0.398438 2.16387 0.651294 1.55342 1.10138 1.10333C1.55147 0.653247 2.16192 0.400391 2.79844 0.400391H10.7984C10.947 0.400391 11.0926 0.441762 11.219 0.51987C11.3454 0.597978 11.4475 0.709735 11.514 0.84262C11.5804 0.975504 11.6085 1.12427 11.5952 1.27224C11.5819 1.4202 11.5276 1.56153 11.4384 1.68039L9.39844 4.40039L11.4384 7.12039C11.5276 7.23925 11.5819 7.38058 11.5952 7.52855C11.6085 7.67652 11.5804 7.82528 11.514 7.95816C11.4475 8.09105 11.3454 8.2028 11.219 8.28091C11.0926 8.35902 10.947 8.40039 10.7984 8.40039H2.79844C2.58626 8.40039 2.38278 8.48468 2.23275 8.63471C2.08272 8.78473 1.99844 8.98822 1.99844 9.20039V11.6004C1.99844 11.8126 1.91415 12.016 1.76412 12.1661C1.61409 12.3161 1.41061 12.4004 1.19844 12.4004C0.986264 12.4004 0.782781 12.3161 0.632752 12.1661C0.482723 12.016 0.398438 11.8126 0.398438 11.6004V2.80039Z" fill="white"/>
    </svg>