<svg xmlns="http://www.w3.org/2000/svg" width="14" height="15" viewBox="0 0 14 15" fill="none">
    <path fill-rule="evenodd" clip-rule="evenodd" d="M0 3C0 2.20435 0.316071 1.44129 0.87868 0.87868C1.44129 0.316071 2.20435 0 3 0H13C13.1857 0 13.3678 0.0517147 13.5257 0.149349C13.6837 0.246984 13.8114 0.386681 13.8944 0.552786C13.9775 0.718892 14.0126 0.904844 13.996 1.08981C13.9793 1.27477 13.9114 1.45143 13.8 1.6L11.25 5L13.8 8.4C13.9114 8.54857 13.9793 8.72523 13.996 8.91019C14.0126 9.09516 13.9775 9.28111 13.8944 9.44721C13.8114 9.61332 13.6837 9.75302 13.5257 9.85065C13.3678 9.94829 13.1857 10 13 10H3C2.73478 10 2.48043 10.1054 2.29289 10.2929C2.10536 10.4804 2 10.7348 2 11V14C2 14.2652 1.89464 14.5196 1.70711 14.7071C1.51957 14.8946 1.26522 15 1 15C0.734784 15 0.48043 14.8946 0.292893 14.7071C0.105357 14.5196 0 14.2652 0 14V3Z" fill="#7A499D"/>
    </svg>