<svg xmlns="http://www.w3.org/2000/svg" width="24" height="24" viewBox="0 0 24 24" fill="none">
    <path d="M5.70195 3.59961C4.54216 3.59961 3.60195 4.53981 3.60195 5.69961V9.00152C3.64327 9.00025 3.68478 8.99961 3.72649 8.99961H20.277C20.3188 8.99961 20.3605 9.00026 20.402 9.00154V8.09961C20.402 6.93981 19.4618 5.99961 18.302 5.99961H13.699C13.6194 5.99961 13.5431 5.968 13.4869 5.91174L11.7898 4.21469C11.396 3.82086 10.8619 3.59961 10.3049 3.59961H5.70195Z" fill="white"/>
    <path d="M3.72643 10.7996C2.31354 10.7996 1.30378 12.1668 1.71929 13.5172L3.38083 18.9172C3.65195 19.7983 4.46606 20.3996 5.38797 20.3996H18.6154C19.5373 20.3996 20.3514 19.7983 20.6225 18.9172L22.2841 13.5172C22.6996 12.1668 21.6898 10.7996 20.2769 10.7996H3.72643Z" fill="white"/>
    </svg>