<svg xmlns="http://www.w3.org/2000/svg" width="24" height="24" viewBox="0 0 24 24" fill="none">
<g clip-path="url(#clip0_2020_4992)">
<path d="M12.1132 0.259828C12.5415 0.572829 12.9116 0.983385 13.0149 1.517C13.0224 1.57066 13.03 1.62433 13.0377 1.67963C13.0455 1.73394 13.0532 1.78825 13.0613 1.84421C13.0668 1.88531 13.0724 1.92641 13.0782 1.96875C13.8152 2.12783 14.5523 2.28675 15.2894 2.44547C15.6317 2.51916 15.9739 2.59292 16.3161 2.6668C16.6144 2.73118 16.9126 2.79546 17.2109 2.85962C17.3689 2.8936 17.5268 2.92764 17.6848 2.96179C17.8609 2.99989 18.0372 3.03777 18.2134 3.07562C18.2659 3.08702 18.3185 3.09842 18.3726 3.11016C18.4205 3.12041 18.4684 3.13067 18.5178 3.14123C18.5595 3.15022 18.6012 3.15921 18.6441 3.16847C18.7552 3.19165 18.7552 3.19165 18.8907 3.1875C18.9066 3.15517 18.9226 3.12285 18.939 3.08954C19.2937 2.40175 19.8034 1.95639 20.5313 1.6875C21.2113 1.47724 21.9538 1.56416 22.5821 1.88379C23.22 2.25119 23.6319 2.76759 23.8594 3.46875C24.0465 4.24522 23.9507 4.98343 23.5313 5.67188C23.2167 6.1596 22.7602 6.49777 22.2188 6.70313C22.1724 6.70313 22.126 6.70313 22.0782 6.70313C22.085 6.75749 22.0918 6.81185 22.0988 6.86785C22.2539 8.10995 22.4013 9.35277 22.541 10.5967C22.5447 10.6295 22.5484 10.6623 22.5522 10.696C22.5975 11.0994 22.6426 11.5028 22.6875 11.9063C22.7315 11.9129 22.7755 11.9195 22.8208 11.9264C23.1755 11.9905 23.4756 12.23 23.6966 12.5074C23.9671 12.907 24.0029 13.3057 23.9532 13.7813C23.8539 14.2175 23.5878 14.5275 23.2295 14.7832C22.8641 15.0104 22.473 15.0543 22.0511 14.9782C21.6324 14.8697 21.2836 14.6135 21.0469 14.25C20.8173 13.8058 20.7804 13.3329 20.9297 12.8555C21.0993 12.4449 21.3731 12.2107 21.75 12C21.69 11.3465 21.6222 10.6944 21.5462 10.0426C21.536 9.95397 21.5257 9.86533 21.5154 9.77669C21.4942 9.59337 21.4729 9.41006 21.4515 9.22675C21.4241 8.99177 21.397 8.75677 21.3699 8.52175C21.3489 8.33982 21.3277 8.15791 21.3065 7.976C21.2965 7.88925 21.2864 7.80249 21.2764 7.71573C21.2626 7.59539 21.2485 7.47508 21.2344 7.35478C21.2303 7.31913 21.2263 7.28349 21.2221 7.24677C21.2053 7.10561 21.1858 6.97906 21.1407 6.84375C21.1066 6.8397 21.0725 6.83565 21.0374 6.83148C20.5357 6.76138 20.1215 6.58149 19.6875 6.32813C19.6668 6.34771 19.646 6.36729 19.6246 6.38746C19.5285 6.47811 19.4322 6.56864 19.336 6.65918C19.3033 6.68997 19.2707 6.72075 19.2371 6.75247C19.0449 6.93309 18.8498 7.10933 18.6507 7.28223C18.5193 7.39722 18.3915 7.51582 18.2637 7.63477C18.0451 7.83744 17.8249 8.03804 17.6029 8.237C17.4689 8.35772 17.336 8.47954 17.2032 8.60156C16.9945 8.7933 16.7844 8.98341 16.5735 9.17267C16.4379 9.29501 16.3034 9.41842 16.169 9.54199C15.9378 9.75449 15.7044 9.96426 15.4688 10.1719C15.4931 10.215 15.5175 10.2582 15.5426 10.3026C16.1016 11.3103 16.3875 12.4406 16.0928 13.5879C15.9215 14.1643 15.6458 14.7085 15.2813 15.1875C15.3213 15.2272 15.3213 15.2272 15.3621 15.2676C15.4847 15.3892 15.6071 15.511 15.7295 15.6328C15.7715 15.6744 15.8135 15.716 15.8567 15.7588C16.0681 15.9694 16.2719 16.1824 16.4661 16.4089C16.6178 16.58 16.7823 16.7383 16.9453 16.8984C17.1386 17.0883 17.3297 17.2774 17.5064 17.4829C17.6912 17.6977 17.8918 17.8952 18.0938 18.0938C18.3277 18.3237 18.5542 18.5554 18.768 18.8042C18.8805 18.9325 19.0004 19.0524 19.1221 19.1719C19.1568 19.2062 19.1568 19.2062 19.1921 19.2413C19.2478 19.2964 19.3036 19.3513 19.3594 19.4062C19.385 19.3972 19.4105 19.3881 19.4369 19.3788C20.096 19.1512 20.702 19.0693 21.3595 19.3696C21.8783 19.6592 22.2646 20.0895 22.4322 20.6676C22.5516 21.2267 22.4787 21.8227 22.1829 22.3076C21.8769 22.7575 21.4755 23.0753 20.9444 23.2148C20.3444 23.328 19.7623 23.2501 19.2481 22.9102C18.8209 22.5834 18.5914 22.2114 18.4219 21.7031C18.4201 21.5938 18.4198 21.4844 18.4219 21.375C18.361 21.3665 18.3 21.3581 18.2373 21.3493C17.9482 21.3092 17.6592 21.2689 17.3702 21.2285C17.2915 21.2175 17.2915 21.2175 17.2112 21.2063C16.3847 21.0909 15.5587 20.9722 14.7333 20.849C14.676 20.8405 14.676 20.8405 14.6175 20.8319C14.5468 20.8214 14.4761 20.8108 14.4054 20.8001C14.2738 20.7807 14.1489 20.7656 14.0157 20.7656C13.9495 20.8375 13.9495 20.8375 13.8897 20.9326C13.6635 21.2476 13.3816 21.5424 12.9844 21.6094C12.4264 21.6533 12.0122 21.6324 11.5664 21.2666C11.2072 20.9288 11.0215 20.5616 10.9981 20.0596C11.0434 19.5832 11.2148 19.1885 11.5606 18.8555C11.9096 18.5704 12.2956 18.4808 12.7407 18.4982C13.2185 18.5537 13.5611 18.7626 13.875 19.125C14.0304 19.3608 14.115 19.545 14.1094 19.8281C14.1703 19.8366 14.2313 19.8451 14.2941 19.8538C14.5831 19.894 14.8721 19.9343 15.1612 19.9746C15.2398 19.9856 15.2398 19.9856 15.3201 19.9968C16.1466 20.1122 16.9726 20.2309 17.7981 20.3541C17.8553 20.3626 17.8553 20.3626 17.9138 20.3713C17.9845 20.3818 18.0552 20.3923 18.1259 20.403C18.2575 20.4225 18.3824 20.4375 18.5157 20.4375C18.5969 20.3102 18.5969 20.3102 18.6563 20.1562C18.6032 19.9431 18.4726 19.8141 18.3188 19.6661C18.2948 19.6423 18.2707 19.6186 18.2459 19.5941C18.1692 19.5185 18.092 19.4433 18.0147 19.3682C17.9137 19.2694 17.813 19.1704 17.7124 19.0714C17.688 19.0473 17.6636 19.0233 17.6384 18.9986C17.4805 18.8423 17.3325 18.6808 17.1885 18.5117C17.0306 18.3325 16.8578 18.1674 16.6875 18C16.456 17.7724 16.2323 17.543 16.0207 17.2967C15.8681 17.1249 15.7029 16.9656 15.5391 16.8047C15.3412 16.6103 15.1468 16.4164 14.9663 16.2056C14.8478 16.0673 14.7262 15.9514 14.5782 15.8438C14.5407 15.8681 14.5032 15.8925 14.4646 15.9175C13.4489 16.5625 12.3895 16.7783 11.2032 16.5469C10.5776 16.3988 10.0417 16.1101 9.51566 15.75C9.47644 15.7895 9.43723 15.8289 9.39682 15.8696C9.24983 16.0174 9.10267 16.1651 8.95547 16.3128C8.89206 16.3764 8.82869 16.4401 8.76536 16.5038C8.67378 16.596 8.58204 16.688 8.49027 16.78C8.46247 16.808 8.43467 16.8361 8.40603 16.8649C8.26525 17.0057 8.12194 17.1409 7.97116 17.271C7.7747 17.4409 7.59169 17.6219 7.40921 17.8066C7.37526 17.8408 7.3413 17.8749 7.30632 17.9101C7.1989 18.0181 7.09164 18.1262 6.98441 18.2344C6.84295 18.3771 6.70132 18.5196 6.5596 18.6621C6.52786 18.6942 6.49611 18.7264 6.46339 18.7595C6.28384 18.94 6.09891 19.1101 5.9062 19.2764C5.7433 19.4207 5.59082 19.5753 5.43753 19.7298C5.40373 19.7637 5.36993 19.7975 5.3351 19.8324C5.22851 19.9393 5.12208 20.0463 5.01566 20.1533C4.94286 20.2264 4.87004 20.2994 4.79721 20.3724C4.6199 20.5502 4.44273 20.7282 4.26566 20.9062C4.27865 20.9413 4.29164 20.9763 4.30503 21.0125C4.32201 21.0586 4.33899 21.1048 4.35648 21.1523C4.37334 21.198 4.3902 21.2437 4.40757 21.2908C4.57316 21.7669 4.55936 22.3205 4.37754 22.79C4.10105 23.3508 3.6831 23.7435 3.09378 23.9531C2.64136 24.0816 2.03899 24.0637 1.61026 23.8746C1.03433 23.5503 0.658513 23.0819 0.468784 22.4531C0.368388 21.8855 0.435073 21.3124 0.760288 20.827C1.05742 20.4419 1.37372 20.1964 1.82816 20.0156C1.8591 20.0156 1.89003 20.0156 1.92191 20.0156C1.91087 19.9646 1.91087 19.9646 1.89961 19.9126C1.87701 19.7918 1.86446 19.6766 1.8568 19.5541C1.85399 19.5102 1.85118 19.4664 1.84828 19.4213C1.84545 19.3744 1.84262 19.3276 1.8397 19.2794C1.83664 19.2306 1.83359 19.1819 1.83044 19.1317C1.82402 19.0288 1.81768 18.9258 1.81142 18.8229C1.80186 18.6661 1.792 18.5093 1.78211 18.3526C1.7759 18.2523 1.7697 18.1521 1.76352 18.0518C1.76059 18.0053 1.75767 17.9587 1.75465 17.9108C1.73947 17.6587 1.73144 17.4088 1.73441 17.1562C1.69187 17.1543 1.64933 17.1524 1.6055 17.1504C1.20854 17.0931 0.779285 16.8487 0.515659 16.5469C0.117813 16.0136 -0.0680446 15.4579 0.0264016 14.7891C0.144907 14.2416 0.446645 13.772 0.896519 13.4414C1.40179 13.1296 1.90976 13.0984 2.48441 13.125C2.49968 13.0909 2.51495 13.0569 2.53068 13.0218C2.57719 12.918 2.62371 12.8143 2.67023 12.7105C2.72452 12.5894 2.77877 12.4683 2.83299 12.3471C2.96349 12.0555 3.09425 11.7641 3.22644 11.4733C3.28303 11.3488 3.33943 11.2242 3.39581 11.0996C3.42293 11.0398 3.45014 10.9801 3.47745 10.9204C3.51563 10.8369 3.55346 10.7532 3.59128 10.6696C3.62376 10.5982 3.62376 10.5982 3.65689 10.5254C3.71164 10.4057 3.71164 10.4057 3.70316 10.2656C3.6313 10.1907 3.6313 10.1907 3.53617 10.1191C2.97161 9.64336 2.67501 9.01525 2.61167 8.28296C2.59211 7.572 2.83203 6.89558 3.29593 6.35449C3.7932 5.84297 4.41679 5.53411 5.13451 5.51754C5.95153 5.5109 6.56095 5.75027 7.16001 6.31183C7.67159 6.8447 7.90411 7.54117 7.8895 8.27069C7.82683 8.99337 7.5587 9.60617 7.02506 10.1098C6.45028 10.5757 5.86166 10.7608 5.12406 10.7432C5.07273 10.7425 5.0214 10.7419 4.96851 10.7412C4.84358 10.7396 4.71869 10.7373 4.59378 10.7344C4.16454 11.653 3.74368 12.5751 3.32816 13.5C3.36501 13.5365 3.40187 13.5729 3.43984 13.6105C3.88322 14.0582 4.09423 14.5383 4.1016 15.1641C4.09584 15.6964 3.96343 16.0971 3.60941 16.5C3.5859 16.5284 3.5624 16.5568 3.53818 16.5861C3.31134 16.8388 3.03014 16.9804 2.71878 17.1094C2.68785 17.1094 2.65691 17.1094 2.62503 17.1094C2.62738 17.1363 2.62973 17.1632 2.63215 17.1909C2.71052 18.1003 2.76339 19.0105 2.81253 19.9219C2.91014 19.9601 3.00781 19.9982 3.1055 20.0361C3.18708 20.0679 3.18708 20.0679 3.2703 20.1004C3.32033 20.1188 3.37036 20.1373 3.42191 20.1562C3.45234 20.168 3.48278 20.1797 3.51414 20.1918C3.61283 20.2136 3.61283 20.2136 3.69667 20.1489C3.72594 20.1212 3.75521 20.0936 3.78537 20.0651C3.83442 20.0193 3.83442 20.0193 3.88446 19.9725C3.91744 19.9404 3.95043 19.9082 3.98441 19.875C4.0148 19.8456 4.04518 19.8162 4.07649 19.7859C4.17068 19.6934 4.26369 19.5998 4.35648 19.5059C4.40741 19.4547 4.40741 19.4547 4.45937 19.4024C4.56679 19.2944 4.67406 19.1863 4.78128 19.0781C4.92275 18.9354 5.06437 18.7929 5.20609 18.6504C5.23784 18.6183 5.26959 18.5861 5.3023 18.553C5.48191 18.3725 5.66693 18.2024 5.8597 18.036C6.02174 17.8923 6.17304 17.738 6.32523 17.584C6.35918 17.5499 6.39314 17.5157 6.42812 17.4806C6.53554 17.3726 6.64281 17.2644 6.75003 17.1562C6.8915 17.0135 7.03312 16.871 7.17484 16.7285C7.20659 16.6964 7.23834 16.6642 7.27105 16.6311C7.45325 16.448 7.64084 16.2748 7.83642 16.1061C7.95013 16.0065 8.05712 15.9013 8.16361 15.7941C8.2047 15.7529 8.24579 15.7116 8.28812 15.6692C8.35048 15.6062 8.35048 15.6062 8.4141 15.542C8.45712 15.4988 8.50014 15.4555 8.54447 15.411C8.64956 15.3053 8.75453 15.1996 8.85941 15.0938C8.84443 15.0669 8.82945 15.0401 8.81401 15.0125C8.17765 13.8707 7.84804 12.7462 8.19126 11.4461C8.48799 10.4197 9.16767 9.52694 10.1012 8.9978C11.1462 8.45321 12.2876 8.3356 13.4132 8.68213C13.8931 8.84307 14.4206 9.08737 14.7657 9.46875C14.908 9.40471 15.0098 9.33137 15.1223 9.22357C15.1539 9.19363 15.1854 9.16369 15.2179 9.13284C15.2504 9.10157 15.2829 9.0703 15.3164 9.03809C15.5369 8.82747 15.7592 8.62084 15.9896 8.4211C16.1212 8.30614 16.2491 8.18741 16.377 8.06836C16.5956 7.86569 16.8158 7.66509 17.0378 7.46613C17.1718 7.3454 17.3047 7.22359 17.4375 7.10156C17.646 6.91 17.8559 6.72004 18.0667 6.53101C18.1555 6.45084 18.2438 6.37033 18.3318 6.28931C18.3565 6.26656 18.3812 6.24381 18.4067 6.22037C18.4765 6.15601 18.5463 6.09156 18.616 6.0271C18.7517 5.90477 18.8902 5.7879 19.0313 5.67188C19.0115 5.51841 18.9672 5.40272 18.8965 5.26758C18.7969 5.01563 18.7969 5.01563 18.6563 4.125C16.7691 3.72281 14.8819 3.32063 12.9375 2.90625C12.8757 2.9836 12.8138 3.06094 12.75 3.14063C12.326 3.65361 11.912 3.98953 11.2237 4.0752C10.6144 4.10345 10.085 3.91602 9.61527 3.52735C9.21254 3.14358 9.00242 2.66736 8.98355 2.11418C8.97697 1.52307 9.12308 1.03237 9.52628 0.588136C10.2029 -0.0605166 11.2977 -0.261413 12.1132 0.259828Z" fill="#EF518C"/>
</g>
<defs>
<clipPath id="clip0_2020_4992">
<rect width="24" height="24" fill="white"/>
</clipPath>
</defs>
</svg>