<svg
                width="12"
                height="18"
                viewBox="0 0 12 18"
                fill="none"
                xmlns="http://www.w3.org/2000/svg"
              >
                <path
                  d="M6.35714 16.1329L6 16.8626L5.64286 16.1329V13.1351V12.6351H5.14286H0.857143C0.765916 12.6351 0.676207 12.5982 0.608365 12.5289C0.540169 12.4592 0.5 12.3625 0.5 12.2595V10.8712C0.500879 10.5358 0.63139 10.2164 0.85992 9.98186C0.860036 9.98174 0.860151 9.98162 0.860267 9.9815L2.0716 8.74398L2.21429 8.59821V8.39423V5.25405V4.75405H1.71429C1.62306 4.75405 1.53335 4.71713 1.46551 4.64782C1.39731 4.57815 1.35714 4.48142 1.35714 4.37838V1.75135C1.35714 1.05149 1.91217 0.5 2.57143 0.5H9.42857C10.0878 0.5 10.6429 1.05149 10.6429 1.75135V4.37838C10.6429 4.48142 10.6027 4.57815 10.5345 4.64782C10.4667 4.71713 10.3769 4.75405 10.2857 4.75405H9.78571V5.25405V8.39423V8.59821L9.9284 8.74398L11.1404 9.98218C11.3668 10.2135 11.5 10.5394 11.5 10.8706V12.2595C11.5 12.3625 11.4598 12.4592 11.3916 12.5289C11.3238 12.5982 11.2341 12.6351 11.1429 12.6351H6.85714H6.35714V13.1351V16.1329ZM2.57143 1.25135H2.07143V1.75135V3.5027V4.0027H2.57143H9.42857H9.92857V3.5027V1.75135V1.25135H9.42857H2.57143ZM1.35697 10.5209L1.21429 10.6667V10.8706V11.3838V11.8838H1.71429H10.2857H10.7857V11.3838V10.8706V10.6667L10.643 10.5209L9.17989 9.0261L9.17895 9.02515C9.11163 8.95674 9.07143 8.86103 9.07143 8.75676V5.25405V4.75405H8.57143H3.42857H2.92857V5.25405L2.92857 8.75676L2.92857 8.75747C2.92864 8.80802 2.91891 8.85784 2.9002 8.90398C2.88149 8.9501 2.85431 8.99129 2.82075 9.02546L2.82011 9.02611L1.35697 10.5209Z"
                  stroke="#9CA3AF"
                />
                </svg>