<svg xmlns="http://www.w3.org/2000/svg" width="22" height="22" viewBox="0 0 22 22" fill="none">
    <path fill-rule="evenodd" clip-rule="evenodd" d="M3.30078 6.59999C3.30078 5.72477 3.64846 4.88541 4.26733 4.26654C4.8862 3.64767 5.72557 3.29999 6.60078 3.29999H17.6008C17.8051 3.29999 18.0053 3.35687 18.1791 3.46427C18.3529 3.57167 18.4933 3.72534 18.5847 3.90805C18.676 4.09077 18.7147 4.29532 18.6963 4.49877C18.678 4.70223 18.6034 4.89656 18.4808 5.05999L15.6758 8.79999L18.4808 12.54C18.6034 12.7034 18.678 12.8977 18.6963 13.1012C18.7147 13.3047 18.676 13.5092 18.5847 13.6919C18.4933 13.8746 18.3529 14.0283 18.1791 14.1357C18.0053 14.2431 17.8051 14.3 17.6008 14.3H6.60078C6.30904 14.3 6.02925 14.4159 5.82296 14.6222C5.61667 14.8285 5.50078 15.1082 5.50078 15.4V18.7C5.50078 18.9917 5.38489 19.2715 5.1786 19.4778C4.97231 19.6841 4.69252 19.8 4.40078 19.8C4.10904 19.8 3.82925 19.6841 3.62296 19.4778C3.41667 19.2715 3.30078 18.9917 3.30078 18.7V6.59999Z" fill="#FACA15"/>
    </svg>