<svg xmlns="http://www.w3.org/2000/svg" width="16" height="17" viewBox="0 0 16 17" fill="none">
    <path fill-rule="evenodd" clip-rule="evenodd" d="M10.0687 4.16913C10.2163 4.01631 10.3928 3.89442 10.588 3.81056C10.7832 3.72671 10.9932 3.68257 11.2056 3.68073C11.4181 3.67888 11.6288 3.71936 11.8254 3.79981C12.022 3.88026 12.2007 3.99907 12.3509 4.14929C12.5011 4.29952 12.6199 4.47817 12.7004 4.6748C12.7808 4.87143 12.8213 5.08212 12.8195 5.29457C12.8176 5.50702 12.7735 5.71697 12.6896 5.91217C12.6058 6.10738 12.4839 6.28393 12.3311 6.43153L9.93107 8.83153C9.63102 9.13148 9.22413 9.29998 8.79987 9.29998C8.37561 9.29998 7.96871 9.13148 7.66867 8.83153C7.51779 8.6858 7.31571 8.60516 7.10595 8.60699C6.89619 8.60881 6.69554 8.69295 6.54721 8.84127C6.39889 8.9896 6.31475 9.19025 6.31293 9.40001C6.31111 9.60976 6.39174 9.81184 6.53747 9.96273C7.13756 10.5626 7.95134 10.8996 8.79987 10.8996C9.64839 10.8996 10.4622 10.5626 11.0623 9.96273L13.4623 7.56273C14.0452 6.9592 14.3677 6.15087 14.3604 5.31184C14.3531 4.47281 14.0166 3.67021 13.4233 3.07691C12.83 2.4836 12.0274 2.14706 11.1884 2.13977C10.3493 2.13248 9.541 2.45502 8.93747 3.03793L7.73747 4.23793C7.66106 4.31172 7.60012 4.4 7.55819 4.4976C7.51626 4.59521 7.49419 4.70018 7.49327 4.80641C7.49235 4.91263 7.51259 5.01797 7.55281 5.11629C7.59304 5.21461 7.65244 5.30393 7.72755 5.37904C7.80267 5.45416 7.89199 5.51356 7.99031 5.55378C8.08862 5.59401 8.19397 5.61425 8.30019 5.61333C8.40641 5.6124 8.51139 5.59033 8.60899 5.54841C8.7066 5.50648 8.79487 5.44553 8.86867 5.36913L10.0687 4.16913ZM6.06867 8.16913C6.36871 7.86917 6.77561 7.70067 7.19987 7.70067C7.62413 7.70067 8.03102 7.86917 8.33107 8.16913C8.40487 8.24554 8.49314 8.30648 8.59075 8.34841C8.68835 8.39034 8.79332 8.4124 8.89955 8.41333C9.00577 8.41425 9.11112 8.39401 9.20943 8.35378C9.30775 8.31356 9.39707 8.25416 9.47218 8.17904C9.5473 8.10393 9.6067 8.01461 9.64693 7.91629C9.68715 7.81797 9.70739 7.71263 9.70647 7.60641C9.70555 7.50018 9.68348 7.39521 9.64155 7.2976C9.59962 7.2 9.53868 7.11172 9.46227 7.03793C8.86218 6.43802 8.04839 6.10101 7.19987 6.10101C6.35134 6.10101 5.53756 6.43802 4.93747 7.03793L2.53747 9.43793C2.23184 9.73312 1.98805 10.0862 1.82034 10.4766C1.65264 10.867 1.56436 11.2869 1.56067 11.7118C1.55698 12.1367 1.63794 12.5581 1.79884 12.9514C1.95974 13.3446 2.19735 13.7019 2.49781 14.0024C2.79826 14.3028 3.15555 14.5405 3.54882 14.7014C3.94208 14.8623 4.36346 14.9432 4.78835 14.9395C5.21325 14.9358 5.63315 14.8476 6.02356 14.6799C6.41398 14.5121 6.76708 14.2684 7.06227 13.9627L8.26227 12.7627C8.33868 12.6889 8.39962 12.6007 8.44155 12.5031C8.48348 12.4054 8.50555 12.3005 8.50647 12.1942C8.50739 12.088 8.48715 11.9827 8.44693 11.8844C8.4067 11.786 8.3473 11.6967 8.27218 11.6216C8.19707 11.5465 8.10775 11.4871 8.00943 11.4469C7.91112 11.4066 7.80577 11.3864 7.69955 11.3873C7.59332 11.3882 7.48835 11.4103 7.39075 11.4522C7.29314 11.4942 7.20487 11.5551 7.13107 11.6315L5.93107 12.8315C5.78347 12.9843 5.60692 13.1062 5.41172 13.1901C5.21651 13.2739 5.00656 13.3181 4.79411 13.3199C4.58166 13.3218 4.37098 13.2813 4.17434 13.2008C3.97771 13.1204 3.79907 13.0016 3.64884 12.8514C3.49861 12.7011 3.3798 12.5225 3.29935 12.3259C3.21891 12.1292 3.17842 11.9185 3.18027 11.7061C3.18211 11.4936 3.22625 11.2837 3.31011 11.0885C3.39396 10.8933 3.51585 10.7167 3.66867 10.5691L6.06867 8.16913Z" fill="#4B5563"/>
    </svg>