 <svg
    id="settings"
    width="18"
    height="17"
    viewBox="0 0 18 17"
    fill="none"
    xmlns="http://www.w3.org/2000/svg"
  >
    <path
      d="M7.61944 1.78335C7.69478 1.33129 8.0859 0.999969 8.54418 0.999969H9.45582C9.91411 0.999969 10.3052 1.33129 10.3806 1.78335L10.5047 2.52819C10.5636 2.88175 10.8244 3.16529 11.1554 3.30273C11.4866 3.44024 11.8669 3.42187 12.1587 3.21345L12.7734 2.77442C13.1463 2.50804 13.6571 2.55032 13.9812 2.87438L14.6258 3.519C14.9499 3.84306 14.9921 4.3539 14.7258 4.72683L14.2866 5.34169C14.0782 5.6334 14.0598 6.01358 14.1973 6.34466C14.3347 6.67562 14.6182 6.93633 14.9716 6.99524L15.7166 7.11941C16.1687 7.19475 16.5 7.58586 16.5 8.04415V8.95579C16.5 9.41407 16.1687 9.80519 15.7166 9.88053L14.9718 10.0047C14.6182 10.0636 14.3347 10.3244 14.1972 10.6554C14.0597 10.9866 14.0781 11.3668 14.2865 11.6586L14.7255 12.2732C14.9919 12.6461 14.9496 13.1569 14.6255 13.481L13.9809 14.1256C13.6568 14.4497 13.146 14.492 12.7731 14.2256L12.1584 13.7865C11.8667 13.5781 11.4865 13.5598 11.1553 13.6972C10.8244 13.8347 10.5636 14.1182 10.5047 14.4716L10.3806 15.2166C10.3052 15.6686 9.91411 16 9.45582 16H8.54418C8.0859 16 7.69478 15.6686 7.61944 15.2166L7.4953 14.4717C7.43637 14.1182 7.1756 13.8347 6.84457 13.6972C6.5134 13.5597 6.13312 13.5781 5.84133 13.7865L5.22665 14.2256C4.85373 14.4919 4.34288 14.4497 4.01883 14.1256L3.3742 13.481C3.05014 13.1569 3.00787 12.6461 3.27424 12.2731L3.71343 11.6583C3.9218 11.3666 3.94017 10.9864 3.80271 10.6553C3.66531 10.3243 3.38183 10.0636 3.02835 10.0047L2.28338 9.88053C1.83132 9.80519 1.5 9.41407 1.5 8.95579V8.04415C1.5 7.58586 1.83132 7.19475 2.28338 7.11941L3.02821 6.99527C3.38178 6.93634 3.66532 6.67556 3.80277 6.34453C3.94027 6.01334 3.92191 5.63305 3.71348 5.34125L3.27457 4.72677C3.00819 4.35385 3.05047 3.84301 3.37453 3.51895L4.01915 2.87432C4.34321 2.55027 4.85405 2.50799 5.22698 2.77436L5.84164 3.21341C6.13337 3.42178 6.51357 3.44015 6.84467 3.30269C7.17564 3.16528 7.43636 2.88179 7.49528 2.5283L7.61944 1.78335Z"
      stroke="#FFFFFF"
      stroke-width="1.5"
      stroke-linecap="round"
      stroke-linejoin="round"
    />
    <path
      d="M11.5006 8.49999C11.5006 9.8807 10.3813 11 9.00058 11C7.61987 11 6.50058 9.8807 6.50058 8.49999C6.50058 7.11928 7.61987 5.99999 9.00058 5.99999C10.3813 5.99999 11.5006 7.11928 11.5006 8.49999Z"
      stroke="#FFFFFF"
      stroke-width="1.5"
      stroke-linecap="round"
      stroke-linejoin="round"
    />
  </svg>