  <svg
    id="teams"
    width="20"
    height="15"
    viewBox="0 0 20 15"
    fill="none"
    xmlns="http://www.w3.org/2000/svg"
  >
    <path
      d="M14.166 14.1667H18.3327V12.5C18.3326 11.9805 18.1707 11.4738 17.8695 11.0505C17.5682 10.6272 17.1425 10.3083 16.6516 10.1381C16.1608 9.96794 15.629 9.95491 15.1304 10.1009C14.6318 10.2468 14.191 10.5445 13.8693 10.9525M14.166 14.1667H5.83268M14.166 14.1667V12.5C14.166 11.9533 14.061 11.4308 13.8693 10.9525M13.8693 10.9525C13.5599 10.1791 13.0258 9.51623 12.336 9.04928C11.6462 8.58233 10.8323 8.33276 9.99935 8.33276C9.16636 8.33276 8.35248 8.58233 7.66269 9.04928C6.97289 9.51623 6.43881 10.1791 6.12935 10.9525M5.83268 14.1667H1.66602V12.5C1.66605 11.9805 1.82796 11.4738 2.12923 11.0505C2.43051 10.6272 2.85617 10.3083 3.34706 10.1381C3.83795 9.96794 4.36966 9.95491 4.8683 10.1009C5.36693 10.2468 5.80771 10.5445 6.12935 10.9525M5.83268 14.1667V12.5C5.83268 11.9533 5.93768 11.4308 6.12935 10.9525M12.4993 3.33334C12.4993 3.99638 12.236 4.63227 11.7671 5.10111C11.2983 5.56995 10.6624 5.83334 9.99935 5.83334C9.33631 5.83334 8.70042 5.56995 8.23158 5.10111C7.76274 4.63227 7.49935 3.99638 7.49935 3.33334C7.49935 2.6703 7.76274 2.03442 8.23158 1.56558C8.70042 1.09674 9.33631 0.833344 9.99935 0.833344C10.6624 0.833344 11.2983 1.09674 11.7671 1.56558C12.236 2.03442 12.4993 2.6703 12.4993 3.33334ZM17.4993 5.83334C17.4993 6.27537 17.3238 6.69929 17.0112 7.01185C16.6986 7.32441 16.2747 7.50001 15.8327 7.50001C15.3907 7.50001 14.9667 7.32441 14.6542 7.01185C14.3416 6.69929 14.166 6.27537 14.166 5.83334C14.166 5.39132 14.3416 4.96739 14.6542 4.65483C14.9667 4.34227 15.3907 4.16668 15.8327 4.16668C16.2747 4.16668 16.6986 4.34227 17.0112 4.65483C17.3238 4.96739 17.4993 5.39132 17.4993 5.83334ZM5.83268 5.83334C5.83268 6.27537 5.65709 6.69929 5.34453 7.01185C5.03197 7.32441 4.60804 7.50001 4.16602 7.50001C3.72399 7.50001 3.30006 7.32441 2.9875 7.01185C2.67494 6.69929 2.49935 6.27537 2.49935 5.83334C2.49935 5.39132 2.67494 4.96739 2.9875 4.65483C3.30006 4.34227 3.72399 4.16668 4.16602 4.16668C4.60804 4.16668 5.03197 4.34227 5.34453 4.65483C5.65709 4.96739 5.83268 5.39132 5.83268 5.83334Z"
      stroke="#FFFFFF"
      stroke-width="1.5"
      stroke-linecap="round"
      stroke-linejoin="round"
    />
  </svg>
