<svg
    width="18"
    height="17"
    viewBox="0 0 18 17"
    fill="none"
    xmlns="http://www.w3.org/2000/svg"
  >
    <path
      d="M7.0525 12.6667H10.9467M9 1V1.83333M14.3033 3.19667L13.7142 3.78583M16.5 8.5H15.6667M2.33333 8.5H1.5M4.28583 3.78583L3.69667 3.19667M6.05333 11.4467C5.47072 10.8639 5.074 10.1215 4.91331 9.31325C4.75263 8.50502 4.83521 7.6673 5.15061 6.90601C5.466 6.14471 6.00006 5.49403 6.68524 5.03624C7.37042 4.57845 8.17596 4.33411 9 4.33411C9.82404 4.33411 10.6296 4.57845 11.3148 5.03624C11.9999 5.49403 12.534 6.14471 12.8494 6.90601C13.1648 7.6673 13.2474 8.50502 13.0867 9.31325C12.926 10.1215 12.5293 10.8639 11.9467 11.4467L11.49 11.9025C11.2289 12.1636 11.0218 12.4736 10.8806 12.8148C10.7393 13.1559 10.6666 13.5216 10.6667 13.8908V14.3333C10.6667 14.7754 10.4911 15.1993 10.1785 15.5118C9.86595 15.8244 9.44203 16 9 16C8.55797 16 8.13405 15.8244 7.82149 15.5118C7.50893 15.1993 7.33333 14.7754 7.33333 14.3333V13.8908C7.33333 13.145 7.03667 12.4292 6.51 11.9025L6.05333 11.4467Z"
      stroke="#4B5563"
      stroke-width="1.5"
      stroke-linecap="round"
      stroke-linejoin="round"
    />
  </svg>