  <svg
    id="analyze"
    width="18"
    height="17"
    viewBox="0 0 18 17"
    fill="none"
    xmlns="http://www.w3.org/2000/svg"
  >
    <path
      d="M6.5 14.3333V9.33333C6.5 8.89131 6.3244 8.46738 6.01184 8.15482C5.69928 7.84226 5.27536 7.66667 4.83333 7.66667H3.16667C2.72464 7.66667 2.30072 7.84226 1.98816 8.15482C1.67559 8.46738 1.5 8.89131 1.5 9.33333V14.3333C1.5 14.7754 1.67559 15.1993 1.98816 15.5118C2.30072 15.8244 2.72464 16 3.16667 16H4.83333C5.27536 16 5.69928 15.8244 6.01184 15.5118C6.3244 15.1993 6.5 14.7754 6.5 14.3333ZM6.5 14.3333V6C6.5 5.55797 6.67559 5.13405 6.98816 4.82149C7.30072 4.50893 7.72464 4.33333 8.16667 4.33333H9.83333C10.2754 4.33333 10.6993 4.50893 11.0118 4.82149C11.3244 5.13405 11.5 5.55797 11.5 6V14.3333M6.5 14.3333C6.5 14.7754 6.67559 15.1993 6.98816 15.5118C7.30072 15.8244 7.72464 16 8.16667 16H9.83333C10.2754 16 10.6993 15.8244 11.0118 15.5118C11.3244 15.1993 11.5 14.7754 11.5 14.3333M11.5 14.3333V2.66667C11.5 2.22464 11.6756 1.80072 11.9882 1.48816C12.3007 1.17559 12.7246 1 13.1667 1H14.8333C15.2754 1 15.6993 1.17559 16.0118 1.48816C16.3244 1.80072 16.5 2.22464 16.5 2.66667V14.3333C16.5 14.7754 16.3244 15.1993 16.0118 15.5118C15.6993 15.8244 15.2754 16 14.8333 16H13.1667C12.7246 16 12.3007 15.8244 11.9882 15.5118C11.6756 15.1993 11.5 14.7754 11.5 14.3333Z"
      stroke="#4B5563"
      stroke-width="1.5"
      stroke-linecap="round"
      stroke-linejoin="round"
    />
  </svg>