<svg xmlns="http://www.w3.org/2000/svg" width="16" height="16" viewBox="0 0 16 16" fill="none">
    <path d="M7.20039 1.59961C6.98822 1.59961 6.78473 1.68389 6.63471 1.83392C6.48468 1.98395 6.40039 2.18744 6.40039 2.39961C6.40039 2.61178 6.48468 2.81527 6.63471 2.96529C6.78473 3.11532 6.98822 3.19961 7.20039 3.19961H8.80039C9.01256 3.19961 9.21605 3.11532 9.36608 2.96529C9.51611 2.81527 9.60039 2.61178 9.60039 2.39961C9.60039 2.18744 9.51611 1.98395 9.36608 1.83392C9.21605 1.68389 9.01256 1.59961 8.80039 1.59961H7.20039Z" fill="#4B5563"/>
    <path fill-rule="evenodd" clip-rule="evenodd" d="M3.19922 4.00039C3.19922 3.57604 3.36779 3.16908 3.66785 2.86902C3.96791 2.56896 4.37487 2.40039 4.79922 2.40039C4.79922 3.03691 5.05208 3.64736 5.50216 4.09745C5.95225 4.54753 6.5627 4.80039 7.19922 4.80039H8.79922C9.43574 4.80039 10.0462 4.54753 10.4963 4.09745C10.9464 3.64736 11.1992 3.03691 11.1992 2.40039C11.6236 2.40039 12.0305 2.56896 12.3306 2.86902C12.6306 3.16908 12.7992 3.57604 12.7992 4.00039V12.8004C12.7992 13.2247 12.6306 13.6317 12.3306 13.9318C12.0305 14.2318 11.6236 14.4004 11.1992 14.4004H4.79922C4.37487 14.4004 3.96791 14.2318 3.66785 13.9318C3.36779 13.6317 3.19922 13.2247 3.19922 12.8004V4.00039ZM5.59922 7.20039C5.38705 7.20039 5.18356 7.28468 5.03353 7.43471C4.8835 7.58473 4.79922 7.78822 4.79922 8.00039C4.79922 8.21256 4.8835 8.41605 5.03353 8.56608C5.18356 8.7161 5.38705 8.80039 5.59922 8.80039H5.60722C5.81939 8.80039 6.02288 8.7161 6.1729 8.56608C6.32293 8.41605 6.40722 8.21256 6.40722 8.00039C6.40722 7.78822 6.32293 7.58473 6.1729 7.43471C6.02288 7.28468 5.81939 7.20039 5.60722 7.20039H5.59922ZM7.99922 7.20039C7.78705 7.20039 7.58356 7.28468 7.43353 7.43471C7.2835 7.58473 7.19922 7.78822 7.19922 8.00039C7.19922 8.21256 7.2835 8.41605 7.43353 8.56608C7.58356 8.7161 7.78705 8.80039 7.99922 8.80039H10.3992C10.6114 8.80039 10.8149 8.7161 10.9649 8.56608C11.1149 8.41605 11.1992 8.21256 11.1992 8.00039C11.1992 7.78822 11.1149 7.58473 10.9649 7.43471C10.8149 7.28468 10.6114 7.20039 10.3992 7.20039H7.99922ZM5.59922 10.4004C5.38705 10.4004 5.18356 10.4847 5.03353 10.6347C4.8835 10.7847 4.79922 10.9882 4.79922 11.2004C4.79922 11.4126 4.8835 11.616 5.03353 11.7661C5.18356 11.9161 5.38705 12.0004 5.59922 12.0004H5.60722C5.81939 12.0004 6.02288 11.9161 6.1729 11.7661C6.32293 11.616 6.40722 11.4126 6.40722 11.2004C6.40722 10.9882 6.32293 10.7847 6.1729 10.6347C6.02288 10.4847 5.81939 10.4004 5.60722 10.4004H5.59922ZM7.99922 10.4004C7.78705 10.4004 7.58356 10.4847 7.43353 10.6347C7.2835 10.7847 7.19922 10.9882 7.19922 11.2004C7.19922 11.4126 7.2835 11.616 7.43353 11.7661C7.58356 11.9161 7.78705 12.0004 7.99922 12.0004H10.3992C10.6114 12.0004 10.8149 11.9161 10.9649 11.7661C11.1149 11.616 11.1992 11.4126 11.1992 11.2004C11.1992 10.9882 11.1149 10.7847 10.9649 10.6347C10.8149 10.4847 10.6114 10.4004 10.3992 10.4004H7.99922Z" fill="#4B5563"/>
    </svg>