<svg xmlns="http://www.w3.org/2000/svg" width="16" height="16" viewBox="0 0 16 16" fill="none">
    <path d="M14.5726 10.8492H13.6057V9.90531C13.6057 9.79448 13.5157 9.70453 13.4049 9.70453H11.845V9.13914H12.9081C12.9597 9.13914 13.0017 9.09711 13.0017 9.04544V7.5131C13.0017 7.46143 12.9597 7.4194 12.9081 7.4194H11.845V6.57934C11.845 6.46851 11.755 6.37856 11.6442 6.37856H8.21678V5.71947H9.65302C9.70469 5.71947 9.74672 5.67744 9.74672 5.62577V4.0937C9.74672 4.04203 9.70469 4 9.65302 4H6.37925C6.32759 4 6.28556 4.04203 6.28556 4.0937V5.62604C6.28556 5.67771 6.32759 5.71974 6.37925 5.71974H7.81549V6.37883H4.38806C4.27723 6.37883 4.18728 6.46878 4.18728 6.57961V7.41967H3.10549C3.05382 7.41967 3.01179 7.4617 3.01179 7.51337V9.04571C3.01179 9.09738 3.05382 9.13941 3.10549 9.13941H4.18728V9.7048H2.62763C2.5168 9.7048 2.42685 9.79475 2.42685 9.90558V10.8495H1.4267C1.37504 10.8495 1.33301 10.8915 1.33301 10.9432V12.4756C1.33301 12.5272 1.37504 12.5692 1.4267 12.5692H3.80607C3.85774 12.5692 3.89977 12.5272 3.89977 12.4756V10.9432C3.89977 10.8915 3.85774 10.8495 3.80607 10.8495H2.82814V10.1064H5.92255V10.8495H4.90848C4.85681 10.8495 4.81478 10.8915 4.81478 10.9432V12.4756C4.81478 12.5272 4.85681 12.5692 4.90848 12.5692H7.28785C7.33951 12.5692 7.38154 12.5272 7.38154 12.4756V10.9432C7.38154 10.8915 7.33951 10.8495 7.28785 10.8495H6.32411V9.90558C6.32411 9.79475 6.23416 9.7048 6.12333 9.7048H4.58884V9.13941H5.67064C5.72231 9.13941 5.76433 9.09738 5.76433 9.04571V7.51337C5.76433 7.4617 5.72231 7.41967 5.67064 7.41967H4.58884V6.78039H11.4437V7.41967H10.3429C10.2912 7.41967 10.2492 7.4617 10.2492 7.51337V9.04571C10.2492 9.09738 10.2912 9.13941 10.3429 9.13941H11.4437V9.7048H9.90922C9.79839 9.7048 9.70844 9.79475 9.70844 9.90558V10.8495H8.7115C8.65984 10.8495 8.61781 10.8915 8.61781 10.9432V12.4756C8.61781 12.5272 8.65984 12.5692 8.7115 12.5692H11.0909C11.1425 12.5692 11.1846 12.5272 11.1846 12.4756V10.9432C11.1846 10.8915 11.1425 10.8495 11.0909 10.8495H10.1097V10.1064H13.2041V10.8495H12.1933C12.1416 10.8495 12.0996 10.8915 12.0996 10.9432V12.4756C12.0996 12.5272 12.1416 12.5692 12.1933 12.5692H14.5726C14.6243 12.5692 14.6663 12.5272 14.6663 12.4756V10.9432C14.6663 10.8915 14.6243 10.8495 14.5726 10.8495V10.8492Z" fill="white"/>
    </svg>