<svg xmlns="http://www.w3.org/2000/svg" width="16" height="9" viewBox="0 0 16 9" fill="none">
    <path d="M0.534624 9V0.272727H3.80735C4.47781 0.272727 5.04031 0.397727 5.49485 0.647727C5.95224 0.897727 6.29741 1.24148 6.53036 1.67898C6.76616 2.11364 6.88406 2.60795 6.88406 3.16193C6.88406 3.72159 6.76616 4.21875 6.53036 4.65341C6.29457 5.08807 5.94656 5.4304 5.48633 5.6804C5.0261 5.92756 4.45934 6.05114 3.78604 6.05114H1.61701V4.75142H3.57298C3.96502 4.75142 4.28604 4.68324 4.53604 4.54688C4.78604 4.41051 4.9707 4.22301 5.09002 3.98438C5.21218 3.74574 5.27326 3.47159 5.27326 3.16193C5.27326 2.85227 5.21218 2.57955 5.09002 2.34375C4.9707 2.10795 4.78462 1.92472 4.53178 1.79403C4.28178 1.66051 3.95934 1.59375 3.56445 1.59375H2.11559V9H0.534624ZM8.25728 9V0.272727H9.83825V3.96733H13.8823V0.272727H15.4675V9H13.8823V5.29261H9.83825V9H8.25728Z" fill="white"/>
    </svg>