<svg xmlns="http://www.w3.org/2000/svg" width="18" height="18" viewBox="0 0 18 18" fill="none">
    <path fill-rule="evenodd" clip-rule="evenodd" d="M3.5998 2.70001C3.12242 2.70001 2.66458 2.88965 2.32701 3.22722C1.98945 3.56479 1.7998 4.02262 1.7998 4.50001V13.5C1.7998 13.9774 1.98945 14.4352 2.32701 14.7728C2.66458 15.1104 3.12242 15.3 3.5998 15.3H14.3998C14.8772 15.3 15.335 15.1104 15.6726 14.7728C16.0102 14.4352 16.1998 13.9774 16.1998 13.5V4.50001C16.1998 4.02262 16.0102 3.56479 15.6726 3.22722C15.335 2.88965 14.8772 2.70001 14.3998 2.70001H3.5998ZM14.3998 13.5H3.5998L7.1998 6.30001L9.89981 11.7L11.6998 8.10001L14.3998 13.5Z" fill="#6B7280"/>
    </svg>