<svg width="20" height="20" viewBox="0 0 20 20" fill="none" xmlns="http://www.w3.org/2000/svg">
<path d="M10 19L10.8571 17.2486V14.1351H15.1429C15.3702 14.1351 15.5882 14.0429 15.7489 13.8787C15.9097 13.7144 16 13.4917 16 13.2595V11.8706C16 11.41 15.8166 10.9582 15.4977 10.6324L14.2857 9.39423V6.25405C14.513 6.25405 14.7311 6.1618 14.8918 5.99757C15.0526 5.83335 15.1429 5.61062 15.1429 5.37838V2.75135C15.1429 1.78548 14.374 1 13.4286 1H6.57143C5.626 1 4.85714 1.78548 4.85714 2.75135V5.37838C4.85714 5.61062 4.94745 5.83335 5.10819 5.99757C5.26894 6.1618 5.48696 6.25405 5.71429 6.25405V9.39423L4.50229 10.6324C4.18157 10.9613 4.00103 11.4064 4 11.8706V13.2595C4 13.4917 4.09031 13.7144 4.25105 13.8787C4.4118 14.0429 4.62981 14.1351 4.85714 14.1351H9.14286V17.2486L10 19ZM6.57143 2.75135H13.4286V4.5027H6.57143V2.75135ZM5.71429 11.8706L7.17743 10.3759C7.25718 10.2947 7.32043 10.1982 7.36353 10.0919C7.40663 9.98568 7.42873 9.87177 7.42857 9.75676V6.25405H12.5714V9.75676C12.5714 9.98969 12.6614 10.2121 12.8226 10.3759L14.2857 11.8706V12.3838H5.71429V11.8706Z" fill="#9CA3AF"/>
</svg>
