<svg xmlns="http://www.w3.org/2000/svg" width="14" height="13" viewBox="0 0 14 13" fill="none">
    <path fill-rule="evenodd" clip-rule="evenodd" d="M13.3996 6.49961C13.3996 8.19699 12.7253 9.82486 11.5251 11.0251C10.3249 12.2253 8.69699 12.8996 6.99961 12.8996C5.30222 12.8996 3.67436 12.2253 2.47413 11.0251C1.27389 9.82486 0.599609 8.19699 0.599609 6.49961C0.599609 4.80222 1.27389 3.17436 2.47413 1.97413C3.67436 0.773893 5.30222 0.0996094 6.99961 0.0996094C8.69699 0.0996094 10.3249 0.773893 11.5251 1.97413C12.7253 3.17436 13.3996 4.80222 13.3996 6.49961ZM8.59961 4.09961C8.59961 4.52396 8.43104 4.93092 8.13098 5.23098C7.83092 5.53104 7.42396 5.69961 6.99961 5.69961C6.57526 5.69961 6.1683 5.53104 5.86824 5.23098C5.56818 4.93092 5.39961 4.52396 5.39961 4.09961C5.39961 3.67526 5.56818 3.2683 5.86824 2.96824C6.1683 2.66818 6.57526 2.49961 6.99961 2.49961C7.42396 2.49961 7.83092 2.66818 8.13098 2.96824C8.43104 3.2683 8.59961 3.67526 8.59961 4.09961ZM6.99961 7.29961C6.23369 7.29945 5.48383 7.5192 4.83914 7.93273C4.19445 8.34626 3.68204 8.93619 3.36281 9.63241C3.81295 10.1561 4.37103 10.5762 4.99876 10.864C5.6265 11.1518 6.30905 11.3004 6.99961 11.2996C7.69016 11.3004 8.37271 11.1518 9.00045 10.864C9.62819 10.5762 10.1863 10.1561 10.6364 9.63241C10.3172 8.93619 9.80476 8.34626 9.16008 7.93273C8.51539 7.5192 7.76553 7.29945 6.99961 7.29961Z" fill="#6B7280"/>
    </svg>