<svg xmlns="http://www.w3.org/2000/svg" width="14" height="13" viewBox="0 0 14 13" fill="none">
    <path d="M2.414 10.3693C3.81294 9.57861 5.39305 9.16423 7 9.16667C8.66667 9.16667 10.2313 9.60333 11.586 10.3693M9 5.16667C9 5.6971 8.78929 6.20581 8.41421 6.58088C8.03914 6.95595 7.53043 7.16667 7 7.16667C6.46957 7.16667 5.96086 6.95595 5.58579 6.58088C5.21071 6.20581 5 5.6971 5 5.16667C5 4.63623 5.21071 4.12753 5.58579 3.75245C5.96086 3.37738 6.46957 3.16667 7 3.16667C7.53043 3.16667 8.03914 3.37738 8.41421 3.75245C8.78929 4.12753 9 4.63623 9 5.16667ZM13 6.5C13 7.28793 12.8448 8.06815 12.5433 8.7961C12.2417 9.52405 11.7998 10.1855 11.2426 10.7426C10.6855 11.2998 10.0241 11.7417 9.2961 12.0433C8.56815 12.3448 7.78793 12.5 7 12.5C6.21207 12.5 5.43185 12.3448 4.7039 12.0433C3.97595 11.7417 3.31451 11.2998 2.75736 10.7426C2.20021 10.1855 1.75825 9.52405 1.45672 8.7961C1.15519 8.06815 1 7.28793 1 6.5C1 4.9087 1.63214 3.38258 2.75736 2.25736C3.88258 1.13214 5.4087 0.5 7 0.5C8.5913 0.5 10.1174 1.13214 11.2426 2.25736C12.3679 3.38258 13 4.9087 13 6.5Z" stroke="white" stroke-linecap="round" stroke-linejoin="round"/>
    </svg>