<svg xmlns="http://www.w3.org/2000/svg" width="18" height="18" viewBox="0 0 18 18" fill="none">
    <path d="M8.375 3.94745C8.375 3.65148 8.21996 3.38397 8.04066 3.1485C7.85659 2.90675 7.75 2.62 7.75 2.3125C7.75 1.44956 8.58947 0.75 9.625 0.75C10.6605 0.75 11.5 1.44956 11.5 2.3125C11.5 2.62 11.3934 2.90675 11.2093 3.1485C11.03 3.38397 10.875 3.65149 10.875 3.94745C10.875 4.22441 11.1064 4.4455 11.3829 4.429C12.9751 4.33399 14.5415 4.1444 16.0768 3.86582C16.2458 3.83516 16.4199 3.87537 16.5583 3.97701C16.6967 4.07864 16.7872 4.23275 16.8086 4.40314C16.9952 5.89437 17.1011 7.41052 17.1216 8.94704C17.1256 9.25235 16.8778 9.49991 16.5724 9.5C16.2765 9.5 16.009 9.34496 15.7735 9.16566C15.5317 8.98159 15.245 8.875 14.9375 8.875C14.0746 8.875 13.375 9.71447 13.375 10.75C13.375 11.7855 14.0746 12.625 14.9375 12.625C15.245 12.625 15.5317 12.5184 15.7735 12.3343C16.009 12.155 16.2765 12 16.5724 12C16.8311 12 17.0365 12.2181 17.0179 12.4761C16.919 13.8415 16.7526 15.1884 16.522 16.5134C16.4767 16.7733 16.2732 16.9768 16.0134 17.022C14.4974 17.2858 12.9528 17.4656 11.3846 17.5564C11.1071 17.5724 10.875 17.3504 10.875 17.0724C10.875 16.7765 11.03 16.509 11.2093 16.2735C11.3934 16.0318 11.5 15.745 11.5 15.4375C11.5 14.5746 10.6605 13.875 9.625 13.875C8.58947 13.875 7.75 14.5746 7.75 15.4375C7.75 15.745 7.85659 16.0318 8.04066 16.2735C8.21996 16.509 8.375 16.7765 8.375 17.0724C8.375 17.3738 8.1283 17.6171 7.8271 17.6086C6.50252 17.571 5.19365 17.47 3.90344 17.3085C3.73305 17.2871 3.57894 17.1966 3.47731 17.0582C3.37567 16.9198 3.33546 16.7457 3.36612 16.5767C3.61019 15.2317 3.78596 13.8628 3.88966 12.4736C3.90882 12.2171 3.70469 12 3.44745 12C3.15148 12 2.88397 12.155 2.6485 12.3343C2.40675 12.5184 2.12 12.625 1.8125 12.625C0.949555 12.625 0.25 11.7855 0.25 10.75C0.25 9.71447 0.949555 8.875 1.8125 8.875C2.12 8.875 2.40675 8.98159 2.6485 9.16566C2.88397 9.34496 3.15149 9.5 3.44745 9.5C3.75275 9.5 4.00065 9.25248 3.99645 8.94721C3.97778 7.59037 3.89052 6.25022 3.73799 4.93024C3.71609 4.74067 3.78198 4.55149 3.91692 4.41655C4.05185 4.28162 4.24104 4.21572 4.4306 4.23763C5.54918 4.36688 6.68217 4.44927 7.82755 4.48276C8.12846 4.49156 8.375 4.24848 8.375 3.94745Z" fill="white"/>
    </svg>