<svg xmlns="http://www.w3.org/2000/svg" width="16" height="17" viewBox="0 0 16 17" fill="none">
    <path fill-rule="evenodd" clip-rule="evenodd" d="M16 8.5C16 12.9183 12.4183 16.5 8 16.5C3.58172 16.5 0 12.9183 0 8.5C0 4.08172 3.58172 0.5 8 0.5C12.4183 0.5 16 4.08172 16 8.5ZM6.93934 5.43931C6.64645 5.73221 6.17157 5.73221 5.87868 5.43931C5.58579 5.14642 5.58579 4.67155 5.87868 4.37865C7.05025 3.20708 8.94975 3.20708 10.1213 4.37865C11.2929 5.55023 11.2929 7.44972 10.1213 8.62129C9.72884 9.01378 9.25285 9.27563 8.75 9.40508V9.74997C8.75 10.1642 8.41421 10.5 8 10.5C7.58579 10.5 7.25 10.1642 7.25 9.74997V9.24997C7.25 8.52968 7.81995 8.07826 8.33134 7.96322C8.59823 7.90318 8.8516 7.76969 9.06066 7.56063C9.64645 6.97485 9.64645 6.0251 9.06066 5.43931C8.47487 4.85353 7.52513 4.85353 6.93934 5.43931ZM8 13.5C8.55228 13.5 9 13.0523 9 12.5C9 11.9477 8.55228 11.5 8 11.5C7.44771 11.5 7 11.9477 7 12.5C7 13.0523 7.44771 13.5 8 13.5Z" fill="#FACA15"/>
    </svg>