<svg width="42" height="42" viewBox="0 0 42 42" fill="none" xmlns="http://www.w3.org/2000/svg">
<path d="M7 6.99939V15.7494H8.0185M8.0185 15.7494C9.18024 12.8761 11.2624 10.4695 13.9388 8.90664C16.6152 7.34381 19.7344 6.71311 22.8077 7.11338C25.881 7.51365 28.7346 8.92228 30.9214 11.1185C33.1082 13.3147 34.5045 16.1744 34.8915 19.2494M8.0185 15.7494H15.75M35 34.9994V26.2494H33.9833M33.9833 26.2494C32.8198 29.121 30.7371 31.5257 28.061 33.0871C25.3849 34.6486 22.2665 35.2785 19.1942 34.8784C16.1218 34.4783 13.2688 33.0707 11.0819 30.8759C8.89502 28.6811 7.49762 25.8232 7.1085 22.7494M33.9833 26.2494H26.25" stroke="#4B5563" stroke-width="2" stroke-linecap="round" stroke-linejoin="round"/>
</svg>
