<svg xmlns="http://www.w3.org/2000/svg" width="20" height="20" viewBox="0 0 20 20" fill="none">
    <path d="M17.2597 14.5455C16.0409 14.5455 14.9811 15.3602 14.6404 16.4994L12.6798 14.6813L12.3618 14.6963L11.9758 15.1113L11.9909 15.4281L13.3157 16.6503H11.0522C10.7646 15.4131 9.67449 14.5379 8.38759 14.5379C7.10068 14.5379 6.04845 15.3904 5.74565 16.5824L3.70931 14.6511H3.39137L2.99773 15.066V15.3829L4.33005 16.6352H4.16351C2.42998 16.6352 1.02952 15.232 1.02952 13.5119C1.02952 11.7918 2.43755 10.3885 4.16351 10.3885H4.39818C4.58743 11.7239 5.73808 12.7348 7.10825 12.7348C8.47843 12.7348 9.50795 11.822 9.78047 10.5922L11.8168 12.4783L12.1347 12.4632L12.5208 12.0483L12.5057 11.7314L11.1809 10.5092H15.246C17.5397 10.5092 19.402 8.65334 19.402 6.36741C19.402 4.08148 17.5397 2.22558 15.246 2.22558H14.3073C14.0651 0.94304 12.9447 0 11.62 0C10.2952 0 9.22029 0.912863 8.94777 2.14259L6.91143 0.264051L6.59349 0.27914L6.20742 0.694078L6.22256 1.01094L7.54731 2.23312H5.44285C5.20061 0.950585 4.08024 0.00754432 2.75549 0.00754432C1.23391 0.00754432 0 1.23727 0 2.74613C0 4.255 1.23391 5.48472 2.74792 5.48472C4.07267 5.48472 5.19304 4.54168 5.43528 3.25915H7.54731L6.22256 4.48133L6.20742 4.79819L6.59349 5.21313L6.91143 5.22822L8.94777 3.34214C9.22029 4.57186 10.3179 5.48472 11.62 5.48472C12.922 5.48472 14.0651 4.54168 14.3073 3.25915H15.246C16.9796 3.25915 18.38 4.66239 18.38 6.3825C18.38 8.1026 16.972 9.50585 15.246 9.50585H11.1809L12.5057 8.28367L12.5208 7.9668L12.1347 7.55187L11.8168 7.53678L9.78047 9.42286C9.50795 8.19313 8.4103 7.28027 7.10825 7.28027C5.80621 7.28027 4.73126 8.15541 4.4436 9.38514H4.16351C1.8698 9.38514 0.00757002 11.241 0.00757002 13.527C0.00757002 15.8129 1.8698 17.6688 4.16351 17.6688H4.28463L2.96745 18.8608L2.95231 19.1777L3.33838 19.5926L3.65632 19.6077L5.69266 17.7593C5.92733 19.0343 7.05526 20 8.38759 20C9.71991 20 10.9008 18.9891 11.0901 17.6537H13.3081L11.9833 18.8759L11.9682 19.1928L12.3543 19.6077L12.6722 19.6228L14.5799 17.8574C14.8524 19.0871 15.95 20 17.2521 20C18.7661 20 20 18.7703 20 17.2614C20 15.7525 18.7661 14.5228 17.2521 14.5228L17.2597 14.5455ZM2.74792 4.45869C1.7941 4.45869 1.02195 3.68917 1.02195 2.73859C1.02195 1.788 1.7941 1.02603 2.74792 1.02603C3.70174 1.02603 4.47388 1.79555 4.47388 2.74613C4.47388 3.69672 3.70174 4.46624 2.74792 4.46624V4.45869ZM11.6276 4.45869C10.6737 4.45869 9.90159 3.68917 9.90159 2.73859C9.90159 1.788 10.6737 1.01848 11.6276 1.01848C12.5814 1.01848 13.3535 1.788 13.3535 2.73859C13.3535 3.68917 12.5814 4.45869 11.6276 4.45869ZM7.10825 8.29121C8.06207 8.29121 8.83422 9.06073 8.83422 10.0113C8.83422 10.9619 8.06207 11.7314 7.10825 11.7314C6.15443 11.7314 5.38229 10.9619 5.38229 10.0113C5.38229 9.06073 6.15443 8.29121 7.10825 8.29121ZM8.38759 18.9966C7.43376 18.9966 6.66162 18.2271 6.66162 17.2765C6.66162 16.3259 7.43376 15.5564 8.38759 15.5564C9.34141 15.5564 10.1136 16.3259 10.1136 17.2765C10.1136 18.2271 9.34141 18.9966 8.38759 18.9966ZM17.2672 18.9966C16.321 18.9966 15.5413 18.2271 15.5413 17.2765C15.5413 16.3259 16.3134 15.5564 17.2672 15.5564C18.221 15.5564 18.9932 16.3259 18.9932 17.2765C18.9932 18.2271 18.221 18.9966 17.2672 18.9966Z" fill="#EF518C"/>
    <path d="M11.6276 4.45869C10.6737 4.45869 9.90159 3.68917 9.90159 2.73859C9.90159 1.788 10.6737 1.01848 11.6276 1.01848C12.5814 1.01848 13.3535 1.788 13.3535 2.73859C13.3535 3.68917 12.5814 4.45869 11.6276 4.45869Z" fill="#EF518C"/>
    <path d="M8.38759 18.9966C7.43376 18.9966 6.66162 18.2271 6.66162 17.2765C6.66162 16.3259 7.43376 15.5564 8.38759 15.5564C9.34141 15.5564 10.1136 16.3259 10.1136 17.2765C10.1136 18.2271 9.34141 18.9966 8.38759 18.9966Z" fill="#EF518C"/>
    <path d="M7.10825 8.29121C8.06207 8.29121 8.83422 9.06073 8.83422 10.0113C8.83422 10.9619 8.06207 11.7314 7.10825 11.7314C6.15443 11.7314 5.38229 10.9619 5.38229 10.0113C5.38229 9.06073 6.15443 8.29121 7.10825 8.29121Z" fill="#EF518C"/>
    <path d="M2.74792 4.45869C1.7941 4.45869 1.02195 3.68917 1.02195 2.73859C1.02195 1.788 1.7941 1.02603 2.74792 1.02603C3.70174 1.02603 4.47388 1.79555 4.47388 2.74613C4.47388 3.69672 3.70174 4.46624 2.74792 4.46624V4.45869Z" fill="#EF518C"/>
    <path d="M17.2672 18.9966C16.321 18.9966 15.5413 18.2271 15.5413 17.2765C15.5413 16.3259 16.3134 15.5564 17.2672 15.5564C18.221 15.5564 18.9932 16.3259 18.9932 17.2765C18.9932 18.2271 18.221 18.9966 17.2672 18.9966Z" fill="#EF518C"/>
    </svg>