<svg xmlns="http://www.w3.org/2000/svg" width="16" height="17" viewBox="0 0 16 17" fill="none">
    <path fill-rule="evenodd" clip-rule="evenodd" d="M6.16504 3.13462C6.31501 3.28464 6.39927 3.48809 6.39927 3.70022C6.39927 3.91235 6.31501 4.1158 6.16504 4.26582L4.33064 6.10022H8.79944C10.2846 6.10022 11.709 6.69022 12.7592 7.74042C13.8094 8.79063 14.3994 10.215 14.3994 11.7002V13.3002C14.3994 13.5124 14.3152 13.7159 14.1651 13.8659C14.0151 14.0159 13.8116 14.1002 13.5994 14.1002C13.3873 14.1002 13.1838 14.0159 13.0338 13.8659C12.8837 13.7159 12.7994 13.5124 12.7994 13.3002V11.7002C12.7994 10.6394 12.378 9.62194 11.6279 8.87179C10.8777 8.12165 9.8603 7.70022 8.79944 7.70022H4.33064L6.16504 9.53462C6.24145 9.60842 6.30239 9.69669 6.34432 9.7943C6.38625 9.8919 6.40832 9.99688 6.40924 10.1031C6.41016 10.2093 6.38992 10.3147 6.3497 10.413C6.30947 10.5113 6.25007 10.6006 6.17495 10.6757C6.09984 10.7508 6.01052 10.8103 5.9122 10.8505C5.81388 10.8907 5.70854 10.9109 5.60232 10.91C5.49609 10.9091 5.39112 10.887 5.29351 10.8451C5.19591 10.8032 5.10764 10.7422 5.03384 10.6658L1.83384 7.46582C1.68386 7.3158 1.59961 7.11235 1.59961 6.90022C1.59961 6.68809 1.68386 6.48464 1.83384 6.33462L5.03384 3.13462C5.18386 2.98464 5.38731 2.90039 5.59944 2.90039C5.81157 2.90039 6.01502 2.98464 6.16504 3.13462Z" fill="#4B5563"/>
    </svg>