<svg xmlns="http://www.w3.org/2000/svg" width="20" height="20" viewBox="0 0 20 20" fill="none">
    <mask id="path-1-inside-1_2959_71807" fill="white">
    <path fill-rule="evenodd" clip-rule="evenodd" d="M10.293 3.29279C10.4805 3.10532 10.7348 3 11 3C11.2652 3 11.5195 3.10532 11.707 3.29279L17.707 9.29279C17.8945 9.48031 17.9998 9.73462 17.9998 9.99979C17.9998 10.265 17.8945 10.5193 17.707 10.7068L11.707 16.7068C11.5184 16.8889 11.2658 16.9897 11.0036 16.9875C10.7414 16.9852 10.4906 16.88 10.3052 16.6946C10.1198 16.5092 10.0146 16.2584 10.0123 15.9962C10.01 15.734 10.1108 15.4814 10.293 15.2928L14.586 10.9998H3C2.73478 10.9998 2.48043 10.8944 2.29289 10.7069C2.10536 10.5194 2 10.265 2 9.99979C2 9.73457 2.10536 9.48022 2.29289 9.29268C2.48043 9.10514 2.73478 8.99979 3 8.99979H14.586L10.293 4.70679C10.1055 4.51926 10.0002 4.26495 10.0002 3.99979C10.0002 3.73462 10.1055 3.48031 10.293 3.29279Z"/>
    </mask>
    <path fill-rule="evenodd" clip-rule="evenodd" d="M10.293 3.29279C10.4805 3.10532 10.7348 3 11 3C11.2652 3 11.5195 3.10532 11.707 3.29279L17.707 9.29279C17.8945 9.48031 17.9998 9.73462 17.9998 9.99979C17.9998 10.265 17.8945 10.5193 17.707 10.7068L11.707 16.7068C11.5184 16.8889 11.2658 16.9897 11.0036 16.9875C10.7414 16.9852 10.4906 16.88 10.3052 16.6946C10.1198 16.5092 10.0146 16.2584 10.0123 15.9962C10.01 15.734 10.1108 15.4814 10.293 15.2928L14.586 10.9998H3C2.73478 10.9998 2.48043 10.8944 2.29289 10.7069C2.10536 10.5194 2 10.265 2 9.99979C2 9.73457 2.10536 9.48022 2.29289 9.29268C2.48043 9.10514 2.73478 8.99979 3 8.99979H14.586L10.293 4.70679C10.1055 4.51926 10.0002 4.26495 10.0002 3.99979C10.0002 3.73462 10.1055 3.48031 10.293 3.29279Z" fill="#4B5563"/>
    <path d="M11 3V1V3ZM11.707 3.29279L13.1212 1.87857L13.121 1.87836L11.707 3.29279ZM17.707 9.29279L19.1214 7.87879L19.1212 7.87857L17.707 9.29279ZM17.707 10.7068L19.1212 12.121L19.1214 12.1208L17.707 10.7068ZM11.707 16.7068L13.0964 18.1454L13.1089 18.1333L13.1212 18.121L11.707 16.7068ZM10.293 15.2928L8.87879 13.8786L8.8665 13.8909L8.85442 13.9034L10.293 15.2928ZM14.586 10.9998L16.0002 12.414L19.4144 8.99979H14.586V10.9998ZM2 9.99979H0H2ZM14.586 8.99979V10.9998H19.4144L16.0002 7.58557L14.586 8.99979ZM10.293 4.70679L8.87857 6.12079L8.87879 6.121L10.293 4.70679ZM10.293 3.29279L11.707 4.70721C11.5195 4.89468 11.2652 5 11 5V3V1C10.2045 1 9.44158 1.31595 8.879 1.87836L10.293 3.29279ZM11 3V5C10.7348 5 10.4805 4.89468 10.293 4.70721L11.707 3.29279L13.121 1.87836C12.5584 1.31595 11.7955 1 11 1V3ZM11.707 3.29279L10.2928 4.707L16.2928 10.707L17.707 9.29279L19.1212 7.87857L13.1212 1.87857L11.707 3.29279ZM17.707 9.29279L16.2926 10.7068C16.1051 10.5193 15.9998 10.2649 15.9998 9.99979H17.9998H19.9998C19.9998 9.2043 19.6838 8.44137 19.1214 7.87879L17.707 9.29279ZM17.9998 9.99979H15.9998C15.9998 9.73463 16.1051 9.48032 16.2926 9.29279L17.707 10.7068L19.1214 12.1208C19.6838 11.5582 19.9998 10.7953 19.9998 9.99979H17.9998ZM17.707 10.7068L16.2928 9.29257L10.2928 15.2926L11.707 16.7068L13.1212 18.121L19.1212 12.121L17.707 10.7068ZM11.707 16.7068L10.3176 15.2682C10.5062 15.0861 10.7588 14.9853 11.021 14.9875L11.0036 16.9875L10.9862 18.9874C11.7728 18.9942 12.5306 18.6918 13.0964 18.1454L11.707 16.7068ZM11.0036 16.9875L11.021 14.9875C11.2832 14.9898 11.534 15.095 11.7194 15.2804L10.3052 16.6946L8.89097 18.1088C9.44719 18.665 10.1996 18.9806 10.9862 18.9874L11.0036 16.9875ZM10.3052 16.6946L11.7194 15.2804C11.9048 15.4658 12.01 15.7166 12.0123 15.9788L10.0123 15.9962L8.0124 16.0136C8.01924 16.8002 8.33474 17.5526 8.89097 18.1088L10.3052 16.6946ZM10.0123 15.9962L12.0123 15.9788C12.0145 16.241 11.9137 16.4936 11.7316 16.6822L10.293 15.2928L8.85442 13.9034C8.30795 14.4692 8.00557 15.227 8.0124 16.0136L10.0123 15.9962ZM10.293 15.2928L11.7072 16.707L16.0002 12.414L14.586 10.9998L13.1718 9.58557L8.87879 13.8786L10.293 15.2928ZM14.586 10.9998V8.99979H3V10.9998V12.9998H14.586V10.9998ZM3 10.9998V8.99979C3.26522 8.99979 3.51957 9.10514 3.70711 9.29268L2.29289 10.7069L0.87868 12.1211C1.44129 12.6837 2.20435 12.9998 3 12.9998V10.9998ZM2.29289 10.7069L3.70711 9.29268C3.89464 9.48022 4 9.73457 4 9.99979H2H0C0 10.7954 0.316071 11.5585 0.87868 12.1211L2.29289 10.7069ZM2 9.99979H4C4 10.265 3.89464 10.5194 3.70711 10.7069L2.29289 9.29268L0.87868 7.87847C0.316071 8.44108 0 9.20414 0 9.99979H2ZM2.29289 9.29268L3.70711 10.7069C3.51957 10.8944 3.26522 10.9998 3 10.9998V8.99979V6.99979C2.20435 6.99979 1.44129 7.31586 0.87868 7.87847L2.29289 9.29268ZM3 8.99979V10.9998H14.586V8.99979V6.99979H3V8.99979ZM14.586 8.99979L16.0002 7.58557L11.7072 3.29257L10.293 4.70679L8.87879 6.121L13.1718 10.414L14.586 8.99979ZM10.293 4.70679L11.7074 3.29279C11.8949 3.48031 12.0002 3.73462 12.0002 3.99979H10.0002H8.00021C8.00021 4.79528 8.31616 5.5582 8.87857 6.12079L10.293 4.70679ZM10.0002 3.99979H12.0002C12.0002 4.26495 11.8949 4.51926 11.7074 4.70679L10.293 3.29279L8.87857 1.87879C8.31616 2.44137 8.00021 3.20429 8.00021 3.99979H10.0002Z" fill="#9CA3AF" mask="url(#path-1-inside-1_2959_71807)"/>
    </svg>