<svg width="42" height="42" viewBox="0 0 42 42" fill="none" xmlns="http://www.w3.org/2000/svg">
<path d="M27.2833 25.1468C27.4659 25.9224 27.5625 26.7312 27.5625 27.5625C27.5625 33.3615 22.8615 38.0625 17.0625 38.0625V29.6631M27.2833 25.1468C33.8177 20.3719 38.0625 12.6503 38.0625 3.9375C29.3501 3.93787 21.6291 8.18275 16.8546 14.7171M27.2833 25.1468C24.2933 27.3317 20.8239 28.8995 17.0625 29.6631M16.8546 14.7171C16.0786 14.5342 15.2693 14.4375 14.4375 14.4375C8.63851 14.4375 3.9375 19.1385 3.9375 24.9375H12.3388M16.8546 14.7171C14.67 17.707 13.1023 21.1762 12.3388 24.9375M17.0625 29.6631C16.8815 29.6998 16.6999 29.7347 16.5176 29.7677C14.9305 28.5092 13.4923 27.0711 12.2339 25.484C12.267 25.3011 12.3019 25.119 12.3388 24.9375M8.42084 29.1213C6.49624 30.557 5.25 32.8517 5.25 35.4375C5.25 35.852 5.28203 36.259 5.34374 36.6563C5.74095 36.718 6.14799 36.75 6.5625 36.75C9.14826 36.75 11.4429 35.5038 12.8787 33.5792M28.875 15.75C28.875 17.1997 27.6997 18.375 26.25 18.375C24.8003 18.375 23.625 17.1997 23.625 15.75C23.625 14.3003 24.8003 13.125 26.25 13.125C27.6997 13.125 28.875 14.3003 28.875 15.75Z" stroke="#4B5563" stroke-width="2" stroke-linecap="round" stroke-linejoin="round"/>
</svg>
