<svg xmlns="http://www.w3.org/2000/svg" width="16" height="18" viewBox="0 0 16 18" fill="none">
    <path d="M5.99473 2.28344C6.07007 1.83139 6.46119 1.50006 6.91947 1.50006H9.08111C9.5394 1.50006 9.93051 1.83139 10.0059 2.28344L10.1838 3.35098C10.2357 3.66268 10.444 3.92232 10.7205 4.07536C10.7823 4.10958 10.8434 4.14492 10.9038 4.18137C11.1746 4.34493 11.5041 4.39578 11.8004 4.28478L12.8144 3.90487C13.2436 3.7441 13.7261 3.91715 13.9552 4.31404L15.0361 6.18607C15.2652 6.58296 15.1738 7.08734 14.82 7.37861L13.9831 8.06762C13.7393 8.26829 13.6185 8.57816 13.6243 8.89383C13.625 8.92916 13.6253 8.96457 13.6253 9.00006C13.6253 9.03554 13.625 9.07095 13.6243 9.10627C13.6185 9.42195 13.7393 9.73182 13.9831 9.93249L14.82 10.6215C15.1738 10.9128 15.2652 11.4172 15.0361 11.814L13.9552 13.6861C13.7261 14.083 13.2436 14.256 12.8144 14.0952L11.8004 13.7153C11.5041 13.6043 11.1747 13.6552 10.9038 13.8187C10.8434 13.8552 10.7823 13.8905 10.7205 13.9248C10.444 14.0778 10.2357 14.3374 10.1838 14.6491L10.0059 15.7167C9.93051 16.1687 9.5394 16.5001 9.08111 16.5001H6.91947C6.46119 16.5001 6.07007 16.1687 5.99473 15.7167L5.8168 14.6491C5.76485 14.3374 5.55654 14.0778 5.28007 13.9248C5.21826 13.8905 5.15716 13.8552 5.0968 13.8188C4.82594 13.6552 4.49649 13.6043 4.20019 13.7153L3.18613 14.0952C2.75698 14.256 2.27448 14.083 2.04534 13.6861L0.964521 11.8141C0.735377 11.4172 0.826755 10.9128 1.18057 10.6215L2.01753 9.9325C2.26129 9.73183 2.38212 9.42196 2.37627 9.10629C2.37562 9.07096 2.37529 9.03555 2.37529 9.00006C2.37529 8.96458 2.37562 8.92917 2.37627 8.89385C2.38212 8.57817 2.26129 8.2683 2.01753 8.06764L1.18057 7.37862C0.826755 7.08735 0.735377 6.58297 0.96452 6.18608L2.04534 4.31405C2.27448 3.91716 2.75698 3.74411 3.18613 3.90489L4.20018 4.28478C4.49648 4.39579 4.82593 4.34494 5.09679 4.18138C5.15715 4.14493 5.21825 4.10958 5.28007 4.07536C5.55654 3.92232 5.76485 3.66268 5.8168 3.35098L5.99473 2.28344Z" stroke="#4B5563" stroke-width="1.5" stroke-linecap="round" stroke-linejoin="round"/>
    <path d="M10.5001 8.99999C10.5001 10.3807 9.38081 11.5 8.0001 11.5C6.61939 11.5 5.5001 10.3807 5.5001 8.99999C5.5001 7.61928 6.61939 6.49999 8.0001 6.49999C9.38081 6.49999 10.5001 7.61928 10.5001 8.99999Z" stroke="#4B5563" stroke-width="1.5" stroke-linecap="round" stroke-linejoin="round"/>
    </svg>