<svg width="16" height="16" viewBox="0 0 16 16" fill="none" xmlns="http://www.w3.org/2000/svg">
<path d="M5.78873 8.89491C5.9234 8.62557 5.9994 8.32157 5.9994 8.00024C5.9994 7.67891 5.9234 7.37491 5.78873 7.10557M5.78873 8.89491C5.5872 9.29783 5.25554 9.62092 4.84746 9.81181C4.43939 10.0027 3.97882 10.0502 3.54036 9.94671C3.10191 9.84317 2.71125 9.59463 2.43168 9.24135C2.15211 8.88808 2 8.45076 2 8.00024C2 7.54972 2.15211 7.1124 2.43168 6.75913C2.71125 6.40585 3.10191 6.15731 3.54036 6.05377C3.97882 5.95024 4.43939 5.99777 4.84746 6.18866C5.25554 6.37956 5.5872 6.70265 5.78873 7.10557M5.78873 8.89491L10.2101 11.1056M5.78873 7.10557L10.2101 4.89491M10.2101 11.1056C9.97279 11.5801 9.93374 12.1295 10.1015 12.6329C10.2693 13.1362 10.6302 13.5523 11.1047 13.7896C11.5793 14.0269 12.1287 14.0659 12.632 13.8981C13.1354 13.7303 13.5515 13.3695 13.7887 12.8949C14.026 12.4203 14.0651 11.871 13.8973 11.3676C13.7295 10.8643 13.3686 10.4482 12.8941 10.2109C12.6591 10.0934 12.4033 10.0234 12.1412 10.0047C11.8792 9.98611 11.616 10.0193 11.3668 10.1024C10.8634 10.2701 10.4473 10.631 10.2101 11.1056ZM10.2101 4.89491C10.3276 5.12984 10.4902 5.33933 10.6886 5.51142C10.8871 5.68351 11.1175 5.81483 11.3667 5.89788C11.6159 5.98092 11.879 6.01407 12.141 5.99543C12.403 5.97679 12.6588 5.90673 12.8937 5.78924C13.1287 5.67175 13.3382 5.50914 13.5103 5.31069C13.6823 5.11223 13.8137 4.88183 13.8967 4.63263C13.9798 4.38343 14.0129 4.12031 13.9943 3.8583C13.9756 3.59628 13.9056 3.34051 13.7881 3.10557C13.5508 2.6311 13.1347 2.27032 12.6315 2.1026C12.1282 1.93488 11.5789 1.97396 11.1044 2.21124C10.6299 2.44852 10.2691 2.86456 10.1014 3.36785C9.93371 3.87114 9.97279 4.42043 10.2101 4.89491Z" stroke="#0D0D12" stroke-width="1.5" stroke-linecap="round" stroke-linejoin="round"/>
</svg>
