<svg xmlns="http://www.w3.org/2000/svg" width="14" height="14" viewBox="0 0 14 14" fill="none">
    <path d="M4.78922 7.89466C4.92389 7.62533 4.99989 7.32133 4.99989 7C4.99989 6.67866 4.92389 6.37466 4.78922 6.10533M4.78922 7.89466C4.58769 8.29759 4.25602 8.62067 3.84795 8.81157C3.43988 9.00247 2.97931 9.05 2.54085 8.94646C2.10239 8.84293 1.71174 8.59439 1.43217 8.24111C1.15259 7.88783 1.00049 7.45051 1.00049 7C1.00049 6.54948 1.15259 6.11216 1.43217 5.75888C1.71174 5.4056 2.10239 5.15706 2.54085 5.05353C2.97931 4.94999 3.43988 4.99752 3.84795 5.18842C4.25602 5.37932 4.58769 5.7024 4.78922 6.10533M4.78922 7.89466L9.21056 10.1053M4.78922 6.10533L9.21056 3.89466M9.21056 10.1053C8.97328 10.5799 8.93423 11.1293 9.10201 11.6326C9.2698 12.136 9.63066 12.552 10.1052 12.7893C10.5798 13.0266 11.1292 13.0657 11.6325 12.8979C12.1359 12.7301 12.5519 12.3692 12.7892 11.8947C13.0265 11.4201 13.0655 10.8707 12.8978 10.3674C12.73 9.86402 12.3691 9.44794 11.8946 9.21066C11.6596 9.09317 11.4038 9.02312 11.1417 9.00449C10.8797 8.98587 10.6165 9.01904 10.3673 9.10212C9.86392 9.2699 9.44784 9.63077 9.21056 10.1053ZM9.21056 3.89466C9.32804 4.1296 9.49066 4.33909 9.68911 4.51118C9.88756 4.68327 10.118 4.81459 10.3672 4.89763C10.6164 4.98068 10.8795 5.01383 11.1415 4.99519C11.4035 4.97655 11.6593 4.90648 11.8942 4.789C12.1292 4.67151 12.3386 4.50889 12.5107 4.31044C12.6828 4.11199 12.8141 3.88159 12.8972 3.63238C12.9802 3.38318 13.0134 3.12006 12.9948 2.85805C12.9761 2.59604 12.906 2.34026 12.7886 2.10533C12.5513 1.63086 12.1352 1.27008 11.6319 1.10236C11.1287 0.934636 10.5794 0.973715 10.1049 1.21099C9.63042 1.44828 9.26964 1.86432 9.10192 2.36761C8.9342 2.87089 8.97328 3.42019 9.21056 3.89466Z" stroke="#0D0D12" stroke-width="1.5" stroke-linecap="round" stroke-linejoin="round"/>
    </svg>