<svg>
  <symbol
    id="home"
    width="16"
    height="16"
    viewBox="0 0 16 16"
    fill="none"
    xmlns="http://www.w3.org/2000/svg"
  >
    <path
      fill-rule="evenodd"
      clip-rule="evenodd"
      d="M7.29292 0.292893C7.68345 -0.0976311 8.31661 -0.0976311 8.70714 0.292893L15.7071 7.29289C15.9931 7.57889 16.0787 8.00901 15.9239 8.38268C15.7691 8.75636 15.4045 9 15 9H14V15C14 15.5523 13.5523 16 13 16H11C10.4477 16 10 15.5523 10 15V12C10 11.4477 9.55231 11 9.00003 11H7.00003C6.44774 11 6.00003 11.4477 6.00003 12V15C6.00003 15.5523 5.55231 16 5.00003 16H3.00003C2.44774 16 2.00003 15.5523 2.00003 15V9H1.00003C0.595567 9 0.230931 8.75636 0.0761497 8.38268C-0.0786313 8.00901 0.00692445 7.57889 0.292922 7.29289L7.29292 0.292893Z"
      fill="#4B5563"
    />
  </symbol>

  <symbol
    id="discover"
    width="18"
    height="17"
    viewBox="0 0 18 17"
    fill="none"
    xmlns="http://www.w3.org/2000/svg"
  >
    <path
      d="M16.5 16L12.1694 11.6694M12.1694 11.6694C13.3004 10.5384 14 8.97589 14 7.25C14 3.79822 11.2018 1 7.75 1C4.29822 1 1.5 3.79822 1.5 7.25C1.5 10.7018 4.29822 13.5 7.75 13.5C9.47589 13.5 11.0384 12.8004 12.1694 11.6694Z"
      stroke="#4B5563"
      stroke-width="1.5"
      stroke-linecap="round"
      stroke-linejoin="round"
    />
  </symbol>

  <symbol
    id="analyze"
    width="16"
    height="14"
    viewBox="0 0 16 14"
    fill="none"
    xmlns="http://www.w3.org/2000/svg"
  >
    <path
      d="M0 8C0 7.73478 0.105357 7.48043 0.292893 7.29289C0.48043 7.10536 0.734784 7 1 7H3C3.26522 7 3.51957 7.10536 3.70711 7.29289C3.89464 7.48043 4 7.73478 4 8V13C4 13.2652 3.89464 13.5196 3.70711 13.7071C3.51957 13.8946 3.26522 14 3 14H1C0.734784 14 0.48043 13.8946 0.292893 13.7071C0.105357 13.5196 0 13.2652 0 13V8ZM6 4C6 3.73478 6.10536 3.48043 6.29289 3.29289C6.48043 3.10536 6.73478 3 7 3H9C9.26522 3 9.51957 3.10536 9.70711 3.29289C9.89464 3.48043 10 3.73478 10 4V13C10 13.2652 9.89464 13.5196 9.70711 13.7071C9.51957 13.8946 9.26522 14 9 14H7C6.73478 14 6.48043 13.8946 6.29289 13.7071C6.10536 13.5196 6 13.2652 6 13V4ZM12 1C12 0.734784 12.1054 0.48043 12.2929 0.292893C12.4804 0.105357 12.7348 0 13 0H15C15.2652 0 15.5196 0.105357 15.7071 0.292893C15.8946 0.48043 16 0.734784 16 1V13C16 13.2652 15.8946 13.5196 15.7071 13.7071C15.5196 13.8946 15.2652 14 15 14H13C12.7348 14 12.4804 13.8946 12.2929 13.7071C12.1054 13.5196 12 13.2652 12 13V1Z"
      fill="#4B5563"
    />
  </symbol>

  <symbol
    id="action"
    width="14"
    height="18"
    viewBox="0 0 14 18"
    fill="none"
    xmlns="http://www.w3.org/2000/svg"
  >
    <path
      fill-rule="evenodd"
      clip-rule="evenodd"
      d="M8.29996 0.0458334C8.50296 0.109676 8.68031 0.236615 8.8062 0.408189C8.93209 0.579764 8.99997 0.787026 8.99996 0.999833V5.99983H13C13.1829 5.99975 13.3623 6.04984 13.5187 6.14466C13.6752 6.23947 13.8026 6.37537 13.8871 6.53758C13.9717 6.69978 14.0101 6.88207 13.9983 7.0646C13.9865 7.24713 13.9248 7.42292 13.82 7.57283L6.81996 17.5728C6.69813 17.7474 6.52379 17.8785 6.3223 17.9471C6.12081 18.0157 5.90268 18.0182 5.69965 17.9543C5.49663 17.8904 5.31929 17.7634 5.19345 17.5917C5.06761 17.42 4.99982 17.2127 4.99996 16.9998V11.9998H0.999957C0.817038 11.9999 0.637602 11.9498 0.481174 11.855C0.324747 11.7602 0.197322 11.6243 0.112766 11.4621C0.0282109 11.2999 -0.0102353 11.1176 0.00161155 10.9351C0.0134584 10.7525 0.0751445 10.5767 0.179957 10.4268L7.17996 0.426833C7.30197 0.25262 7.47635 0.121846 7.67776 0.0535096C7.87917 -0.0148267 8.09713 -0.0171653 8.29996 0.0468335V0.0458334Z"
      fill="#4B5563"
    />
  </symbol>

  <symbol
    id="reflect"
    width="16"
    height="16"
    viewBox="0 0 16 16"
    fill="none"
    xmlns="http://www.w3.org/2000/svg"
  >
    <path
      d="M9 1C9 0.734784 8.89464 0.48043 8.70711 0.292893C8.51957 0.105357 8.26522 0 8 0C7.73478 0 7.48043 0.105357 7.29289 0.292893C7.10536 0.48043 7 0.734784 7 1V2C7 2.26522 7.10536 2.51957 7.29289 2.70711C7.48043 2.89464 7.73478 3 8 3C8.26522 3 8.51957 2.89464 8.70711 2.70711C8.89464 2.51957 9 2.26522 9 2V1ZM13.657 3.757C13.8392 3.5684 13.94 3.3158 13.9377 3.0536C13.9354 2.7914 13.8302 2.54059 13.6448 2.35518C13.4594 2.16977 13.2086 2.0646 12.9464 2.06233C12.6842 2.06005 12.4316 2.16084 12.243 2.343L11.536 3.05C11.3538 3.2386 11.253 3.4912 11.2553 3.7534C11.2576 4.0156 11.3628 4.26641 11.5482 4.45182C11.7336 4.63723 11.9844 4.7424 12.2466 4.74467C12.5088 4.74695 12.7614 4.64616 12.95 4.464L13.657 3.757ZM16 8C16 8.26522 15.8946 8.51957 15.7071 8.70711C15.5196 8.89464 15.2652 9 15 9H14C13.7348 9 13.4804 8.89464 13.2929 8.70711C13.1054 8.51957 13 8.26522 13 8C13 7.73478 13.1054 7.48043 13.2929 7.29289C13.4804 7.10536 13.7348 7 14 7H15C15.2652 7 15.5196 7.10536 15.7071 7.29289C15.8946 7.48043 16 7.73478 16 8ZM3.05 4.464C3.14225 4.55951 3.25259 4.63569 3.3746 4.6881C3.4966 4.74051 3.62782 4.7681 3.7606 4.76925C3.89338 4.7704 4.02506 4.7451 4.14795 4.69482C4.27085 4.64454 4.3825 4.57029 4.4764 4.4764C4.57029 4.3825 4.64454 4.27085 4.69482 4.14795C4.7451 4.02506 4.7704 3.89338 4.76925 3.7606C4.7681 3.62782 4.74051 3.4966 4.6881 3.3746C4.63569 3.25259 4.55951 3.14225 4.464 3.05L3.757 2.343C3.5684 2.16084 3.3158 2.06005 3.0536 2.06233C2.7914 2.0646 2.54059 2.16977 2.35518 2.35518C2.16977 2.54059 2.0646 2.7914 2.06233 3.0536C2.06005 3.3158 2.16084 3.5684 2.343 3.757L3.05 4.464ZM3 8C3 8.26522 2.89464 8.51957 2.70711 8.70711C2.51957 8.89464 2.26522 9 2 9H1C0.734784 9 0.48043 8.89464 0.292893 8.70711C0.105357 8.51957 0 8.26522 0 8C0 7.73478 0.105357 7.48043 0.292893 7.29289C0.48043 7.10536 0.734784 7 1 7H2C2.26522 7 2.51957 7.10536 2.70711 7.29289C2.89464 7.48043 3 7.73478 3 8ZM6 14V13H10V14C10 14.5304 9.78929 15.0391 9.41421 15.4142C9.03914 15.7893 8.53043 16 8 16C7.46957 16 6.96086 15.7893 6.58579 15.4142C6.21071 15.0391 6 14.5304 6 14ZM10 12C10.015 11.66 10.208 11.354 10.477 11.141C11.1297 10.6263 11.6058 9.92097 11.8391 9.12316C12.0725 8.32535 12.0515 7.47466 11.7791 6.68933C11.5067 5.904 10.9964 5.22304 10.3191 4.74112C9.64182 4.25919 8.83124 4.00022 8 4.00022C7.16876 4.00022 6.35818 4.25919 5.6809 4.74112C5.00363 5.22304 4.49332 5.904 4.22091 6.68933C3.94849 7.47466 3.9275 8.32535 4.16086 9.12316C4.39421 9.92097 4.87032 10.6263 5.523 11.141C5.793 11.354 5.985 11.66 5.999 12H10.001H10Z"
      fill="#4B5563"
    />
  </symbol>

  <symbol
    id="users"
    width="16"
    height="16"
    viewBox="0 0 16 16"
    fill="none"
    xmlns="http://www.w3.org/2000/svg"
  >
    <path
      fill-rule="evenodd"
      clip-rule="evenodd"
      d="M16 8C16 10.1217 15.1571 12.1566 13.6569 13.6569C12.1566 15.1571 10.1217 16 8 16C5.87827 16 3.84344 15.1571 2.34315 13.6569C0.842855 12.1566 0 10.1217 0 8C0 5.87827 0.842855 3.84344 2.34315 2.34315C3.84344 0.842855 5.87827 0 8 0C10.1217 0 12.1566 0.842855 13.6569 2.34315C15.1571 3.84344 16 5.87827 16 8ZM10 5C10 5.53043 9.78929 6.03914 9.41421 6.41421C9.03914 6.78929 8.53043 7 8 7C7.46957 7 6.96086 6.78929 6.58579 6.41421C6.21071 6.03914 6 5.53043 6 5C6 4.46957 6.21071 3.96086 6.58579 3.58579C6.96086 3.21071 7.46957 3 8 3C8.53043 3 9.03914 3.21071 9.41421 3.58579C9.78929 3.96086 10 4.46957 10 5ZM8 9C7.0426 8.99981 6.10528 9.27449 5.29942 9.7914C4.49356 10.3083 3.85304 11.0457 3.454 11.916C4.01668 12.5706 4.71427 13.0958 5.49894 13.4555C6.28362 13.8152 7.13681 14.0009 8 14C8.86319 14.0009 9.71638 13.8152 10.5011 13.4555C11.2857 13.0958 11.9833 12.5706 12.546 11.916C12.147 11.0457 11.5064 10.3083 10.7006 9.7914C9.89472 9.27449 8.9574 8.99981 8 9Z"
      fill="#4B5563"
    />
  </symbol>

  <symbol
    id="teams"
    width="18"
    height="15"
    viewBox="0 0 18 15"
    fill="none"
    xmlns="http://www.w3.org/2000/svg"
  >
    <path
      d="M9 6C10.6569 6 12 4.65685 12 3C12 1.34315 10.6569 0 9 0C7.34315 0 6 1.34315 6 3C6 4.65685 7.34315 6 9 6Z"
      fill="#4B5563"
    />
    <path
      d="M5 5C5 6.10457 4.10457 7 3 7C1.89543 7 1 6.10457 1 5C1 3.89543 1.89543 3 3 3C4.10457 3 5 3.89543 5 5Z"
      fill="#4B5563"
    />
    <path
      d="M0.490644 12.3257C0.321065 12.2271 0.190213 12.0718 0.132468 11.8843C0.0463562 11.6048 0 11.3078 0 11C0 9.34315 1.34315 8 3 8C3.522 8 4.01287 8.13332 4.4404 8.36777C3.39329 9.39885 2.69414 10.7825 2.53478 12.3267C2.5118 12.5494 2.52139 12.7692 2.55996 12.9809C1.81061 12.9156 1.10861 12.6849 0.490644 12.3257Z"
      fill="#4B5563"
    />
    <path
      d="M15.4405 12.9809C16.1897 12.9155 16.8915 12.6849 17.5094 12.3257C17.6789 12.2271 17.8098 12.0718 17.8675 11.8843C17.9536 11.6048 18 11.3078 18 11C18 9.34315 16.6569 8 15 8C14.4781 8 13.9873 8.13326 13.5599 8.36762C14.6071 9.39872 15.3063 10.7824 15.4656 12.3267C15.4886 12.5494 15.479 12.7692 15.4405 12.9809Z"
      fill="#4B5563"
    />
    <path
      d="M17 5C17 6.10457 16.1046 7 15 7C13.8954 7 13 6.10457 13 5C13 3.89543 13.8954 3 15 3C16.1046 3 17 3.89543 17 5Z"
      fill="#4B5563"
    />
    <path
      d="M4.30383 13.1909C4.10473 13.0106 3.99922 12.7478 4.02679 12.4807C4.28657 9.96329 6.41408 8 9.00015 8C11.5862 8 13.7137 9.96329 13.9735 12.4807C14.0011 12.7478 13.8956 13.0107 13.6965 13.1909C12.4545 14.3152 10.8073 15 9.00015 15C7.19298 15 5.54576 14.3152 4.30383 13.1909Z"
      fill="#4B5563"
    />
  </symbol>

  <symbol
    id="settings"
    width="18"
    height="18"
    viewBox="0 0 18 18"
    fill="none"
    xmlns="http://www.w3.org/2000/svg"
  >
    <path
      fill-rule="evenodd"
      clip-rule="evenodd"
      d="M8.85669 0.875C8.09288 0.875 7.44102 1.42721 7.31545 2.18063L7.23916 2.63835C7.20014 2.87246 7.03089 3.06173 6.80862 3.14495C6.67342 3.19558 6.54044 3.25075 6.40987 3.31029C6.19382 3.4088 5.94018 3.39469 5.74696 3.25668L5.36916 2.98682C4.74762 2.54286 3.89622 2.61332 3.35612 3.15342L3.15344 3.3561C2.61334 3.8962 2.54288 4.7476 2.98683 5.36914L3.25669 5.74694C3.3947 5.94016 3.40881 6.1938 3.3103 6.40985C3.25076 6.54042 3.19559 6.67341 3.14496 6.80861C3.06173 7.03088 2.87246 7.20013 2.63835 7.23915L2.18063 7.31544C1.42721 7.44101 0.875 8.09286 0.875 8.85668V9.14331C0.875 9.90712 1.42721 10.559 2.18063 10.6846L2.63835 10.7608C2.87246 10.7999 3.06173 10.9691 3.14495 11.1914C3.19558 11.3266 3.25075 11.4596 3.31029 11.5901C3.4088 11.8062 3.39469 12.0598 3.25667 12.253L2.9868 12.6309C2.54284 13.2524 2.6133 14.1038 3.1534 14.6439L3.35608 14.8466C3.89618 15.3867 4.74758 15.4571 5.36912 15.0132L5.74694 14.7433C5.94016 14.6053 6.1938 14.5912 6.40985 14.6897C6.54043 14.7492 6.67341 14.8044 6.80861 14.855C7.03088 14.9383 7.20013 15.1275 7.23915 15.3616L7.31544 15.8194C7.44101 16.5728 8.09286 17.125 8.85668 17.125H9.14331C9.90712 17.125 10.559 16.5728 10.6846 15.8194L10.7608 15.3617C10.7999 15.1275 10.9691 14.9383 11.1914 14.855C11.3266 14.8044 11.4596 14.7492 11.5901 14.6897C11.8062 14.5912 12.0598 14.6053 12.253 14.7433L12.6308 15.0132C13.2524 15.4571 14.1038 15.3867 14.6439 14.8466L14.8466 14.6439C15.3867 14.1038 15.4571 13.2524 15.0132 12.6309L14.7433 12.2531C14.6053 12.0598 14.5912 11.8062 14.6897 11.5902C14.7492 11.4596 14.8044 11.3266 14.855 11.1914C14.9383 10.9691 15.1275 10.7999 15.3616 10.7609L15.8194 10.6846C16.5728 10.559 17.125 9.90714 17.125 9.14332V8.85669C17.125 8.09288 16.5728 7.44102 15.8194 7.31545L15.3617 7.23916C15.1275 7.20014 14.9383 7.03089 14.855 6.80862C14.8044 6.67342 14.7492 6.54045 14.6897 6.40988C14.5912 6.19383 14.6053 5.94019 14.7433 5.74697L15.0132 5.36914C15.4572 4.7476 15.3867 3.8962 14.8466 3.3561L14.6439 3.15342C14.1038 2.61332 13.2524 2.54286 12.6309 2.98681L12.2531 3.25669C12.0598 3.3947 11.8062 3.40881 11.5901 3.3103C11.4596 3.25076 11.3266 3.19559 11.1914 3.14496C10.9691 3.06173 10.7999 2.87246 10.7609 2.63835L10.6846 2.18063C10.559 1.42721 9.90714 0.875 9.14332 0.875H8.85669ZM9 12.125C10.7259 12.125 12.125 10.7259 12.125 9C12.125 7.27411 10.7259 5.875 9 5.875C7.27411 5.875 5.875 7.27411 5.875 9C5.875 10.7259 7.27411 12.125 9 12.125Z"
      fill="#4B5563"
    />
  </symbol>

  <symbol
    id="strategy"
    width="18"
    height="18"
    viewBox="0 0 18 18"
    fill="none"
    xmlns="http://www.w3.org/2000/svg"
  >
    <path
      d="M12.0639 8.02986C12.4569 8.76079 12.6809 9.59599 12.6809 10.4823C12.6809 13.3382 10.3611 15.6608 7.50885 15.6608C4.65656 15.6608 2.33681 13.3382 2.33681 10.4823C2.33681 7.62653 4.65754 5.3039 7.50885 5.3039C8.4059 5.3039 9.24989 5.53311 9.98581 5.93743L11.2032 4.71857C10.1371 4.03093 8.86867 3.63152 7.50885 3.63152C3.73593 3.63152 0.666504 6.70475 0.666504 10.4823C0.666504 14.2599 3.73593 17.3332 7.50885 17.3332C11.2818 17.3332 14.3512 14.2599 14.3512 10.4823C14.3512 9.13264 13.9592 7.87246 13.2822 6.81002L12.0639 8.02986Z"
      fill="#4B5563"
    />
    <path
      d="M7.45973 8.46665L8.86966 7.05497C8.44815 6.88577 7.98931 6.79329 7.50885 6.79329C5.47698 6.79329 3.82436 8.44894 3.82436 10.4824C3.82436 12.5158 5.47698 14.1714 7.50885 14.1714C9.54073 14.1714 11.1933 12.5167 11.1933 10.4824C11.1933 10.0131 11.1059 9.56353 10.9448 9.15036L9.52009 10.5768C9.47097 11.6461 8.58767 12.499 7.50885 12.499C6.43003 12.499 5.49466 11.595 5.49466 10.4824C5.49466 9.36973 6.37206 8.49223 7.45973 8.46665Z"
      fill="#4B5563"
    />
    <path
      d="M15.6845 3.62562H14.3787V0.666504L11.6492 3.39936V4.96647L7.50197 9.11887C7.1178 9.50352 7.1178 10.1262 7.50197 10.5099C7.88614 10.8945 8.50808 10.8945 8.89127 10.5099L13.0385 6.35749H14.6037L17.3332 3.62464H15.6845V3.62562Z"
      fill="#4B5563"
    />
  </symbol>

  <symbol
    id="business"
    width="16"
    height="17"
    viewBox="0 0 16 17"
    fill="none"
    xmlns="http://www.w3.org/2000/svg"
  >
    <path
      fill-rule="evenodd"
      clip-rule="evenodd"
      d="M4 2.75C4 1.23122 5.23122 0 6.75 0H9.25C10.7688 0 12 1.23122 12 2.75V3.19269C12.572 3.24808 13.1407 3.31524 13.7057 3.39392C15.0526 3.58149 16 4.74901 16 6.07023V9.53857C16 10.6653 15.3058 11.7301 14.1705 12.0786C12.2185 12.6778 10.1462 13 8 13C5.8538 13 3.78149 12.6778 1.82951 12.0786C0.694234 11.7301 0 10.6653 0 9.53857V6.07023C0 4.74901 0.947371 3.58149 2.29435 3.39392C2.85933 3.31524 3.42796 3.24808 4 3.19269V2.75ZM10.5 2.75V3.07499C9.67296 3.02523 8.83939 3 8 3C7.16061 3 6.32704 3.02523 5.5 3.07499V2.75C5.5 2.05964 6.05964 1.5 6.75 1.5H9.25C9.94036 1.5 10.5 2.05964 10.5 2.75ZM8 9C7.44772 9 7 9.44772 7 10V10.01C7 10.5623 7.44772 11.01 8 11.01H8.01C8.56229 11.01 9.01 10.5623 9.01 10.01V10C9.01 9.44772 8.56229 9 8.01 9H8Z"
      fill="#4B5563"
    />
    <path
      d="M1 14.0552V13.3714C1.1256 13.4243 1.25542 13.4715 1.38933 13.5126C3.48234 14.1551 5.70295 14.5 8 14.5C10.297 14.5 12.5177 14.1551 14.6107 13.5126C14.7446 13.4715 14.8744 13.4243 15 13.3714V14.0552C15 15.4024 14.0154 16.5854 12.6369 16.7406C11.1147 16.9119 9.56747 16.9999 8 16.9999C6.43253 16.9999 4.88533 16.9119 3.36311 16.7406C1.98461 16.5854 1 15.4024 1 14.0552Z"
      fill="#4B5563"
    />
  </symbol>

  <symbol
    id="technical"
    width="18"
    height="18"
    viewBox="0 0 18 18"
    fill="none"
    xmlns="http://www.w3.org/2000/svg"
  >
    <path d="M12.75 5.25H5.25V12.75H12.75V5.25Z" fill="#4B5563" />
    <path
      fill-rule="evenodd"
      clip-rule="evenodd"
      d="M5.875 0.875C6.22018 0.875 6.5 1.15482 6.5 1.5V2.125H8.375V1.5C8.375 1.15482 8.65482 0.875 9 0.875C9.34518 0.875 9.625 1.15482 9.625 1.5V2.125H11.5V1.5C11.5 1.15482 11.7798 0.875 12.125 0.875C12.4702 0.875 12.75 1.15482 12.75 1.5V2.125H13.375C14.7557 2.125 15.875 3.24429 15.875 4.625V5.25H16.5C16.8452 5.25 17.125 5.52982 17.125 5.875C17.125 6.22018 16.8452 6.5 16.5 6.5H15.875V8.375H16.5C16.8452 8.375 17.125 8.65482 17.125 9C17.125 9.34518 16.8452 9.625 16.5 9.625H15.875V11.5H16.5C16.8452 11.5 17.125 11.7798 17.125 12.125C17.125 12.4702 16.8452 12.75 16.5 12.75H15.875V13.375C15.875 14.7557 14.7557 15.875 13.375 15.875H12.75V16.5C12.75 16.8452 12.4702 17.125 12.125 17.125C11.7798 17.125 11.5 16.8452 11.5 16.5V15.875H9.625V16.5C9.625 16.8452 9.34518 17.125 9 17.125C8.65482 17.125 8.375 16.8452 8.375 16.5V15.875H6.5V16.5C6.5 16.8452 6.22018 17.125 5.875 17.125C5.52982 17.125 5.25 16.8452 5.25 16.5V15.875H4.625C3.24429 15.875 2.125 14.7557 2.125 13.375V12.75H1.5C1.15482 12.75 0.875 12.4702 0.875 12.125C0.875 11.7798 1.15482 11.5 1.5 11.5H2.125V9.625H1.5C1.15482 9.625 0.875 9.34518 0.875 9C0.875 8.65482 1.15482 8.375 1.5 8.375H2.125V6.5H1.5C1.15482 6.5 0.875 6.22018 0.875 5.875C0.875 5.52982 1.15482 5.25 1.5 5.25H2.125V4.625C2.125 3.24429 3.24429 2.125 4.625 2.125H5.25V1.5C5.25 1.15482 5.52982 0.875 5.875 0.875ZM4 4.625C4 4.27982 4.27982 4 4.625 4H13.375C13.7202 4 14 4.27982 14 4.625V13.375C14 13.7202 13.7202 14 13.375 14H4.625C4.27982 14 4 13.7202 4 13.375V4.625Z"
      fill="#4B5563"
    />
  </symbol>

  <symbol
    id="security"
    width="18"
    height="18"
    viewBox="0 0 18 18"
    fill="none"
    xmlns="http://www.w3.org/2000/svg"
  >
    <path
      fill-rule="evenodd"
      clip-rule="evenodd"
      d="M9.42976 0.807926C9.18872 0.57965 8.81128 0.57965 8.57024 0.807926C6.8896 2.39957 4.62187 3.37484 2.125 3.37484C2.08527 3.37484 2.04561 3.3746 2.00601 3.3741C1.7332 3.37072 1.48972 3.54467 1.40451 3.80385C1.06073 4.84949 0.875 5.96612 0.875 7.12488C0.875 12.0766 4.26171 16.2357 8.84421 17.4151C8.94641 17.4414 9.05359 17.4414 9.15579 17.4151C13.7383 16.2357 17.125 12.0766 17.125 7.12488C17.125 5.96612 16.9393 4.84949 16.5955 3.80385C16.5103 3.54467 16.2668 3.37072 15.994 3.3741C15.9544 3.3746 15.9147 3.37484 15.875 3.37484C13.3781 3.37484 11.1104 2.39957 9.42976 0.807926ZM12.0086 7.48803C12.2092 7.20715 12.1442 6.8168 11.8633 6.61617C11.5824 6.41554 11.192 6.4806 10.9914 6.76148L8.29525 10.5361L6.94194 9.18281C6.69786 8.93874 6.30214 8.93874 6.05806 9.18281C5.81398 9.42689 5.81398 9.82262 6.05806 10.0667L7.93306 11.9417C8.06297 12.0716 8.24346 12.1378 8.42655 12.1226C8.60964 12.1075 8.7768 12.0125 8.88358 11.863L12.0086 7.48803Z"
      fill="#4B5563"
    />
  </symbol>

  <symbol
    id="innovation"
    width="20"
    height="20"
    viewBox="0 0 20 20"
    fill="none"
    xmlns="http://www.w3.org/2000/svg"
  >
    <g clip-path="url(#clip0_2317_3993)">
      <path
        d="M14.2676 7.30933C14.5427 7.59696 14.6398 7.88529 14.6977 8.27232C14.7265 8.39814 14.7384 8.44457 14.8438 8.51539C14.9522 8.54823 15.0517 8.56003 15.1648 8.56247C15.1968 8.56325 15.2289 8.56403 15.2619 8.56483C15.2961 8.56548 15.3303 8.56614 15.3656 8.56681C15.4009 8.56762 15.4363 8.56843 15.4727 8.56927C15.5853 8.57182 15.6979 8.57412 15.8105 8.57642C15.887 8.57811 15.9634 8.57981 16.0399 8.58153C16.2271 8.58571 16.4143 8.58967 16.6016 8.59351C16.4824 10.2278 15.9351 11.7271 14.8438 12.9685C14.8116 13.0054 14.7794 13.0423 14.7462 13.0804C14.5563 13.2941 14.3629 13.4918 14.1406 13.6716C14.1018 13.7032 14.063 13.7348 14.023 13.7673C13.7989 13.9472 13.5713 14.1184 13.3342 14.2807C12.6864 14.7254 12.4194 15.1785 12.1484 15.9373C11.3621 15.9373 10.5758 15.9373 9.76562 15.9373C9.76562 15.3314 9.76562 14.7255 9.76562 14.1013C9.99766 14.024 9.99766 14.024 10.2344 13.9451C10.3594 13.8691 10.4713 13.7987 10.5859 13.7107C10.6186 13.6866 10.6512 13.6626 10.6848 13.6378C11.0128 13.3544 11.2255 12.863 11.2579 12.4337C11.2669 11.8827 11.1175 11.3984 10.7422 10.9861C10.4672 10.726 10.1208 10.5869 9.76562 10.4685C9.76562 9.84976 9.76562 9.23101 9.76562 8.59351C9.92409 8.5916 10.0826 8.58969 10.2458 8.58771C10.3724 8.58597 10.499 8.58416 10.6256 8.58229C10.7591 8.58034 10.8927 8.57853 11.0262 8.57703C11.1795 8.57531 11.3328 8.57298 11.4861 8.57062C11.5337 8.57017 11.5814 8.56972 11.6306 8.56926C11.6751 8.56848 11.7197 8.56771 11.7656 8.56691C11.8047 8.56638 11.8439 8.56586 11.8842 8.56533C11.9992 8.55375 12.084 8.52724 12.1875 8.47633C12.2713 8.35886 12.2806 8.23895 12.2974 8.09791C12.3569 7.72673 12.511 7.4906 12.8006 7.25227C13.2498 6.92794 13.8252 7.02011 14.2676 7.30933Z"
        fill="#4B5563"
      />
      <path
        d="M2.26562 8.59375C2.69102 8.59375 3.11641 8.59375 3.55469 8.59375C3.60625 8.74844 3.65781 8.90312 3.71094 9.0625C3.99193 9.5253 4.33961 9.82855 4.85367 10.0044C5.02099 10.044 5.17304 10.0525 5.34424 10.0513C5.37531 10.051 5.40638 10.0508 5.43839 10.0506C5.92382 10.0406 6.33253 9.8505 6.69312 9.52393C6.94757 9.24547 7.05804 8.94977 7.1875 8.59375C7.80625 8.59375 8.425 8.59375 9.0625 8.59375C9.06469 8.83145 9.06469 8.83145 9.06693 9.07394C9.06841 9.20055 9.07002 9.32716 9.0717 9.45377C9.07344 9.58727 9.07498 9.72077 9.07603 9.85429C9.07725 10.0076 9.07939 10.1609 9.08157 10.3142C9.08195 10.3857 9.08195 10.3857 9.08233 10.4587C9.0831 10.5033 9.08388 10.5478 9.08467 10.5937C9.08511 10.6329 9.08554 10.672 9.08599 10.7123C9.10417 10.8384 9.14499 10.9126 9.21875 11.0156C9.33785 11.0977 9.45287 11.1073 9.59473 11.123C9.91444 11.1737 10.1646 11.3029 10.3687 11.5576C10.5863 11.8856 10.6257 12.1844 10.5859 12.5781C10.5116 12.875 10.3198 13.1305 10.0682 13.3023C9.85115 13.4215 9.64648 13.4665 9.40094 13.4901C9.27193 13.5217 9.22303 13.5693 9.14062 13.6719C9.10096 13.7909 9.09554 13.8749 9.09354 13.9996C9.09275 14.0432 9.09197 14.0868 9.09115 14.1317C9.09051 14.1775 9.08987 14.2233 9.0892 14.2705C9.08811 14.3337 9.08811 14.3337 9.087 14.3981C9.08432 14.5556 9.08198 14.7131 9.07959 14.8706C9.07395 15.2227 9.06831 15.5748 9.0625 15.9375C8.27617 15.9375 7.48984 15.9375 6.67969 15.9375C6.61523 15.7441 6.55078 15.5508 6.48438 15.3516C6.23599 14.8629 5.89468 14.5164 5.4364 14.2221C5.03696 13.9594 4.68144 13.6492 4.33594 13.3203C4.2916 13.2798 4.2916 13.2798 4.24637 13.2384C3.78907 12.8061 3.42535 12.2691 3.125 11.7188C3.11157 11.6943 3.09815 11.6698 3.08432 11.6445C2.57921 10.7104 2.26562 9.65855 2.26562 8.59375Z"
        fill="#4B5563"
      />
      <path
        d="M9.06248 1.05469C9.06248 1.48008 9.06248 1.90547 9.06248 2.34375C8.8949 2.4082 8.72732 2.47266 8.55467 2.53906C8.09257 2.82725 7.75254 3.21998 7.62693 3.75839C7.53988 4.25081 7.59677 4.74495 7.87245 5.17075C8.18986 5.5995 8.55186 5.83067 9.06248 5.97656C9.06248 6.6082 9.06248 7.23984 9.06248 7.89062C8.89792 7.89163 8.73337 7.89264 8.56382 7.89368C8.43252 7.89491 8.30121 7.89631 8.16991 7.8978C8.03136 7.89934 7.89281 7.90061 7.75425 7.90121C7.59522 7.90192 7.43622 7.90387 7.2772 7.90588C7.2276 7.90593 7.17799 7.90598 7.12688 7.90603C7.08075 7.9068 7.03462 7.90757 6.98709 7.90836C6.9262 7.90888 6.9262 7.90888 6.86408 7.90941C6.73117 7.93477 6.68562 7.98226 6.60154 8.08594C6.55203 8.18496 6.54561 8.27401 6.53074 8.38379C6.47229 8.73833 6.3436 8.99641 6.05467 9.21875C5.71333 9.40903 5.3818 9.4695 4.99998 9.37256C4.70473 9.27429 4.45242 9.07997 4.29594 8.80905C4.22759 8.63325 4.20428 8.44725 4.17845 8.26126C4.13127 8.09137 4.08563 8.03644 3.94529 7.92969C3.81651 7.9009 3.69036 7.9015 3.55879 7.90207C3.50328 7.90118 3.50328 7.90118 3.44665 7.90028C3.32884 7.8986 3.21106 7.89826 3.09324 7.89795C3.01321 7.89705 2.93318 7.89605 2.85314 7.89497C2.65729 7.89252 2.46147 7.89126 2.26561 7.89062C2.26064 7.6275 2.2669 7.3741 2.30955 7.11426C2.31468 7.08288 2.3198 7.05151 2.32509 7.01919C2.56767 5.6305 3.20162 4.33633 4.17967 3.32031C4.20014 3.29863 4.22061 3.27695 4.24169 3.2546C5.46381 1.96425 7.25825 1.05469 9.06248 1.05469Z"
        fill="#4B5563"
      />
      <path
        d="M10.9376 -0.000218165C11.2101 -0.00511317 11.4724 -0.00251269 11.7408 0.0461686C11.7704 0.0513959 11.7999 0.0566233 11.8304 0.0620091C13.7364 0.413779 15.4186 1.48891 16.5235 3.08572C16.6505 3.27565 16.7657 3.47118 16.8751 3.67166C16.8885 3.69615 16.9019 3.72064 16.9158 3.74587C17.4209 4.67999 17.7345 5.73185 17.7345 6.79666C17.3091 6.79666 16.8837 6.79666 16.4454 6.79666C16.3938 6.64197 16.3423 6.48728 16.2892 6.32791C16.2141 6.19829 16.1469 6.09127 16.0548 5.97634C16.0332 5.94945 16.0117 5.92257 15.9895 5.89486C15.693 5.56419 15.2458 5.35299 14.8048 5.31228C14.7765 5.30956 14.7483 5.30684 14.7192 5.30404C14.2309 5.28133 13.7611 5.47497 13.3912 5.78347C13.0837 6.0741 12.9452 6.39891 12.8126 6.79666C12.1938 6.79666 11.5751 6.79666 10.9376 6.79666C10.9357 6.63865 10.9338 6.48063 10.9318 6.31784C10.9301 6.19144 10.9282 6.06505 10.9264 5.93866C10.9244 5.80546 10.9226 5.67227 10.9211 5.53907C10.9194 5.38605 10.9171 5.23305 10.9147 5.08004C10.9143 5.03255 10.9138 4.98506 10.9133 4.93612C10.9126 4.89156 10.9118 4.847 10.911 4.80109C10.9105 4.76206 10.9099 4.72302 10.9094 4.68281C10.8974 4.55803 10.8641 4.45287 10.8204 4.33572C10.7789 4.32907 10.7374 4.32243 10.6947 4.31558C10.2933 4.2481 9.97032 4.18897 9.68759 3.86697C9.6465 3.82225 9.6465 3.82225 9.60458 3.77664C9.39391 3.47468 9.37778 3.17227 9.41415 2.81228C9.49215 2.50075 9.70779 2.22045 9.983 2.05545C10.204 1.95099 10.4135 1.8995 10.6536 1.86151C10.7552 1.83197 10.795 1.80136 10.8595 1.71853C10.8944 1.61372 10.9042 1.54894 10.9065 1.44102C10.9073 1.40897 10.9081 1.37691 10.9089 1.34388C10.9096 1.30946 10.9102 1.27503 10.9109 1.23956C10.9117 1.20418 10.9125 1.16879 10.9133 1.13234C10.9159 1.01931 10.9182 0.906274 10.9205 0.793239C10.9222 0.716614 10.9239 0.639989 10.9256 0.563365C10.9298 0.375508 10.9338 0.187647 10.9376 -0.000218165Z"
        fill="#4B5563"
      />
      <path
        d="M6.75768 16.6016C8.52369 16.6016 10.2897 16.6016 12.1092 16.6016C12.1092 18.0469 12.1092 18.0469 11.9921 18.3203C11.789 18.4778 11.553 18.4538 11.3075 18.452C11.2399 18.4523 11.2399 18.4523 11.1709 18.4525C11.0222 18.4528 10.8735 18.4523 10.7248 18.4517C10.6214 18.4517 10.518 18.4517 10.4146 18.4517C10.1979 18.4518 9.98132 18.4514 9.7647 18.4506C9.51449 18.4498 9.26429 18.4497 9.01409 18.4499C8.77302 18.4501 8.53196 18.4499 8.2909 18.4495C8.18846 18.4493 8.08603 18.4493 7.9836 18.4493C7.84053 18.4494 7.69747 18.4489 7.55441 18.4482C7.49081 18.4484 7.49081 18.4484 7.42593 18.4485C7.36737 18.4481 7.36737 18.4481 7.30762 18.4477C7.25693 18.4476 7.25693 18.4476 7.20521 18.4474C7.09194 18.4357 7.01471 18.4131 6.91393 18.3594C6.54645 17.9 6.75768 17.1898 6.75768 16.6016Z"
        fill="#4B5563"
      />
      <path
        d="M7.65625 19.1016C8.81641 19.1016 9.97656 19.1016 11.1719 19.1016C11.1266 19.5094 11.1266 19.5094 11.084 19.6606C11.0757 19.6919 11.0675 19.7232 11.059 19.7554C10.9995 19.8766 10.933 19.9258 10.8203 20C10.6914 20.0201 10.6914 20.0201 10.5431 20.0208C10.5159 20.0212 10.4888 20.0215 10.4608 20.0219C10.3715 20.0227 10.2822 20.0225 10.1929 20.0221C10.1306 20.0223 10.0683 20.0226 10.0059 20.0229C9.87551 20.0233 9.7451 20.0231 9.61468 20.0225C9.44771 20.0218 9.2808 20.0228 9.11385 20.0241C8.98523 20.025 8.85662 20.0249 8.728 20.0246C8.66645 20.0246 8.6049 20.0249 8.54336 20.0254C8.45723 20.0261 8.37119 20.0255 8.28506 20.0247C8.23612 20.0246 8.18718 20.0246 8.13676 20.0245C7.97219 19.9932 7.91561 19.9342 7.8125 19.8047C7.77442 19.7023 7.74589 19.612 7.72217 19.5068C7.7156 19.4808 7.70903 19.4547 7.70226 19.4278C7.67493 19.3163 7.65625 19.2168 7.65625 19.1016Z"
        fill="#4B5563"
      />
    </g>
    <defs>
      <clipPath id="clip0_2317_3993">
        <rect width="20" height="20" fill="white" />
      </clipPath>
    </defs>
  </symbol>

  <symbol
    id="implement"
    width="18"
    height="18"
    viewBox="0 0 18 18"
    fill="none"
    xmlns="http://www.w3.org/2000/svg"
  >
    <path
      d="M8.375 3.44745C8.375 3.15148 8.21996 2.88397 8.04066 2.6485C7.85659 2.40675 7.75 2.12 7.75 1.8125C7.75 0.949555 8.58947 0.25 9.625 0.25C10.6605 0.25 11.5 0.949555 11.5 1.8125C11.5 2.12 11.3934 2.40675 11.2093 2.6485C11.03 2.88397 10.875 3.15149 10.875 3.44745C10.875 3.72441 11.1064 3.9455 11.3829 3.929C12.9751 3.83399 14.5415 3.6444 16.0768 3.36582C16.2458 3.33516 16.4199 3.37537 16.5583 3.47701C16.6967 3.57864 16.7872 3.73275 16.8086 3.90314C16.9952 5.39437 17.1011 6.91052 17.1216 8.44704C17.1256 8.75235 16.8778 8.99991 16.5724 9C16.2765 9 16.009 8.84496 15.7735 8.66566C15.5317 8.48159 15.245 8.375 14.9375 8.375C14.0746 8.375 13.375 9.21447 13.375 10.25C13.375 11.2855 14.0746 12.125 14.9375 12.125C15.245 12.125 15.5317 12.0184 15.7735 11.8343C16.009 11.655 16.2765 11.5 16.5724 11.5C16.8311 11.5 17.0365 11.7181 17.0179 11.9761C16.919 13.3415 16.7526 14.6884 16.522 16.0134C16.4767 16.2733 16.2732 16.4768 16.0134 16.522C14.4974 16.7858 12.9528 16.9656 11.3846 17.0564C11.1071 17.0724 10.875 16.8504 10.875 16.5724C10.875 16.2765 11.03 16.009 11.2093 15.7735C11.3934 15.5318 11.5 15.245 11.5 14.9375C11.5 14.0746 10.6605 13.375 9.625 13.375C8.58947 13.375 7.75 14.0746 7.75 14.9375C7.75 15.245 7.85659 15.5318 8.04066 15.7735C8.21996 16.009 8.375 16.2765 8.375 16.5724C8.375 16.8738 8.1283 17.1171 7.8271 17.1086C6.50252 17.071 5.19365 16.97 3.90344 16.8085C3.73305 16.7871 3.57894 16.6966 3.47731 16.5582C3.37567 16.4198 3.33546 16.2457 3.36612 16.0767C3.61019 14.7317 3.78596 13.3628 3.88966 11.9736C3.90882 11.7171 3.70469 11.5 3.44745 11.5C3.15148 11.5 2.88397 11.655 2.6485 11.8343C2.40675 12.0184 2.12 12.125 1.8125 12.125C0.949555 12.125 0.25 11.2855 0.25 10.25C0.25 9.21447 0.949555 8.375 1.8125 8.375C2.12 8.375 2.40675 8.48159 2.6485 8.66566C2.88397 8.84496 3.15149 9 3.44745 9C3.75275 9 4.00065 8.75248 3.99645 8.44721C3.97778 7.09037 3.89052 5.75022 3.73799 4.43024C3.71609 4.24067 3.78198 4.05149 3.91692 3.91655C4.05185 3.78162 4.24104 3.71572 4.4306 3.73763C5.54918 3.86688 6.68217 3.94927 7.82755 3.98276C8.12846 3.99156 8.375 3.74848 8.375 3.44745Z"
      fill="#4B5563"
    />
  </symbol>
</svg>
