<svg xmlns="http://www.w3.org/2000/svg" width="24" height="24" viewBox="0 0 24 24" fill="none">
    <g clip-path="url(#clip0_2360_33023)">
    <path d="M17.1211 8.7714C17.4512 9.11655 17.5678 9.46255 17.6373 9.92697C17.6719 10.078 17.6861 10.1337 17.8125 10.2187C17.9427 10.2581 18.0621 10.2722 18.1977 10.2752C18.2362 10.2761 18.2746 10.277 18.3143 10.278C18.3553 10.2788 18.3964 10.2796 18.4387 10.2804C18.4811 10.2813 18.5235 10.2823 18.5672 10.2833C18.7023 10.2864 18.8375 10.2891 18.9727 10.2919C19.0644 10.2939 19.1561 10.296 19.2479 10.298C19.4725 10.3031 19.6972 10.3078 19.9219 10.3124C19.7789 12.2735 19.1221 14.0727 17.8125 15.5624C17.7739 15.6067 17.7353 15.651 17.6955 15.6966C17.4675 15.9531 17.2354 16.1904 16.9688 16.4062C16.9222 16.444 16.8756 16.4819 16.8276 16.521C16.5587 16.7368 16.2856 16.9423 16.0011 17.1371C15.2237 17.6707 14.9033 18.2144 14.5781 19.1249C13.6345 19.1249 12.6909 19.1249 11.7188 19.1249C11.7188 18.3979 11.7188 17.6708 11.7188 16.9218C11.9972 16.829 11.9972 16.829 12.2812 16.7343C12.4313 16.6431 12.5656 16.5586 12.7031 16.453C12.7423 16.4242 12.7814 16.3953 12.8218 16.3655C13.2154 16.0255 13.4706 15.4358 13.5095 14.9206C13.5203 14.2594 13.341 13.6782 12.8906 13.1835C12.5606 12.8714 12.1449 12.7045 11.7188 12.5624C11.7188 11.8199 11.7188 11.0774 11.7188 10.3124C11.9089 10.3101 12.0991 10.3078 12.295 10.3055C12.4469 10.3034 12.5988 10.3012 12.7508 10.2989C12.911 10.2966 13.0712 10.2944 13.2314 10.2926C13.4154 10.2906 13.5993 10.2878 13.7833 10.2849C13.8405 10.2844 13.8977 10.2839 13.9567 10.2833C14.0102 10.2824 14.0637 10.2814 14.1187 10.2805C14.1657 10.2799 14.2126 10.2792 14.261 10.2786C14.399 10.2647 14.5008 10.2329 14.625 10.1718C14.7255 10.0308 14.7367 9.88693 14.7568 9.71768C14.8283 9.27227 15.0132 8.98891 15.3607 8.70291C15.8997 8.31372 16.5903 8.42433 17.1211 8.7714Z" fill="white"/>
    <path d="M2.71875 10.3125C3.22922 10.3125 3.73969 10.3125 4.26562 10.3125C4.3275 10.4981 4.38937 10.6838 4.45312 10.875C4.79031 11.4304 5.20753 11.7943 5.8244 12.0053C6.02518 12.0528 6.20765 12.063 6.41309 12.0615C6.45037 12.0613 6.48765 12.061 6.52606 12.0607C7.10858 12.0487 7.59903 11.8206 8.03174 11.4287C8.33708 11.0946 8.46965 10.7397 8.625 10.3125C9.3675 10.3125 10.11 10.3125 10.875 10.3125C10.8776 10.5977 10.8776 10.5977 10.8803 10.8887C10.8821 11.0407 10.884 11.1926 10.886 11.3445C10.8881 11.5047 10.89 11.6649 10.8912 11.8251C10.8927 12.0091 10.8953 12.1931 10.8979 12.377C10.8983 12.4629 10.8983 12.4629 10.8988 12.5505C10.8997 12.6039 10.9007 12.6574 10.9016 12.7125C10.9021 12.7594 10.9026 12.8064 10.9032 12.8548C10.925 13.0061 10.974 13.0952 11.0625 13.2188C11.2054 13.3173 11.3434 13.3288 11.5137 13.3477C11.8973 13.4085 12.1975 13.5634 12.4424 13.8691C12.7035 14.2627 12.7509 14.6213 12.7031 15.0938C12.6139 15.45 12.3837 15.7566 12.0818 15.9628C11.8214 16.1058 11.5758 16.1598 11.2811 16.1882C11.1263 16.2261 11.0676 16.2832 10.9688 16.4062C10.9212 16.549 10.9146 16.6499 10.9123 16.7995C10.9113 16.8518 10.9104 16.9042 10.9094 16.9581C10.9086 17.013 10.9078 17.068 10.907 17.1246C10.9057 17.2004 10.9057 17.2004 10.9044 17.2777C10.9012 17.4667 10.8984 17.6557 10.8955 17.8447C10.8887 18.2672 10.882 18.6897 10.875 19.125C9.93141 19.125 8.98781 19.125 8.01562 19.125C7.93828 18.893 7.86094 18.6609 7.78125 18.4219C7.48319 17.8355 7.07361 17.4197 6.52368 17.0665C6.04435 16.7513 5.61773 16.379 5.20312 15.9844C5.14992 15.9357 5.14992 15.9357 5.09564 15.886C4.54688 15.3673 4.11042 14.7229 3.75 14.0625C3.73389 14.0331 3.71778 14.0037 3.70118 13.9734C3.09506 12.8525 2.71875 11.5903 2.71875 10.3125Z" fill="white"/>
    <path d="M10.8748 1.26562C10.8748 1.77609 10.8748 2.28656 10.8748 2.8125C10.6737 2.88984 10.4726 2.96719 10.2654 3.04688C9.71089 3.3927 9.30286 3.86397 9.15212 4.51007C9.04765 5.10098 9.11593 5.69394 9.44674 6.2049C9.82763 6.7194 10.262 6.9968 10.8748 7.17188C10.8748 7.92984 10.8748 8.68781 10.8748 9.46875C10.6773 9.46996 10.4798 9.47117 10.2764 9.47241C10.1188 9.4739 9.96126 9.47557 9.8037 9.47737C9.63743 9.47921 9.47118 9.48073 9.3049 9.48145C9.11407 9.4823 8.92327 9.48464 8.73245 9.48706C8.67292 9.48712 8.61339 9.48718 8.55206 9.48724C8.49671 9.48816 8.44135 9.48908 8.38432 9.49004C8.31125 9.49066 8.31125 9.49066 8.2367 9.4913C8.0772 9.52172 8.02255 9.57871 7.92166 9.70312C7.86225 9.82195 7.85454 9.92881 7.8367 10.0605C7.76655 10.486 7.61213 10.7957 7.26541 11.0625C6.8558 11.2908 6.45796 11.3634 5.99978 11.2471C5.64548 11.1292 5.34271 10.896 5.15493 10.5709C5.07291 10.3599 5.04495 10.1367 5.01394 9.91351C4.95732 9.70965 4.90256 9.64373 4.73416 9.51562C4.57961 9.48108 4.42823 9.4818 4.27035 9.48248C4.20374 9.48142 4.20374 9.48142 4.13578 9.48034C3.99441 9.47832 3.85308 9.47791 3.71169 9.47754C3.61565 9.47645 3.51962 9.47527 3.42358 9.47397C3.18856 9.47102 2.95357 9.46951 2.71853 9.46875C2.71257 9.153 2.72009 8.84892 2.77127 8.53711C2.77742 8.49946 2.78357 8.46181 2.78991 8.42302C3.08101 6.7566 3.84175 5.20359 5.01541 3.98438C5.03997 3.95835 5.06453 3.93233 5.08984 3.90553C6.55638 2.3571 8.7097 1.26562 10.8748 1.26562Z" fill="white"/>
    <path d="M13.1247 0.000128827C13.4517 -0.00574518 13.7664 -0.0026246 14.0886 0.0557929C14.1241 0.0620657 14.1595 0.0683386 14.1961 0.0748015C16.4833 0.496925 18.5019 1.78709 19.8278 3.70325C19.9802 3.93118 20.1184 4.16581 20.2497 4.40638C20.2658 4.43577 20.2819 4.46516 20.2985 4.49544C20.9047 5.61638 21.281 6.87861 21.281 8.15638C20.7705 8.15638 20.26 8.15638 19.7341 8.15638C19.6722 7.97075 19.6103 7.78513 19.5466 7.59388C19.4565 7.43834 19.3759 7.30992 19.2653 7.172C19.2395 7.13974 19.2136 7.10747 19.187 7.07423C18.8312 6.67742 18.2945 6.42398 17.7653 6.37513C17.7314 6.37187 17.6975 6.3686 17.6626 6.36524C17.0767 6.33799 16.5129 6.57036 16.0691 6.94056C15.7 7.28931 15.5338 7.67908 15.3747 8.15638C14.6322 8.15638 13.8897 8.15638 13.1247 8.15638C13.1224 7.96677 13.1201 7.77715 13.1178 7.58179C13.1157 7.43012 13.1135 7.27845 13.1113 7.12678C13.1089 6.96695 13.1067 6.80711 13.1049 6.64727C13.1029 6.46365 13.1001 6.28005 13.0973 6.09644C13.0967 6.03945 13.0962 5.98246 13.0956 5.92374C13.0947 5.87027 13.0937 5.81679 13.0928 5.7617C13.0922 5.71486 13.0915 5.66802 13.0909 5.61976C13.0764 5.47003 13.0365 5.34384 12.9841 5.20325C12.9343 5.19528 12.8845 5.1873 12.8332 5.17908C12.3516 5.09812 11.964 5.02715 11.6247 4.64075C11.5754 4.5871 11.5754 4.5871 11.5251 4.53236C11.2723 4.17001 11.2529 3.80712 11.2966 3.37513C11.3902 3.0013 11.649 2.66493 11.9792 2.46693C12.2444 2.34158 12.4958 2.27979 12.784 2.2342C12.9058 2.19876 12.9536 2.16202 13.031 2.06263C13.0729 1.93685 13.0847 1.85912 13.0875 1.72962C13.0884 1.69115 13.0893 1.65268 13.0903 1.61305C13.0911 1.57174 13.0919 1.53043 13.0927 1.48786C13.0936 1.4454 13.0946 1.40294 13.0956 1.3592C13.0987 1.22356 13.1015 1.08792 13.1042 0.952277C13.1062 0.860327 13.1083 0.768378 13.1103 0.676429C13.1154 0.451 13.1201 0.225567 13.1247 0.000128827Z" fill="white"/>
    <path d="M8.1096 19.9219C10.2288 19.9219 12.348 19.9219 14.5315 19.9219C14.5315 21.6562 14.5315 21.6562 14.3909 21.9844C14.1472 22.1734 13.8639 22.1445 13.5693 22.1425C13.4882 22.1427 13.4882 22.1427 13.4055 22.143C13.227 22.1434 13.0486 22.1427 12.8702 22.142C12.7461 22.142 12.622 22.142 12.4979 22.1421C12.2379 22.1421 11.978 22.1416 11.718 22.1408C11.4178 22.1398 11.1175 22.1396 10.8173 22.1399C10.528 22.1402 10.2387 22.1399 9.94947 22.1394C9.82655 22.1392 9.70363 22.1391 9.58071 22.1392C9.40903 22.1392 9.23736 22.1386 9.06568 22.1379C8.98937 22.138 8.98937 22.138 8.91151 22.1382C8.84123 22.1377 8.84123 22.1377 8.76954 22.1372C8.70871 22.1371 8.70871 22.1371 8.64665 22.1369C8.51072 22.1228 8.41804 22.0957 8.2971 22.0312C7.85613 21.48 8.1096 20.6278 8.1096 19.9219Z" fill="white"/>
    <path d="M9.1875 22.9219C10.5797 22.9219 11.9719 22.9219 13.4062 22.9219C13.3519 23.4113 13.3519 23.4113 13.3008 23.5928C13.2909 23.6303 13.281 23.6678 13.2708 23.7065C13.1994 23.8519 13.1196 23.911 12.9844 24C12.8296 24.0241 12.8296 24.0241 12.6517 24.025C12.6191 24.0254 12.5865 24.0258 12.553 24.0262C12.4458 24.0273 12.3386 24.027 12.2314 24.0266C12.1567 24.0268 12.0819 24.0271 12.0071 24.0274C11.8506 24.0279 11.6941 24.0277 11.5376 24.027C11.3373 24.0262 11.137 24.0273 10.9366 24.029C10.7823 24.03 10.6279 24.0299 10.4736 24.0295C10.3997 24.0295 10.3259 24.0298 10.252 24.0305C10.1487 24.0313 10.0454 24.0306 9.94208 24.0296C9.88335 24.0295 9.82462 24.0295 9.76411 24.0294C9.56662 23.9919 9.49873 23.921 9.375 23.7656C9.3293 23.6428 9.29507 23.5344 9.2666 23.4082C9.25872 23.3769 9.25083 23.3456 9.24271 23.3134C9.20992 23.1795 9.1875 23.0601 9.1875 22.9219Z" fill="white"/>
    </g>
    <defs>
    <clipPath id="clip0_2360_33023">
    <rect width="24" height="24" fill="white"/>
    </clipPath>
    </defs>
    </svg>