<svg>
  <symbol
    id="card"
    width="14"
    height="13"
    viewBox="0 0 14 13"
    fill="none"
    xmlns="http://www.w3.org/2000/svg"
  >
    <path
      d="M0.600098 1.69999C0.600098 1.48782 0.684383 1.28434 0.834412 1.13431C0.984441 0.984279 1.18792 0.899994 1.4001 0.899994H3.0001C3.21227 0.899994 3.41575 0.984279 3.56578 1.13431C3.71581 1.28434 3.8001 1.48782 3.8001 1.69999V11.3C3.8001 11.5122 3.71581 11.7157 3.56578 11.8657C3.41575 12.0157 3.21227 12.1 3.0001 12.1H1.4001C1.18792 12.1 0.984441 12.0157 0.834412 11.8657C0.684383 11.7157 0.600098 11.5122 0.600098 11.3V1.69999ZM5.4001 1.69999C5.4001 1.48782 5.48438 1.28434 5.63441 1.13431C5.78444 0.984279 5.98792 0.899994 6.2001 0.899994H7.8001C8.01227 0.899994 8.21575 0.984279 8.36578 1.13431C8.51581 1.28434 8.6001 1.48782 8.6001 1.69999V11.3C8.6001 11.5122 8.51581 11.7157 8.36578 11.8657C8.21575 12.0157 8.01227 12.1 7.8001 12.1H6.2001C5.98792 12.1 5.78444 12.0157 5.63441 11.8657C5.48438 11.7157 5.4001 11.5122 5.4001 11.3V1.69999ZM11.0001 0.899994C10.7879 0.899994 10.5844 0.984279 10.4344 1.13431C10.2844 1.28434 10.2001 1.48782 10.2001 1.69999V11.3C10.2001 11.5122 10.2844 11.7157 10.4344 11.8657C10.5844 12.0157 10.7879 12.1 11.0001 12.1H12.6001C12.8123 12.1 13.0158 12.0157 13.1658 11.8657C13.3158 11.7157 13.4001 11.5122 13.4001 11.3V1.69999C13.4001 1.48782 13.3158 1.28434 13.1658 1.13431C13.0158 0.984279 12.8123 0.899994 12.6001 0.899994H11.0001Z"
      fill="#4B5563"
    />
  </symbol>

  <symbol
    id="table"
    width="16"
    height="13"
    viewBox="0 0 16 13"
    fill="none"
    xmlns="http://www.w3.org/2000/svg"
  >
    <path
      fill-rule="evenodd"
      clip-rule="evenodd"
      d="M0.791992 2.69199C0.791992 1.69787 1.60589 0.899994 2.6 0.899994H13.4C14.3941 0.899994 15.2 1.70588 15.2 2.69999L15.208 10.3C15.208 11.2941 14.4021 12.1 13.408 12.1C10.3413 12.1 5.67467 12.1 2.60801 12.1C1.6139 12.1 0.8 11.2861 0.8 10.292L0.791992 2.69199ZM7.4 10.308V9.808C7.4 9.47663 7.13137 9.208 6.8 9.208H2.6C2.26863 9.208 2 9.47663 2 9.808V10.3C2 10.6314 2.26863 10.9 2.6 10.9H6.89827C7.18289 10.8531 7.4 10.6059 7.4 10.308ZM8.6 10.308C8.6 10.6059 8.81711 10.8531 9.10173 10.9H13.4C13.7314 10.9 14 10.6314 14 10.3V9.808C14 9.47663 13.7314 9.208 13.4 9.208H9.2C8.86863 9.208 8.6 9.47663 8.6 9.808V10.308ZM14 7.404V6.904C14 6.57263 13.7314 6.304 13.4 6.304H9.2C8.86863 6.304 8.6 6.57263 8.6 6.904V7.404C8.6 7.73537 8.86863 8.004 9.2 8.004H13.4C13.7314 8.004 14 7.73537 14 7.404ZM7.4 7.404V6.904C7.4 6.57263 7.13137 6.304 6.8 6.304H2.6C2.26863 6.304 2 6.57263 2 6.904V7.404C2 7.73537 2.26863 8.004 2.6 8.004H6.8C7.13137 8.004 7.4 7.73537 7.4 7.404ZM14 4.49999V3.99999C14 3.66862 13.7314 3.39999 13.4 3.39999H9.2C8.86863 3.39999 8.6 3.66862 8.6 3.99999V4.49999C8.6 4.83136 8.86863 5.09999 9.2 5.09999H13.4C13.7314 5.09999 14 4.83136 14 4.49999ZM7.4 4.49999V3.99999C7.4 3.66862 7.13137 3.39999 6.8 3.39999H2.6C2.26863 3.39999 2 3.66862 2 3.99999V4.49999C2 4.83136 2.26863 5.09999 2.6 5.09999H6.8C7.13137 5.09999 7.4 4.83136 7.4 4.49999Z"
      fill="#4B5563"
    />
  </symbol>

  <symbol
    id="graph"
    width="16"
    height="17"
    viewBox="0 0 16 17"
    fill="none"
    xmlns="http://www.w3.org/2000/svg"
  >
    <path
      d="M8.07546 0.673208C8.36101 0.881876 8.60773 1.15558 8.67662 1.51132C8.68163 1.5471 8.68664 1.58288 8.6918 1.61974C8.69698 1.65595 8.70216 1.69216 8.7075 1.72946C8.71122 1.75686 8.71494 1.78426 8.71877 1.81249C9.21014 1.91854 9.70154 2.02449 10.193 2.1303C10.4211 2.17943 10.6493 2.2286 10.8774 2.27785C11.0762 2.32077 11.2751 2.36363 11.4739 2.4064C11.5792 2.42906 11.6845 2.45175 11.7898 2.47452C11.9073 2.49992 12.0248 2.52517 12.1423 2.55041C12.1773 2.558 12.2123 2.5656 12.2484 2.57343C12.2803 2.58026 12.3123 2.5871 12.3452 2.59415C12.373 2.60014 12.4008 2.60613 12.4294 2.6123C12.5034 2.62776 12.5034 2.62776 12.5938 2.62499C12.6044 2.60344 12.615 2.58189 12.626 2.55968C12.8625 2.10115 13.2023 1.80425 13.6875 1.62499C14.1409 1.48482 14.6358 1.54276 15.0547 1.75585C15.48 2.00079 15.7546 2.34505 15.9063 2.81249C16.031 3.33014 15.9671 3.82228 15.6875 4.28124C15.4778 4.60639 15.1734 4.83184 14.8125 4.96874C14.7816 4.96874 14.7506 4.96874 14.7188 4.96874C14.7233 5.00498 14.7278 5.04122 14.7325 5.07856C14.8359 5.90662 14.9342 6.73517 15.0274 7.56444C15.0298 7.5863 15.0323 7.60816 15.0348 7.63068C15.065 7.8996 15.0951 8.16854 15.125 8.43749C15.1543 8.44192 15.1836 8.44635 15.2138 8.45091C15.4503 8.49364 15.6504 8.6533 15.7978 8.83825C15.9781 9.10467 16.0019 9.37045 15.9688 9.68749C15.9026 9.9783 15.7252 10.185 15.4864 10.3555C15.2427 10.5069 14.982 10.5362 14.7007 10.4855C14.4216 10.4131 14.1891 10.2423 14.0313 9.99999C13.8782 9.70387 13.8536 9.38857 13.9531 9.0703C14.0662 8.7966 14.2487 8.64048 14.5 8.49999C14.46 8.06434 14.4148 7.6296 14.3642 7.19506C14.3573 7.13597 14.3505 7.07688 14.3436 7.01778C14.3295 6.89557 14.3153 6.77336 14.301 6.65116C14.2828 6.49451 14.2646 6.33783 14.2466 6.18116C14.2326 6.05987 14.2185 5.93859 14.2044 5.81732C14.1976 5.75949 14.1909 5.70165 14.1843 5.64381C14.175 5.56359 14.1657 5.48338 14.1563 5.40317C14.1536 5.37941 14.1508 5.35565 14.148 5.33117C14.1369 5.23706 14.1238 5.1527 14.0938 5.06249C14.0711 5.05979 14.0483 5.05709 14.0249 5.05431C13.6905 5.00758 13.4143 4.88765 13.125 4.71874C13.1112 4.73179 13.0973 4.74485 13.0831 4.7583C13.019 4.81873 12.9548 4.87909 12.8906 4.93944C12.8689 4.95997 12.8471 4.98049 12.8247 5.00164C12.6966 5.12205 12.5665 5.23954 12.4338 5.35481C12.3462 5.43147 12.261 5.51054 12.1758 5.58983C12.0301 5.72495 11.8832 5.85868 11.7353 5.99132C11.6459 6.07181 11.5573 6.15302 11.4688 6.23437C11.3296 6.36219 11.1896 6.48893 11.049 6.6151C10.9586 6.69666 10.8689 6.77893 10.7793 6.86132C10.6252 7.00299 10.4696 7.14283 10.3125 7.28124C10.3288 7.31 10.345 7.33876 10.3617 7.3684C10.7344 8.04019 10.925 8.79374 10.7285 9.55858C10.6143 9.94283 10.4305 10.3057 10.1875 10.625C10.2142 10.6514 10.2142 10.6514 10.2414 10.6784C10.3232 10.7595 10.4048 10.8407 10.4864 10.9219C10.5143 10.9496 10.5423 10.9773 10.5711 11.0058C10.7121 11.1463 10.848 11.2882 10.9774 11.4393C11.0785 11.5533 11.1882 11.6589 11.2969 11.7656C11.4257 11.8922 11.5532 12.0182 11.6709 12.1553C11.7941 12.2985 11.9279 12.4301 12.0625 12.5625C12.2184 12.7158 12.3695 12.8703 12.512 13.0361C12.587 13.1216 12.667 13.2016 12.7481 13.2812C12.7712 13.3041 12.7712 13.3041 12.7948 13.3275C12.8319 13.3642 12.8691 13.4009 12.9063 13.4375C12.9233 13.4314 12.9404 13.4254 12.9579 13.4192C13.3973 13.2674 13.8013 13.2128 14.2396 13.4131C14.5855 13.6061 14.8431 13.893 14.9548 14.2784C15.0344 14.6511 14.9858 15.0484 14.7886 15.3717C14.5846 15.6716 14.317 15.8835 13.9629 15.9766C13.5629 16.052 13.1748 16.0001 12.8321 15.7734C12.5473 15.5556 12.3942 15.3076 12.2813 14.9687C12.28 14.8958 12.2799 14.8229 12.2813 14.75C12.2407 14.7443 12.2 14.7387 12.1582 14.7329C11.9655 14.7061 11.7728 14.6792 11.5801 14.6523C11.5277 14.645 11.5277 14.645 11.4742 14.6376C10.9231 14.5606 10.3725 14.4814 9.82217 14.3993C9.78399 14.3937 9.78399 14.3937 9.74503 14.3879C9.69787 14.3809 9.65072 14.3739 9.60358 14.3667C9.51588 14.3538 9.43259 14.3437 9.34377 14.3437C9.29965 14.3917 9.29965 14.3917 9.25979 14.4551C9.10902 14.665 8.92106 14.8616 8.65627 14.9062C8.28428 14.9355 8.00813 14.9216 7.71096 14.6777C7.47148 14.4525 7.34764 14.2077 7.33205 13.873C7.3623 13.5555 7.47652 13.2924 7.70705 13.0703C7.93971 12.8803 8.19707 12.8206 8.4938 12.8321C8.81233 12.8691 9.04076 13.0084 9.25002 13.25C9.35359 13.4072 9.40999 13.53 9.40627 13.7187C9.4469 13.7244 9.48752 13.73 9.52937 13.7358C9.72207 13.7626 9.91476 13.7895 10.1074 13.8164C10.1599 13.8237 10.1599 13.8237 10.2134 13.8312C10.7644 13.9081 11.3151 13.9873 11.8654 14.0694C11.9036 14.0751 11.9036 14.0751 11.9425 14.0808C11.9897 14.0878 12.0368 14.0949 12.084 14.102C12.1717 14.115 12.255 14.125 12.3438 14.125C12.3979 14.0401 12.3979 14.0401 12.4375 13.9375C12.4021 13.7954 12.3151 13.7094 12.2125 13.6107C12.1965 13.5949 12.1805 13.579 12.1639 13.5627C12.1128 13.5123 12.0613 13.4622 12.0098 13.4121C11.9425 13.3463 11.8753 13.2803 11.8083 13.2142C11.792 13.1982 11.7757 13.1822 11.7589 13.1657C11.6536 13.0615 11.555 12.9538 11.459 12.8411C11.3537 12.7216 11.2385 12.6116 11.125 12.5C10.9707 12.3482 10.8215 12.1953 10.6804 12.0311C10.5787 11.9166 10.4686 11.8104 10.3594 11.7031C10.2275 11.5735 10.0978 11.4443 9.97756 11.3037C9.89851 11.2115 9.81746 11.1343 9.71877 11.0625C9.6938 11.0787 9.66882 11.095 9.64309 11.1117C8.96591 11.5417 8.25966 11.6855 7.46877 11.5312C7.05171 11.4326 6.69449 11.24 6.34377 11C6.31763 11.0263 6.29149 11.0526 6.26455 11.0797C6.16655 11.1783 6.06845 11.2767 5.97031 11.3752C5.92804 11.4176 5.88579 11.4601 5.84357 11.5025C5.78252 11.564 5.72136 11.6253 5.66018 11.6866C5.64165 11.7053 5.62311 11.724 5.60402 11.7433C5.51017 11.8371 5.41462 11.9272 5.31411 12.014C5.18313 12.1272 5.06113 12.2479 4.93948 12.3711C4.91684 12.3938 4.8942 12.4166 4.87088 12.44C4.79927 12.512 4.72776 12.5841 4.65627 12.6562C4.56196 12.7514 4.46755 12.8464 4.37307 12.9414C4.3519 12.9628 4.33074 12.9842 4.30893 13.0063C4.18923 13.1266 4.06594 13.24 3.93747 13.3509C3.82887 13.4471 3.72722 13.5502 3.62502 13.6532C3.60249 13.6758 3.57995 13.6983 3.55673 13.7216C3.48567 13.7928 3.41472 13.8642 3.34377 13.9355C3.29524 13.9842 3.24669 14.0329 3.19814 14.0816C3.07994 14.2001 2.96182 14.3188 2.84377 14.4375C2.85243 14.4609 2.86109 14.4842 2.87002 14.5083C2.88134 14.5391 2.89266 14.5698 2.90432 14.6016C2.91556 14.632 2.9268 14.6625 2.93838 14.6938C3.04877 15.0113 3.03958 15.3803 2.91836 15.6933C2.73403 16.0672 2.4554 16.329 2.06252 16.4687C1.76091 16.5544 1.35933 16.5425 1.07351 16.4164C0.689554 16.2002 0.439009 15.8879 0.312523 15.4687C0.245592 15.0903 0.290049 14.7083 0.506859 14.3846C0.704946 14.1279 0.915814 13.9643 1.21877 13.8437C1.2394 13.8437 1.26002 13.8437 1.28127 13.8437C1.27391 13.8098 1.27391 13.8098 1.26641 13.7751C1.25134 13.6945 1.24297 13.6177 1.23787 13.536C1.23599 13.5068 1.23412 13.4776 1.23219 13.4475C1.2303 13.4163 1.22841 13.3851 1.22646 13.3529C1.22443 13.3204 1.22239 13.2879 1.22029 13.2545C1.21601 13.1858 1.21179 13.1172 1.20761 13.0486C1.20124 12.944 1.19467 12.8395 1.18807 12.735C1.18393 12.6682 1.1798 12.6014 1.17568 12.5345C1.17373 12.5035 1.17178 12.4725 1.16977 12.4405C1.15965 12.2724 1.1543 12.1058 1.15627 11.9375C1.12791 11.9362 1.09955 11.9349 1.07034 11.9336C0.805691 11.8954 0.519524 11.7325 0.343773 11.5312C0.0785418 11.1758 -0.045363 10.8053 0.0176011 10.3594C0.0966047 9.99437 0.297763 9.68134 0.597679 9.46093C0.934529 9.25302 1.27317 9.23229 1.65627 9.24999C1.66645 9.22728 1.67663 9.20458 1.68712 9.18118C1.71813 9.11201 1.74914 9.04284 1.78015 8.97367C1.81635 8.89292 1.85251 8.81216 1.88866 8.73139C1.97566 8.53702 2.06284 8.34273 2.15096 8.14887C2.18869 8.06586 2.22629 7.98279 2.26388 7.89972C2.28195 7.85986 2.3001 7.82003 2.3183 7.78023C2.34375 7.72457 2.36898 7.6688 2.39419 7.61303C2.41584 7.56547 2.41584 7.56547 2.43793 7.51694C2.47443 7.43713 2.47443 7.43713 2.46877 7.34374C2.42087 7.29382 2.42087 7.29382 2.35744 7.24608C1.98107 6.92889 1.78334 6.51016 1.74111 6.02196C1.72807 5.54799 1.88802 5.09704 2.19729 4.73632C2.5288 4.39531 2.94453 4.1894 3.423 4.17835C3.96769 4.17393 4.37397 4.33351 4.77334 4.70788C5.1144 5.06312 5.2694 5.52744 5.25967 6.01378C5.21789 6.49557 5.03913 6.90411 4.68337 7.23986C4.30019 7.55048 3.90777 7.67384 3.41604 7.6621C3.38182 7.66168 3.3476 7.66125 3.31234 7.66082C3.22905 7.65973 3.1458 7.65819 3.06252 7.65624C2.77636 8.26864 2.49579 8.8834 2.21877 9.49999C2.24334 9.5243 2.26791 9.5486 2.29323 9.57364C2.58881 9.87212 2.72949 10.1922 2.7344 10.6094C2.73056 10.9642 2.64229 11.2314 2.40627 11.5C2.3906 11.5189 2.37493 11.5379 2.35879 11.5574C2.20756 11.7259 2.02009 11.8203 1.81252 11.9062C1.7919 11.9062 1.77127 11.9062 1.75002 11.9062C1.75159 11.9242 1.75315 11.9421 1.75477 11.9606C1.80701 12.5669 1.84226 13.1737 1.87502 13.7812C1.94009 13.8067 2.0052 13.8321 2.07034 13.8574C2.12472 13.8786 2.12472 13.8786 2.1802 13.9003C2.21355 13.9125 2.24691 13.9248 2.28127 13.9375C2.30156 13.9453 2.32185 13.9531 2.34276 13.9612C2.40855 13.9757 2.40855 13.9757 2.46445 13.9326C2.48396 13.9141 2.50348 13.8957 2.52358 13.8767C2.55628 13.8462 2.55628 13.8462 2.58964 13.815C2.61163 13.7936 2.63362 13.7721 2.65627 13.75C2.67653 13.7304 2.69679 13.7108 2.71766 13.6906C2.78046 13.6289 2.84246 13.5665 2.90432 13.5039C2.93827 13.4698 2.93827 13.4698 2.97292 13.4349C3.04453 13.363 3.11604 13.2909 3.18752 13.2187C3.28183 13.1236 3.37625 13.0286 3.47073 12.9336C3.49189 12.9122 3.51306 12.8907 3.53487 12.8687C3.65461 12.7483 3.77796 12.6349 3.90646 12.524C4.01449 12.4282 4.11536 12.3254 4.21682 12.2226C4.23946 12.1999 4.26209 12.1771 4.28542 12.1537C4.35703 12.0817 4.42854 12.0096 4.50002 11.9375C4.59433 11.8423 4.68875 11.7473 4.78323 11.6523C4.80439 11.6309 4.82556 11.6095 4.84737 11.5874C4.96883 11.4653 5.09389 11.3499 5.22428 11.2374C5.30008 11.171 5.37141 11.1009 5.44241 11.0294C5.4698 11.0019 5.49719 10.9744 5.52541 10.9461C5.56699 10.9041 5.56699 10.9041 5.6094 10.8613C5.63808 10.8325 5.66676 10.8037 5.69631 10.774C5.76637 10.7036 5.83636 10.6331 5.90627 10.5625C5.89629 10.5446 5.8863 10.5267 5.87601 10.5083C5.45177 9.74712 5.23203 8.99743 5.46084 8.13073C5.65866 7.44643 6.11178 6.85128 6.73415 6.49853C7.43081 6.13546 8.1917 6.05706 8.94216 6.28808C9.26208 6.39537 9.61374 6.55824 9.84377 6.81249C9.93869 6.7698 10.0066 6.7209 10.0816 6.64904C10.1026 6.62908 10.1236 6.60912 10.1453 6.58855C10.167 6.56771 10.1886 6.54686 10.211 6.52538C10.3579 6.38497 10.5062 6.24721 10.6598 6.11406C10.7475 6.03742 10.8327 5.95826 10.918 5.8789C11.0637 5.74378 11.2106 5.61005 11.3585 5.47741C11.4479 5.39692 11.5365 5.31571 11.625 5.23437C11.764 5.10666 11.9039 4.98002 12.0445 4.85399C12.1036 4.80055 12.1625 4.74687 12.2212 4.69286C12.2377 4.67769 12.2542 4.66253 12.2711 4.6469C12.3177 4.60399 12.3642 4.56103 12.4107 4.51806C12.5011 4.4365 12.5935 4.35859 12.6875 4.28124C12.6743 4.17893 12.6448 4.1018 12.5977 4.01171C12.5313 3.84374 12.5313 3.84374 12.4375 3.24999C11.1794 2.98187 9.92127 2.71374 8.62502 2.43749C8.58377 2.48905 8.54252 2.54062 8.50002 2.59374C8.21734 2.93573 7.94133 3.15968 7.48244 3.21679C7.07624 3.23563 6.72332 3.11067 6.41018 2.85155C6.14169 2.59571 6.00161 2.27823 5.98904 1.90945C5.98464 1.51537 6.08205 1.18823 6.35085 0.89208C6.8019 0.459645 7.53179 0.325714 8.07546 0.673208Z"
      fill="#4B5563"
    />
  </symbol>

  <symbol
    id="board"
    width="14"
    height="11"
    viewBox="0 0 14 11"
    fill="none"
    xmlns="http://www.w3.org/2000/svg"
  >
    <path
      d="M5 8.83334V2.16668M5 8.83334C5 9.18697 4.85952 9.5261 4.60948 9.77615C4.35943 10.0262 4.02029 10.1667 3.66667 10.1667H2.33333C1.97971 10.1667 1.64057 10.0262 1.39052 9.77615C1.14048 9.5261 1 9.18697 1 8.83334V2.16668C1 1.81305 1.14048 1.47392 1.39052 1.22387C1.64057 0.973819 1.97971 0.833344 2.33333 0.833344H3.66667C4.02029 0.833344 4.35943 0.973819 4.60948 1.22387C4.85952 1.47392 5 1.81305 5 2.16668M5 8.83334C5 9.18697 5.14048 9.5261 5.39052 9.77615C5.64057 10.0262 5.97971 10.1667 6.33333 10.1667H7.66667C8.02029 10.1667 8.35943 10.0262 8.60948 9.77615C8.85952 9.5261 9 9.18697 9 8.83334M5 2.16668C5 1.81305 5.14048 1.47392 5.39052 1.22387C5.64057 0.973819 5.97971 0.833344 6.33333 0.833344H7.66667C8.02029 0.833344 8.35943 0.973819 8.60948 1.22387C8.85952 1.47392 9 1.81305 9 2.16668M9 8.83334V2.16668M9 8.83334C9 9.18697 9.14048 9.5261 9.39052 9.77615C9.64057 10.0262 9.97971 10.1667 10.3333 10.1667H11.6667C12.0203 10.1667 12.3594 10.0262 12.6095 9.77615C12.8595 9.5261 13 9.18697 13 8.83334V2.16668C13 1.81305 12.8595 1.47392 12.6095 1.22387C12.3594 0.973819 12.0203 0.833344 11.6667 0.833344H10.3333C9.97971 0.833344 9.64057 0.973819 9.39052 1.22387C9.14048 1.47392 9 1.81305 9 2.16668"
      stroke="#4B5563"
      stroke-width="1.5"
      stroke-linecap="round"
      stroke-linejoin="round"
    />
  </symbol>

  <symbol
    id="timeline"
    width="14"
    height="15"
    viewBox="0 0 14 15"
    fill="none"
    xmlns="http://www.w3.org/2000/svg"
  >
    <path
      d="M7 4.83333V7.5L9 9.5M13 7.5C13 8.28793 12.8448 9.06815 12.5433 9.7961C12.2417 10.5241 11.7998 11.1855 11.2426 11.7426C10.6855 12.2998 10.0241 12.7417 9.2961 13.0433C8.56815 13.3448 7.78793 13.5 7 13.5C6.21207 13.5 5.43185 13.3448 4.7039 13.0433C3.97595 12.7417 3.31451 12.2998 2.75736 11.7426C2.20021 11.1855 1.75825 10.5241 1.45672 9.7961C1.15519 9.06815 1 8.28793 1 7.5C1 5.9087 1.63214 4.38258 2.75736 3.25736C3.88258 2.13214 5.4087 1.5 7 1.5C8.5913 1.5 10.1174 2.13214 11.2426 3.25736C12.3679 4.38258 13 5.9087 13 7.5Z"
      stroke="#4B5563"
      stroke-width="1.5"
      stroke-linecap="round"
      stroke-linejoin="round"
    />
  </symbol>

  <symbol
    id="text"
    width="14"
    height="13"
    viewBox="0 0 14 13"
    fill="none"
    xmlns="http://www.w3.org/2000/svg"
  >
    <path
      d="M1.6665 3.16666V1.16666H12.3332V3.16666M4.99984 11.8333H8.99984M6.99984 1.16666V11.8333"
      stroke="#4B5563"
      stroke-width="1.5"
      stroke-linecap="round"
      stroke-linejoin="round"
    />
  </symbol>

  <symbol
    class="goal"
    width="20"
    height="21"
    viewBox="0 0 20 21"
    fill="none"
    xmlns="http://www.w3.org/2000/svg"
  >
    <path
      d="M13.6768 9.33603C14.1484 10.2131 14.4173 11.2154 14.4173 12.279C14.4173 15.706 11.6336 18.4932 8.21082 18.4932C4.78807 18.4932 2.00436 15.706 2.00436 12.279C2.00436 8.85203 4.78925 6.06487 8.21082 6.06487C9.28728 6.06487 10.3001 6.33993 11.1832 6.82511L12.644 5.36247C11.3647 4.53731 9.8426 4.05802 8.21082 4.05802C3.68331 4.05802 0 7.7459 0 12.279C0 16.8121 3.68331 20.5 8.21082 20.5C12.7383 20.5 16.4216 16.8121 16.4216 12.279C16.4216 10.6594 15.9512 9.14715 15.1388 7.87221L13.6768 9.33603Z"
      fill="#EF518C"
    />
    <path
      d="M8.15187 9.86017L9.84378 8.16616C9.33798 7.96311 8.78737 7.85215 8.21082 7.85215C5.77257 7.85215 3.78943 9.83893 3.78943 12.279C3.78943 14.7191 5.77257 16.7059 8.21082 16.7059C10.6491 16.7059 12.6322 14.7203 12.6322 12.279C12.6322 11.7159 12.5273 11.1764 12.3339 10.6806L10.6243 12.3923C10.5654 13.6755 9.5054 14.699 8.21082 14.699C6.91623 14.699 5.79379 13.6142 5.79379 12.279C5.79379 10.9439 6.84667 9.89087 8.15187 9.86017Z"
      fill="#EF518C"
    />
    <path
      d="M18.0216 4.05094H16.4546V0.5L13.1793 3.77942V5.65996L8.20256 10.6428C7.74155 11.1044 7.74155 11.8517 8.20256 12.3121C8.66356 12.7736 9.40989 12.7736 9.86972 12.3121L14.8464 7.32918H16.7246L20 4.04976H18.0216V4.05094Z"
      fill="#EF518C"
    />
  </symbol>

<symbol
  id="dashboard"
  width="16"
  height="17"
  viewBox="0 0 16 17"
  fill="none"
  xmlns="http://www.w3.org/2000/svg"
>
  <path
    xmlns="http://www.w3.org/2000/svg"
    d="M10.666 5.83366V11.167M7.99935 7.83366V11.167M5.33268 9.83366V11.167M3.99935 13.8337H11.9993C12.353 13.8337 12.6921 13.6932 12.9422 13.4431C13.1922 13.1931 13.3327 12.8539 13.3327 12.5003V4.50033C13.3327 4.1467 13.1922 3.80756 12.9422 3.55752C12.6921 3.30747 12.353 3.16699 11.9993 3.16699H3.99935C3.64573 3.16699 3.30659 3.30747 3.05654 3.55752C2.80649 3.80756 2.66602 4.1467 2.66602 4.50033V12.5003C2.66602 12.8539 2.80649 13.1931 3.05654 13.4431C3.30659 13.6932 3.64573 13.8337 3.99935 13.8337Z"
    stroke="black"
    stroke-width="1.5"
    stroke-linecap="round"
    stroke-linejoin="round"
  />
</symbol>



<symbol
  id="organization"
  width="16"
  height="17"
  viewBox="0 0 16 17"
  fill="#000000"
  xmlns="http://www.w3.org/2000/svg"
>
<path d="M9.75 6.24774C9.75 3.90053 11.6528 1.99774 14 1.99774C16.3472 1.99774 18.25 3.90053 18.25 6.24774C18.25 8.33904 16.7395 10.0775 14.75 10.4318V13.5H19.25C20.4926 13.5 21.5 14.5074 21.5 15.75V17.566C23.4895 17.9202 25 19.6587 25 21.75C25 24.0972 23.0972 26 20.75 26C18.4028 26 16.5 24.0972 16.5 21.75C16.5 19.6587 18.0105 17.9202 20 17.566V15.75C20 15.3358 19.6642 15 19.25 15H8.75C8.33579 15 8 15.3358 8 15.75V17.566C9.98951 17.9202 11.5 19.6587 11.5 21.75C11.5 24.0972 9.59721 26 7.25 26C4.90279 26 3 24.0972 3 21.75C3 19.6587 4.51049 17.9202 6.5 17.566V15.75C6.5 14.5074 7.50736 13.5 8.75 13.5H13.25V10.4318C11.2605 10.0775 9.75 8.33903 9.75 6.24774Z" fill="#212121"/>
</symbol>


</svg>
