<svg
width="20"
height="20"
viewBox="0 0 20 20"
fill="none"
xmlns="http://www.w3.org/2000/svg"
>
<path
  d="M13 4.6V9.6274L15.707 11.1637C15.8 11.2471 15.8738 11.3463 15.9241 11.4555C15.9744 11.5647 16.0002 11.6818 16 11.8V13.6C16 13.8387 15.8946 14.0676 15.7071 14.2364C15.5196 14.4052 15.2652 14.5 15 14.5H11V17.2L10 19L9 17.2V14.5H5C4.73478 14.5 4.48043 14.4052 4.29289 14.2364C4.10536 14.0676 4 13.8387 4 13.6V11.8C3.99981 11.6818 4.0256 11.5647 4.07589 11.4555C4.12617 11.3463 4.19996 11.2471 4.293 11.1637L7 9.6274V4.6H5V2.8C5 2.32261 5.21071 1.86477 5.58579 1.52721C5.96086 1.18964 6.46957 1 7 1H13C13.5304 1 14.0391 1.18964 14.4142 1.52721C14.7893 1.86477 15 2.32261 15 2.8V4.6H13Z"
  fill="#4B5563"
/>
</svg>