<svg
            width="14"
            height="15"
            viewBox="0 0 14 15"
            fill="none"
            xmlns="http://www.w3.org/2000/svg"
          >
            <path
              d="M2.414 11.3693C3.81294 10.5786 5.39305 10.1642 7 10.1667C8.66667 10.1667 10.2313 10.6033 11.586 11.3693M9 6.16667C9 6.6971 8.78929 7.20581 8.41421 7.58088C8.03914 7.95595 7.53043 8.16667 7 8.16667C6.46957 8.16667 5.96086 7.95595 5.58579 7.58088C5.21071 7.20581 5 6.6971 5 6.16667C5 5.63623 5.21071 5.12753 5.58579 4.75245C5.96086 4.37738 6.46957 4.16667 7 4.16667C7.53043 4.16667 8.03914 4.37738 8.41421 4.75245C8.78929 5.12753 9 5.63623 9 6.16667ZM13 7.5C13 8.28793 12.8448 9.06815 12.5433 9.7961C12.2417 10.5241 11.7998 11.1855 11.2426 11.7426C10.6855 12.2998 10.0241 12.7417 9.2961 13.0433C8.56815 13.3448 7.78793 13.5 7 13.5C6.21207 13.5 5.43185 13.3448 4.7039 13.0433C3.97595 12.7417 3.31451 12.2998 2.75736 11.7426C2.20021 11.1855 1.75825 10.5241 1.45672 9.7961C1.15519 9.06815 1 8.28793 1 7.5C1 5.9087 1.63214 4.38258 2.75736 3.25736C3.88258 2.13214 5.4087 1.5 7 1.5C8.5913 1.5 10.1174 2.13214 11.2426 3.25736C12.3679 4.38258 13 5.9087 13 7.5Z"
              stroke="#6B7280"
              stroke-width="1.5"
              stroke-linecap="round"
              stroke-linejoin="round"
            />
          </svg>