<svg
            width="20"
            height="21"
            viewBox="0 0 20 21"
            fill="none"
            xmlns="http://www.w3.org/2000/svg"
          >
            <path
              d="M13.6768 9.33603C14.1484 10.2131 14.4173 11.2154 14.4173 12.279C14.4173 15.706 11.6336 18.4932 8.21082 18.4932C4.78807 18.4932 2.00436 15.706 2.00436 12.279C2.00436 8.85203 4.78925 6.06487 8.21082 6.06487C9.28728 6.06487 10.3001 6.33993 11.1832 6.82511L12.644 5.36247C11.3647 4.53731 9.8426 4.05802 8.21082 4.05802C3.68331 4.05802 0 7.7459 0 12.279C0 16.8121 3.68331 20.5 8.21082 20.5C12.7383 20.5 16.4216 16.8121 16.4216 12.279C16.4216 10.6594 15.9512 9.14715 15.1388 7.87221L13.6768 9.33603Z"
              fill="#4B5563"
            />
            <path
              d="M8.15187 9.86017L9.84378 8.16616C9.33798 7.96311 8.78737 7.85215 8.21082 7.85215C5.77257 7.85215 3.78943 9.83893 3.78943 12.279C3.78943 14.7191 5.77257 16.7059 8.21082 16.7059C10.6491 16.7059 12.6322 14.7203 12.6322 12.279C12.6322 11.7159 12.5273 11.1764 12.3339 10.6806L10.6243 12.3923C10.5654 13.6755 9.5054 14.699 8.21082 14.699C6.91623 14.699 5.79379 13.6142 5.79379 12.279C5.79379 10.9439 6.84667 9.89087 8.15187 9.86017Z"
              fill="#4B5563"
            />
            <path
              d="M18.0216 4.05094H16.4546V0.5L13.1793 3.77942V5.65996L8.20256 10.6428C7.74155 11.1044 7.74155 11.8517 8.20256 12.3121C8.66356 12.7736 9.40989 12.7736 9.86972 12.3121L14.8464 7.32918H16.7246L20 4.04976H18.0216V4.05094Z"
              fill="#4B5563"
            />
          </svg>