<svg
            width="14"
            height="13"
            viewBox="0 0 14 13"
            fill="none"
            xmlns="http://www.w3.org/2000/svg"
          >
            <path
              d="M7.5 7C7.5 7.27614 7.27614 7.5 7 7.5C6.72386 7.5 6.5 7.27614 6.5 7C6.5 6.72386 6.72386 6.5 7 6.5C7.27614 6.5 7.5 6.72386 7.5 7Z"
              fill="#6B7280"
            />
            <path
              d="M4 9C4.27614 9 4.5 8.77614 4.5 8.5C4.5 8.22386 4.27614 8 4 8C3.72386 8 3.5 8.22386 3.5 8.5C3.5 8.77614 3.72386 9 4 9Z"
              fill="#6B7280"
            />
            <path
              d="M4.5 10C4.5 10.2761 4.27614 10.5 4 10.5C3.72386 10.5 3.5 10.2761 3.5 10C3.5 9.72386 3.72386 9.5 4 9.5C4.27614 9.5 4.5 9.72386 4.5 10Z"
              fill="#6B7280"
            />
            <path
              d="M5.5 9C5.77614 9 6 8.77614 6 8.5C6 8.22386 5.77614 8 5.5 8C5.22386 8 5 8.22386 5 8.5C5 8.77614 5.22386 9 5.5 9Z"
              fill="#6B7280"
            />
            <path
              d="M6 10C6 10.2761 5.77614 10.5 5.5 10.5C5.22386 10.5 5 10.2761 5 10C5 9.72386 5.22386 9.5 5.5 9.5C5.77614 9.5 6 9.72386 6 10Z"
              fill="#6B7280"
            />
            <path
              d="M7 9C7.27614 9 7.5 8.77614 7.5 8.5C7.5 8.22386 7.27614 8 7 8C6.72386 8 6.5 8.22386 6.5 8.5C6.5 8.77614 6.72386 9 7 9Z"
              fill="#6B7280"
            />
            <path
              d="M7.5 10C7.5 10.2761 7.27614 10.5 7 10.5C6.72386 10.5 6.5 10.2761 6.5 10C6.5 9.72386 6.72386 9.5 7 9.5C7.27614 9.5 7.5 9.72386 7.5 10Z"
              fill="#6B7280"
            />
            <path
              d="M8.5 9C8.77614 9 9 8.77614 9 8.5C9 8.22386 8.77614 8 8.5 8C8.22386 8 8 8.22386 8 8.5C8 8.77614 8.22386 9 8.5 9Z"
              fill="#6B7280"
            />
            <path
              d="M9 10C9 10.2761 8.77614 10.5 8.5 10.5C8.22386 10.5 8 10.2761 8 10C8 9.72386 8.22386 9.5 8.5 9.5C8.77614 9.5 9 9.72386 9 10Z"
              fill="#6B7280"
            />
            <path
              d="M10 9C10.2761 9 10.5 8.77614 10.5 8.5C10.5 8.22386 10.2761 8 10 8C9.72386 8 9.5 8.22386 9.5 8.5C9.5 8.77614 9.72386 9 10 9Z"
              fill="#6B7280"
            />
            <path
              d="M9 7C9 7.27614 8.77614 7.5 8.5 7.5C8.22386 7.5 8 7.27614 8 7C8 6.72386 8.22386 6.5 8.5 6.5C8.77614 6.5 9 6.72386 9 7Z"
              fill="#6B7280"
            />
            <path
              d="M10 7.5C10.2761 7.5 10.5 7.27614 10.5 7C10.5 6.72386 10.2761 6.5 10 6.5C9.72386 6.5 9.5 6.72386 9.5 7C9.5 7.27614 9.72386 7.5 10 7.5Z"
              fill="#6B7280"
            />
            <path
              fill-rule="evenodd"
              clip-rule="evenodd"
              d="M3.5 0C3.77614 0 4 0.223858 4 0.5V1.5H10V0.5C10 0.223858 10.2239 0 10.5 0C10.7761 0 11 0.223858 11 0.5V1.5H11.5C12.6046 1.5 13.5 2.39543 13.5 3.5V11C13.5 12.1046 12.6046 13 11.5 13H2.5C1.39543 13 0.5 12.1046 0.5 11V3.5C0.5 2.39543 1.39543 1.5 2.5 1.5H3V0.5C3 0.223858 3.22386 0 3.5 0ZM12.5 6C12.5 5.44772 12.0523 5 11.5 5H2.5C1.94772 5 1.5 5.44772 1.5 6V11C1.5 11.5523 1.94772 12 2.5 12H11.5C12.0523 12 12.5 11.5523 12.5 11V6Z"
              fill="#6B7280"
            />
          </svg>