<svg xmlns="http://www.w3.org/2000/svg" width="10" height="10" viewBox="0 0 10 10" fill="none">
    <path fill-rule="evenodd" clip-rule="evenodd" d="M9.6244 4.57581C9.73688 4.68833 9.80007 4.84091 9.80007 5.00001C9.80007 5.15911 9.73688 5.3117 9.6244 5.42421L5.4244 9.62421C5.31188 9.73669 5.15929 9.79988 5.0002 9.79988C4.8411 9.79988 4.68851 9.73669 4.576 9.62421L0.375996 5.42421C0.320197 5.36857 0.275942 5.30245 0.245772 5.22965C0.215603 5.15685 0.200114 5.07881 0.200196 5.00001V2.00001C0.200196 1.52262 0.389838 1.06479 0.727404 0.72722C1.06497 0.389655 1.52281 0.200012 2.0002 0.200012H5.0002C5.1538 0.200012 5.3074 0.258812 5.4244 0.375812L9.6244 4.57581ZM2.0002 2.60001C2.15933 2.60001 2.31194 2.5368 2.42446 2.42428C2.53698 2.31175 2.6002 2.15914 2.6002 2.00001C2.6002 1.84088 2.53698 1.68827 2.42446 1.57575C2.31194 1.46323 2.15933 1.40001 2.0002 1.40001C1.84107 1.40001 1.68845 1.46323 1.57593 1.57575C1.46341 1.68827 1.4002 1.84088 1.4002 2.00001C1.4002 2.15914 1.46341 2.31175 1.57593 2.42428C1.68845 2.5368 1.84107 2.60001 2.0002 2.60001Z" fill="#4B5563"/>
    </svg>