<svg xmlns="http://www.w3.org/2000/svg" width="12" height="12" viewBox="0 0 12 12" fill="none">
    <path fill-rule="evenodd" clip-rule="evenodd" d="M10.6244 5.57575C10.7369 5.68827 10.8001 5.84085 10.8001 5.99995C10.8001 6.15905 10.7369 6.31163 10.6244 6.42415L6.4244 10.6242C6.31188 10.7366 6.15929 10.7998 6.0002 10.7998C5.8411 10.7998 5.68851 10.7366 5.576 10.6242L1.376 6.42415C1.3202 6.36851 1.27594 6.30239 1.24577 6.22959C1.2156 6.15679 1.20011 6.07875 1.2002 5.99995V2.99995C1.2002 2.52256 1.38984 2.06472 1.7274 1.72716C2.06497 1.38959 2.52281 1.19995 3.0002 1.19995H6.0002C6.1538 1.19995 6.3074 1.25875 6.4244 1.37575L10.6244 5.57575ZM3.0002 3.59995C3.15933 3.59995 3.31194 3.53674 3.42446 3.42422C3.53698 3.31169 3.6002 3.15908 3.6002 2.99995C3.6002 2.84082 3.53698 2.68821 3.42446 2.57569C3.31194 2.46317 3.15933 2.39995 3.0002 2.39995C2.84107 2.39995 2.68845 2.46317 2.57593 2.57569C2.46341 2.68821 2.4002 2.84082 2.4002 2.99995C2.4002 3.15908 2.46341 3.31169 2.57593 3.42422C2.68845 3.53674 2.84107 3.59995 3.0002 3.59995Z" fill="#9CA3AF"/>
    </svg>