<svg xmlns="http://www.w3.org/2000/svg" width="18" height="18" viewBox="0 0 18 18" fill="none">
    <path d="M12.064 8.03002C12.457 8.76094 12.681 9.59614 12.681 10.4825C12.681 13.3383 10.3613 15.661 7.509 15.661C4.65671 15.661 2.33696 13.3383 2.33696 10.4825C2.33696 7.62668 4.6577 5.30405 7.509 5.30405C8.40605 5.30405 9.25005 5.53326 9.98596 5.93758L11.2033 4.71872C10.1373 4.03108 8.86882 3.63168 7.509 3.63168C3.73608 3.63168 0.666656 6.70491 0.666656 10.4825C0.666656 14.2601 3.73608 17.3333 7.509 17.3333C11.2819 17.3333 14.3513 14.2601 14.3513 10.4825C14.3513 9.1328 13.9593 7.87262 13.2824 6.81017L12.064 8.03002Z" fill="white"/>
    <path d="M7.45988 8.4668L8.86981 7.05512C8.4483 6.88592 7.98946 6.79345 7.509 6.79345C5.47713 6.79345 3.82451 8.44909 3.82451 10.4825C3.82451 12.5159 5.47713 14.1716 7.509 14.1716C9.54088 14.1716 11.1935 12.5169 11.1935 10.4825C11.1935 10.0133 11.1061 9.56368 10.9449 9.15051L9.52025 10.5769C9.47112 11.6463 8.58782 12.4992 7.509 12.4992C6.43018 12.4992 5.49482 11.5951 5.49482 10.4825C5.49482 9.36988 6.37222 8.49238 7.45988 8.4668Z" fill="white"/>
    <path d="M15.6846 3.62577H14.3789V0.666656L11.6494 3.39951V4.96662L7.50212 9.11902C7.11795 9.50367 7.11795 10.1264 7.50212 10.51C7.88629 10.8947 8.50823 10.8947 8.89142 10.51L13.0387 6.35764H14.6039L17.3333 3.62479H15.6846V3.62577Z" fill="white"/>
    </svg>