<svg xmlns="http://www.w3.org/2000/svg" width="16" height="17" viewBox="0 0 16 17" fill="none">
    <path d="M10.9415 7.56882C11.3188 8.27051 11.5338 9.07231 11.5338 9.92321C11.5338 12.6648 9.30685 14.8945 6.56865 14.8945C3.83046 14.8945 1.60349 12.6648 1.60349 9.92321C1.60349 7.18162 3.8314 4.9519 6.56865 4.9519C7.42982 4.9519 8.24005 5.17194 8.94653 5.56009L10.1152 4.38998C9.09179 3.72984 7.87408 3.34642 6.56865 3.34642C2.94665 3.34642 0 6.29672 0 9.92321C0 13.5497 2.94665 16.5 6.56865 16.5C10.1907 16.5 13.1373 13.5497 13.1373 9.92321C13.1373 8.62749 12.761 7.41772 12.1111 6.39777L10.9415 7.56882Z" fill="#7A499D"/>
    <path d="M6.52149 7.98814L7.87503 6.63293C7.47038 6.47049 7.02989 6.38172 6.56865 6.38172C4.61805 6.38172 3.03154 7.97114 3.03154 9.92321C3.03154 11.8753 4.61805 13.4647 6.56865 13.4647C8.51925 13.4647 10.1058 11.8762 10.1058 9.92321C10.1058 9.47273 10.0218 9.04114 9.86713 8.6445L8.49944 10.0139C8.45228 11.0404 7.60432 11.8592 6.56865 11.8592C5.53299 11.8592 4.63503 10.9913 4.63503 9.92321C4.63503 8.8551 5.47734 8.01269 6.52149 7.98814Z" fill="#7A499D"/>
    <path d="M14.4173 3.34075H13.1637V0.5L10.5434 3.12354V4.62797L6.56204 8.61427C6.19324 8.98353 6.19324 9.58134 6.56204 9.94965C6.93085 10.3189 7.52791 10.3189 7.89577 9.94965L11.8771 5.96335H13.3797L16 3.33981H14.4173V3.34075Z" fill="#7A499D"/>
    </svg>