<svg xmlns="http://www.w3.org/2000/svg" width="16" height="14" viewBox="0 0 16 14" fill="none">
    <path d="M11.333 12.3334H14.6663V11C14.6663 10.5844 14.5368 10.1791 14.2958 9.84044C14.0547 9.50181 13.7142 9.24668 13.3215 9.11052C12.9288 8.97436 12.5034 8.96394 12.1045 9.0807C11.7056 9.19746 11.353 9.4356 11.0957 9.76202M11.333 12.3334H4.66634M11.333 12.3334V11C11.333 10.5627 11.249 10.1447 11.0957 9.76202M11.0957 9.76202C10.8481 9.14333 10.4208 8.613 9.86901 8.23944C9.31717 7.86587 8.66606 7.66622 7.99967 7.66622C7.33329 7.66622 6.68218 7.86587 6.13034 8.23944C5.5785 8.613 5.15125 9.14333 4.90367 9.76202M4.66634 12.3334H1.33301V11C1.33304 10.5844 1.46256 10.1791 1.70358 9.84044C1.9446 9.50181 2.28513 9.24668 2.67784 9.11052C3.07055 8.97436 3.49593 8.96394 3.89483 9.0807C4.29374 9.19746 4.64636 9.4356 4.90367 9.76202M4.66634 12.3334V11C4.66634 10.5627 4.75034 10.1447 4.90367 9.76202M9.99967 3.66669C9.99967 4.19712 9.78896 4.70583 9.41389 5.0809C9.03882 5.45597 8.53011 5.66669 7.99967 5.66669C7.46924 5.66669 6.96053 5.45597 6.58546 5.0809C6.21039 4.70583 5.99967 4.19712 5.99967 3.66669C5.99967 3.13625 6.21039 2.62755 6.58546 2.25247C6.96053 1.8774 7.46924 1.66669 7.99967 1.66669C8.53011 1.66669 9.03882 1.8774 9.41389 2.25247C9.78896 2.62755 9.99967 3.13625 9.99967 3.66669ZM13.9997 5.66669C13.9997 6.02031 13.8592 6.35945 13.6092 6.6095C13.3591 6.85954 13.02 7.00002 12.6663 7.00002C12.3127 7.00002 11.9736 6.85954 11.7235 6.6095C11.4735 6.35945 11.333 6.02031 11.333 5.66669C11.333 5.31306 11.4735 4.97393 11.7235 4.72388C11.9736 4.47383 12.3127 4.33335 12.6663 4.33335C13.02 4.33335 13.3591 4.47383 13.6092 4.72388C13.8592 4.97393 13.9997 5.31306 13.9997 5.66669ZM4.66634 5.66669C4.66634 6.02031 4.52587 6.35945 4.27582 6.6095C4.02577 6.85954 3.68663 7.00002 3.33301 7.00002C2.97939 7.00002 2.64025 6.85954 2.3902 6.6095C2.14015 6.35945 1.99967 6.02031 1.99967 5.66669C1.99967 5.31306 2.14015 4.97393 2.3902 4.72388C2.64025 4.47383 2.97939 4.33335 3.33301 4.33335C3.68663 4.33335 4.02577 4.47383 4.27582 4.72388C4.52587 4.97393 4.66634 5.31306 4.66634 5.66669Z" stroke="#4B5563" stroke-width="1.5" stroke-linecap="round" stroke-linejoin="round"/>
    </svg>