<svg width="14" height="19" viewBox="0 0 14 19" fill="none" xmlns="http://www.w3.org/2000/svg">
<path fill-rule="evenodd" clip-rule="evenodd" d="M8.30045 0.546322C8.50345 0.610164 8.6808 0.737103 8.80669 0.908677C8.93258 1.08025 9.00046 1.28751 9.00045 1.50032V6.50032H13.0004C13.1834 6.50024 13.3628 6.55033 13.5192 6.64515C13.6757 6.73996 13.8031 6.87586 13.8876 7.03806C13.9722 7.20027 14.0106 7.38255 13.9988 7.56509C13.9869 7.74762 13.9253 7.92341 13.8204 8.07332L6.82044 18.0733C6.69862 18.2479 6.52428 18.379 6.32278 18.4476C6.12129 18.5162 5.90317 18.5187 5.70014 18.4548C5.49711 18.3909 5.31978 18.2638 5.19394 18.0922C5.06809 17.9205 5.00031 17.7132 5.00044 17.5003V12.5003H1.00045C0.817527 12.5004 0.63809 12.4503 0.481663 12.3555C0.325235 12.2607 0.19781 12.1248 0.113255 11.9626C0.0286992 11.8004 -0.00974701 11.6181 0.00209983 11.4356C0.0139467 11.253 0.0756328 11.0772 0.180445 10.9273L7.18045 0.927322C7.30246 0.753109 7.47683 0.622334 7.67825 0.553998C7.87966 0.485662 8.09761 0.483323 8.30045 0.547322V0.546322Z" fill="white"/>
</svg>
