<svg xmlns="http://www.w3.org/2000/svg" width="14" height="14" viewBox="0 0 14 14" fill="none">
    <path fill-rule="evenodd" clip-rule="evenodd" d="M8.3996 4.9C8.21395 4.9 8.0359 4.82625 7.90463 4.69497C7.77335 4.5637 7.6996 4.38565 7.6996 4.2C7.6996 4.01435 7.77335 3.8363 7.90463 3.70503C8.0359 3.57375 8.21395 3.5 8.3996 3.5H11.8996C12.0853 3.5 12.2633 3.57375 12.3946 3.70503C12.5259 3.8363 12.5996 4.01435 12.5996 4.2V7.7C12.5996 7.88565 12.5259 8.0637 12.3946 8.19497C12.2633 8.32625 12.0853 8.4 11.8996 8.4C11.714 8.4 11.5359 8.32625 11.4046 8.19497C11.2734 8.0637 11.1996 7.88565 11.1996 7.7V5.8898L8.1945 8.8949C8.06323 9.02613 7.88522 9.09985 7.6996 9.09985C7.51399 9.09985 7.33597 9.02613 7.2047 8.8949L5.5996 7.2898L2.5945 10.2949C2.46248 10.4224 2.28566 10.493 2.10212 10.4914C1.91858 10.4898 1.74301 10.4162 1.61323 10.2864C1.48344 10.1566 1.40982 9.98102 1.40823 9.79748C1.40663 9.61394 1.47719 9.43712 1.6047 9.3051L5.1047 5.8051C5.23597 5.67387 5.41399 5.60015 5.5996 5.60015C5.78522 5.60015 5.96323 5.67387 6.0945 5.8051L7.6996 7.4102L10.2098 4.9H8.3996Z" fill="#0E9F6E"/>
    </svg>