<svg xmlns="http://www.w3.org/2000/svg" width="16" height="16" viewBox="0 0 16 16" fill="none">
<path fill-rule="evenodd" clip-rule="evenodd" d="M16 8C16 12.4183 12.4183 16 8 16C3.58172 16 0 12.4183 0 8C0 3.58172 3.58172 0 8 0C12.4183 0 16 3.58172 16 8ZM9.5 14.3261C9.01848 14.4398 8.51627 14.5 8 14.5C5.98332 14.5 4.18115 13.5816 2.98891 12.1402L3.47949 11.1591C3.59335 10.9313 3.88103 10.8549 4.09287 10.9962L4.38719 11.1924C4.78056 11.4546 5.30434 11.4028 5.63864 11.0685C5.90427 10.8028 5.99702 10.4099 5.87823 10.0535L5.68051 9.46039C5.6409 9.34155 5.6947 9.21167 5.80674 9.15565L7.78018 8.16892C8.28464 7.9167 8.45387 7.27942 8.14103 6.81015C7.99285 6.58788 8.11775 6.28635 8.37969 6.23396L8.50471 6.20896C9.35675 6.03855 10.0522 5.42466 10.3269 4.60033L10.3766 4.45127C10.4964 4.09194 10.4029 3.69577 10.135 3.42794L8.64645 1.93934C8.55268 1.84557 8.5 1.71839 8.5 1.58579V1.51894C11.8562 1.77426 14.5 4.57839 14.5 8C14.5 8.98225 14.2821 9.91361 13.8921 10.7484C13.6958 10.6128 13.4634 10.5258 13.212 10.5049L12.6464 9.93934C12.3651 9.65804 11.9836 9.5 11.5858 9.5H11.4142C11.0164 9.5 10.6349 9.65803 10.3536 9.93934L9.76119 10.5317C9.72319 10.5697 9.67931 10.6013 9.63125 10.6254L8.05279 11.4146C7.714 11.584 7.5 11.9302 7.5 12.309V12.5C7.5 13.0523 7.94772 13.5 8.5 13.5H9C9.27614 13.5 9.5 13.7239 9.5 14V14.3261Z" fill="#4B5563"/>
</svg>