<svg width="16" height="16" viewBox="0 0 16 16" fill="none" xmlns="http://www.w3.org/2000/svg">
<path d="M11.334 13.3327H14.6673V11.9993C14.6673 11.5837 14.5378 11.1784 14.2967 10.8398C14.0557 10.5011 13.7152 10.246 13.3225 10.1099C12.9298 9.97369 12.5044 9.96327 12.1055 10.08C11.7066 10.1968 11.354 10.4349 11.0967 10.7613M11.334 13.3327H4.66732M11.334 13.3327V11.9993C11.334 11.562 11.25 11.144 11.0967 10.7613M11.0967 10.7613C10.8491 10.1427 10.4218 9.61232 9.86998 9.23876C9.31814 8.8652 8.66704 8.66555 8.00065 8.66555C7.33426 8.66555 6.68316 8.8652 6.13132 9.23876C5.57948 9.61232 5.15222 10.1427 4.90465 10.7613M4.66732 13.3327H1.33398V11.9993C1.33401 11.5837 1.46354 11.1784 1.70456 10.8398C1.94558 10.5011 2.28611 10.246 2.67882 10.1099C3.07153 9.97369 3.4969 9.96327 3.89581 10.08C4.29472 10.1968 4.64734 10.4349 4.90465 10.7613M4.66732 13.3327V11.9993C4.66732 11.562 4.75132 11.144 4.90465 10.7613M10.0007 4.66602C10.0007 5.19645 9.78994 5.70516 9.41487 6.08023C9.03979 6.4553 8.53108 6.66602 8.00065 6.66602C7.47022 6.66602 6.96151 6.4553 6.58644 6.08023C6.21136 5.70516 6.00065 5.19645 6.00065 4.66602C6.00065 4.13558 6.21136 3.62687 6.58644 3.2518C6.96151 2.87673 7.47022 2.66602 8.00065 2.66602C8.53108 2.66602 9.03979 2.87673 9.41487 3.2518C9.78994 3.62687 10.0007 4.13558 10.0007 4.66602ZM14.0007 6.66602C14.0007 7.01964 13.8602 7.35878 13.6101 7.60882C13.3601 7.85887 13.0209 7.99935 12.6673 7.99935C12.3137 7.99935 11.9746 7.85887 11.7245 7.60882C11.4745 7.35878 11.334 7.01964 11.334 6.66602C11.334 6.31239 11.4745 5.97326 11.7245 5.72321C11.9746 5.47316 12.3137 5.33268 12.6673 5.33268C13.0209 5.33268 13.3601 5.47316 13.6101 5.72321C13.8602 5.97326 14.0007 6.31239 14.0007 6.66602ZM4.66732 6.66602C4.66732 7.01964 4.52684 7.35878 4.27679 7.60882C4.02675 7.85887 3.68761 7.99935 3.33398 7.99935C2.98036 7.99935 2.64122 7.85887 2.39118 7.60882C2.14113 7.35878 2.00065 7.01964 2.00065 6.66602C2.00065 6.31239 2.14113 5.97326 2.39118 5.72321C2.64122 5.47316 2.98036 5.33268 3.33398 5.33268C3.68761 5.33268 4.02675 5.47316 4.27679 5.72321C4.52684 5.97326 4.66732 6.31239 4.66732 6.66602Z" stroke="#4B5563" stroke-width="1.5" stroke-linecap="round" stroke-linejoin="round"/>
</svg>
