<svg width="42" height="42" viewBox="0 0 42 42" fill="none" xmlns="http://www.w3.org/2000/svg">
<path d="M29.75 35H38.5V31.5C38.4999 30.4089 38.1599 29.345 37.5272 28.4561C36.8946 27.5672 36.0007 26.8975 34.9698 26.5401C33.9389 26.1827 32.8223 26.1553 31.7752 26.4618C30.7281 26.7683 29.8024 27.3934 29.127 28.2502M29.75 35H12.25M29.75 35V31.5C29.75 30.352 29.5295 29.2547 29.127 28.2502M29.127 28.2502C28.4771 26.6262 27.3556 25.2341 25.907 24.2535C24.4584 23.2729 22.7493 22.7488 21 22.7488C19.2507 22.7488 17.5416 23.2729 16.093 24.2535C14.6444 25.2341 13.5229 26.6262 12.873 28.2502M12.25 35H3.5V31.5C3.50008 30.4089 3.84009 29.345 4.47276 28.4561C5.10543 27.5672 5.99933 26.8975 7.03019 26.5401C8.06105 26.1827 9.17766 26.1553 10.2248 26.4618C11.2719 26.7683 12.1976 27.3934 12.873 28.2502M12.25 35V31.5C12.25 30.352 12.4705 29.2547 12.873 28.2502M26.25 12.25C26.25 13.6424 25.6969 14.9777 24.7123 15.9623C23.7277 16.9469 22.3924 17.5 21 17.5C19.6076 17.5 18.2723 16.9469 17.2877 15.9623C16.3031 14.9777 15.75 13.6424 15.75 12.25C15.75 10.8576 16.3031 9.52226 17.2877 8.53769C18.2723 7.55312 19.6076 7 21 7C22.3924 7 23.7277 7.55312 24.7123 8.53769C25.6969 9.52226 26.25 10.8576 26.25 12.25ZM36.75 17.5C36.75 18.4283 36.3813 19.3185 35.7249 19.9749C35.0685 20.6313 34.1783 21 33.25 21C32.3217 21 31.4315 20.6313 30.7751 19.9749C30.1187 19.3185 29.75 18.4283 29.75 17.5C29.75 16.5717 30.1187 15.6815 30.7751 15.0251C31.4315 14.3687 32.3217 14 33.25 14C34.1783 14 35.0685 14.3687 35.7249 15.0251C36.3813 15.6815 36.75 16.5717 36.75 17.5ZM12.25 17.5C12.25 18.4283 11.8813 19.3185 11.2249 19.9749C10.5685 20.6313 9.67826 21 8.75 21C7.82174 21 6.9315 20.6313 6.27513 19.9749C5.61875 19.3185 5.25 18.4283 5.25 17.5C5.25 16.5717 5.61875 15.6815 6.27513 15.0251C6.9315 14.3687 7.82174 14 8.75 14C9.67826 14 10.5685 14.3687 11.2249 15.0251C11.8813 15.6815 12.25 16.5717 12.25 17.5Z" stroke="#4B5563" stroke-width="2" stroke-linecap="round" stroke-linejoin="round"/>
</svg>
