<svg width="16" height="17" viewBox="0 0 16 17" fill="none" xmlns="http://www.w3.org/2000/svg">
<path fill-rule="evenodd" clip-rule="evenodd" d="M8.00156 14.8996C9.69895 14.8996 11.3268 14.2253 12.527 13.0251C13.7273 11.8249 14.4016 10.197 14.4016 8.49961C14.4016 6.80222 13.7273 5.17436 12.527 3.97413C11.3268 2.77389 9.69895 2.09961 8.00156 2.09961C6.30418 2.09961 4.67631 2.77389 3.47608 3.97413C2.27585 5.17436 1.60156 6.80222 1.60156 8.49961C1.60156 10.197 2.27585 11.8249 3.47608 13.0251C4.67631 14.2253 6.30418 14.8996 8.00156 14.8996ZM6.96716 6.33401C6.81628 6.18828 6.6142 6.10765 6.40444 6.10947C6.19468 6.11129 5.99403 6.19543 5.84571 6.34375C5.69738 6.49208 5.61325 6.69273 5.61142 6.90249C5.6096 7.11225 5.69024 7.31433 5.83596 7.46521L6.87036 8.49961L5.83596 9.53401C5.75955 9.60781 5.69861 9.69608 5.65668 9.79369C5.61475 9.89129 5.59268 9.99626 5.59176 10.1025C5.59084 10.2087 5.61108 10.3141 5.6513 10.4124C5.69153 10.5107 5.75093 10.6 5.82605 10.6751C5.90116 10.7502 5.99048 10.8096 6.0888 10.8499C6.18712 10.8901 6.29246 10.9103 6.39868 10.9094C6.50491 10.9085 6.60988 10.8864 6.70749 10.8445C6.80509 10.8026 6.89336 10.7416 6.96716 10.6652L8.00156 9.63081L9.03596 10.6652C9.18684 10.8109 9.38893 10.8916 9.59868 10.8897C9.80844 10.8879 10.0091 10.8038 10.1574 10.6555C10.3057 10.5071 10.3899 10.3065 10.3917 10.0967C10.3935 9.88697 10.3129 9.68489 10.1672 9.53401L9.13276 8.49961L10.1672 7.46521C10.3129 7.31433 10.3935 7.11225 10.3917 6.90249C10.3899 6.69273 10.3057 6.49208 10.1574 6.34375C10.0091 6.19543 9.80844 6.11129 9.59868 6.10947C9.38893 6.10765 9.18684 6.18828 9.03596 6.33401L8.00156 7.36841L6.96716 6.33401Z" fill="#6B7280"/>
</svg>
