<svg xmlns="http://www.w3.org/2000/svg" width="8" height="8" viewBox="0 0 8 8" fill="none">
    <path fill-rule="evenodd" clip-rule="evenodd" d="M0.576063 0.575812C0.688579 0.46333 0.841164 0.40014 1.00026 0.40014C1.15936 0.40014 1.31195 0.46333 1.42446 0.575812L4.00026 3.15161L6.57606 0.575812C6.63141 0.518506 6.69762 0.472797 6.77082 0.441351C6.84402 0.409906 6.92275 0.393354 7.00242 0.392662C7.08209 0.39197 7.1611 0.40715 7.23483 0.437319C7.30857 0.467487 7.37556 0.512039 7.4319 0.568375C7.48823 0.624711 7.53279 0.691702 7.56295 0.76544C7.59312 0.839177 7.6083 0.918185 7.60761 0.997853C7.60692 1.07752 7.59037 1.15625 7.55892 1.22945C7.52748 1.30266 7.48177 1.36886 7.42446 1.42421L4.84866 4.00001L7.42446 6.57581C7.53376 6.68897 7.59423 6.84053 7.59287 6.99785C7.5915 7.15517 7.5284 7.30566 7.41715 7.4169C7.30591 7.52815 7.15542 7.59125 6.9981 7.59262C6.84078 7.59398 6.68922 7.53351 6.57606 7.42421L4.00026 4.84841L1.42446 7.42421C1.3113 7.53351 1.15974 7.59398 1.00242 7.59262C0.845104 7.59125 0.694616 7.52815 0.583371 7.4169C0.472126 7.30566 0.409025 7.15517 0.407658 6.99785C0.406291 6.84053 0.466768 6.68897 0.576063 6.57581L3.15186 4.00001L0.576063 1.42421C0.46358 1.3117 0.400391 1.15911 0.400391 1.00001C0.400391 0.840914 0.46358 0.688329 0.576063 0.575812Z" fill="white"/>
    </svg>