<svg width="62" height="42" viewBox="0 0 62 42" fill="none" xmlns="http://www.w3.org/2000/svg">
<g filter="url(#filter0_d_1534_26527)">
<rect x="2" y="1" width="58" height="30" rx="15" fill="#1F2A37"/>
<path d="M9.98189 20V11.2727H15.658V12.598H11.5629V14.9673H15.364V16.2926H11.5629V18.6747H15.6921V20H9.98189ZM23.0494 13.4545L20.7184 20H19.0138L16.6829 13.4545H18.3278L19.832 18.3168H19.9002L21.4087 13.4545H23.0494ZM26.7919 20.1278C26.1357 20.1278 25.5689 19.9915 25.0916 19.7188C24.6172 19.4432 24.2521 19.054 23.9964 18.5511C23.7408 18.0455 23.6129 17.4503 23.6129 16.7656C23.6129 16.0923 23.7408 15.5014 23.9964 14.9929C24.255 14.4815 24.6158 14.0838 25.0788 13.7997C25.5419 13.5128 26.0859 13.3693 26.7109 13.3693C27.1143 13.3693 27.495 13.4347 27.853 13.5653C28.2138 13.6932 28.532 13.892 28.8075 14.1619C29.0859 14.4318 29.3047 14.7756 29.4638 15.1932C29.6229 15.608 29.7024 16.1023 29.7024 16.6761V17.1491H24.3374V16.1094H28.2237C28.2209 15.8139 28.157 15.5511 28.032 15.321C27.907 15.0881 27.7322 14.9048 27.5078 14.7713C27.2862 14.6378 27.0277 14.571 26.7322 14.571C26.4169 14.571 26.1399 14.6477 25.9013 14.8011C25.6626 14.9517 25.4766 15.1506 25.343 15.3977C25.2124 15.642 25.1456 15.9105 25.1428 16.2031V17.1108C25.1428 17.4915 25.2124 17.8182 25.3516 18.0909C25.4908 18.3608 25.6854 18.5682 25.9354 18.7131C26.1854 18.8551 26.478 18.9261 26.8132 18.9261C27.0376 18.9261 27.2408 18.8949 27.4226 18.8324C27.6044 18.767 27.7621 18.6719 27.8956 18.5469C28.0291 18.4219 28.13 18.267 28.1982 18.0824L29.6385 18.2443C29.5476 18.625 29.3743 18.9574 29.1186 19.2415C28.8658 19.5227 28.5419 19.7415 28.147 19.8977C27.7521 20.0511 27.3004 20.1278 26.7919 20.1278ZM32.5501 16.1648V20H31.0075V13.4545H32.4819V14.5668H32.5586C32.7092 14.2003 32.9492 13.9091 33.2788 13.6932C33.6112 13.4773 34.0217 13.3693 34.5103 13.3693C34.962 13.3693 35.3555 13.4659 35.6907 13.6591C36.0288 13.8523 36.2901 14.1321 36.4748 14.4986C36.6623 14.8651 36.7546 15.3097 36.7518 15.8324V20H35.2092V16.071C35.2092 15.6335 35.0955 15.2912 34.8683 15.044C34.6438 14.7969 34.3327 14.6733 33.935 14.6733C33.6651 14.6733 33.4251 14.733 33.2148 14.8523C33.0075 14.9687 32.8441 15.1378 32.7248 15.3594C32.6083 15.581 32.5501 15.8494 32.5501 16.1648ZM41.5884 13.4545V14.6477H37.8256V13.4545H41.5884ZM38.7546 11.8864H40.2972V18.0312C40.2972 18.2386 40.3285 18.3977 40.391 18.5085C40.4563 18.6165 40.5415 18.6903 40.6467 18.7301C40.7518 18.7699 40.8683 18.7898 40.9961 18.7898C41.0927 18.7898 41.1808 18.7827 41.2603 18.7685C41.3427 18.7543 41.4052 18.7415 41.4478 18.7301L41.7077 19.9361C41.6254 19.9645 41.5075 19.9957 41.354 20.0298C41.2035 20.0639 41.0188 20.0838 40.8001 20.0895C40.4137 20.1009 40.0657 20.0426 39.756 19.9148C39.4464 19.7841 39.2006 19.5824 39.0188 19.3097C38.8398 19.0369 38.7518 18.696 38.7546 18.2869V11.8864ZM48.9702 20.1193C48.3565 20.1193 47.8111 20.0142 47.3338 19.804C46.8594 19.5937 46.4844 19.3011 46.2088 18.9261C45.9332 18.5511 45.7869 18.1179 45.7699 17.6264H47.3722C47.3864 17.8622 47.4645 18.0682 47.6065 18.2443C47.7486 18.4176 47.9375 18.5526 48.1733 18.6491C48.4091 18.7457 48.6733 18.794 48.9659 18.794C49.2784 18.794 49.5554 18.7401 49.7969 18.6321C50.0384 18.5213 50.2273 18.3679 50.3636 18.1719C50.5 17.9759 50.5668 17.75 50.5639 17.4943C50.5668 17.2301 50.4986 16.9972 50.3594 16.7955C50.2202 16.5937 50.0185 16.4361 49.7543 16.3224C49.4929 16.2088 49.1776 16.152 48.8082 16.152H48.0369V14.9332H48.8082C49.1122 14.9332 49.3778 14.8807 49.6051 14.7756C49.8352 14.6705 50.0156 14.5227 50.1463 14.3324C50.277 14.1392 50.3409 13.9162 50.3381 13.6634C50.3409 13.4162 50.2855 13.2017 50.1719 13.0199C50.0611 12.8352 49.9034 12.6918 49.6989 12.5895C49.4972 12.4872 49.2599 12.4361 48.9872 12.4361C48.7202 12.4361 48.473 12.4844 48.2457 12.581C48.0185 12.6776 47.8352 12.8153 47.696 12.9943C47.5568 13.1705 47.483 13.3807 47.4744 13.625H45.9531C45.9645 13.1364 46.1051 12.7074 46.375 12.3381C46.6477 11.9659 47.0114 11.6761 47.4659 11.4688C47.9205 11.2585 48.4304 11.1534 48.9957 11.1534C49.5781 11.1534 50.0838 11.2628 50.5128 11.4815C50.9446 11.6974 51.2784 11.9886 51.5142 12.3551C51.75 12.7216 51.8679 13.1264 51.8679 13.5696C51.8707 14.0611 51.7259 14.473 51.4332 14.8054C51.1435 15.1378 50.7628 15.3551 50.2912 15.4574V15.5256C50.9048 15.6108 51.375 15.8381 51.7017 16.2074C52.0313 16.5739 52.1946 17.0298 52.1918 17.5753C52.1918 18.0639 52.0526 18.5014 51.7741 18.8878C51.4986 19.2713 51.1179 19.5724 50.6321 19.7912C50.1491 20.0099 49.5952 20.1193 48.9702 20.1193Z" fill="white"/>
<path d="M30.2929 38.2929L23.2929 31.2929C23.1054 31.1054 22.851 31 22.5858 31H39.4142C39.149 31 38.8946 31.1054 38.7071 31.2929L31.7071 38.2929C31.3166 38.6834 30.6834 38.6834 30.2929 38.2929Z" fill="#1F2A37"/>
</g>
<defs>
<filter id="filter0_d_1534_26527" x="0" y="0" width="62" height="42" filterUnits="userSpaceOnUse" color-interpolation-filters="sRGB">
<feFlood flood-opacity="0" result="BackgroundImageFix"/>
<feColorMatrix in="SourceAlpha" type="matrix" values="0 0 0 0 0 0 0 0 0 0 0 0 0 0 0 0 0 0 127 0" result="hardAlpha"/>
<feOffset dy="1"/>
<feGaussianBlur stdDeviation="1"/>
<feColorMatrix type="matrix" values="0 0 0 0 0 0 0 0 0 0 0 0 0 0 0 0 0 0 0.08 0"/>
<feBlend mode="normal" in2="BackgroundImageFix" result="effect1_dropShadow_1534_26527"/>
<feBlend mode="normal" in="SourceGraphic" in2="effect1_dropShadow_1534_26527" result="shape"/>
</filter>
</defs>
</svg>
