<svg width="20" height="20" viewBox="0 0 20 20" fill="none" xmlns="http://www.w3.org/2000/svg">
<path d="M18.2175 13.5616H17.0088V12.3816C17.0088 12.2431 16.8964 12.1307 16.7579 12.1307H14.808V11.4239H16.1368C16.2014 11.4239 16.2539 11.3714 16.2539 11.3068V9.39137C16.2539 9.32679 16.2014 9.27425 16.1368 9.27425H14.808V8.22418C14.808 8.08564 14.6955 7.9732 14.557 7.9732H10.2727V7.14934H12.068C12.1326 7.14934 12.1851 7.0968 12.1851 7.03222V5.11712C12.1851 5.05254 12.1326 5 12.068 5H7.97578C7.91119 5 7.85866 5.05254 7.85866 5.11712V7.03255C7.85866 7.09714 7.91119 7.14967 7.97578 7.14967H9.77108V7.97354H5.48679C5.34825 7.97354 5.23581 8.08597 5.23581 8.22451V9.27459H3.88357C3.81898 9.27459 3.76644 9.32712 3.76644 9.39171V11.3071C3.76644 11.3717 3.81898 11.4243 3.88357 11.4243H5.23581V12.131H3.28625C3.14771 12.131 3.03527 12.2434 3.03527 12.382V13.5619H1.78509C1.72051 13.5619 1.66797 13.6144 1.66797 13.679V15.5944C1.66797 15.659 1.72051 15.7116 1.78509 15.7116H4.7593C4.82388 15.7116 4.87642 15.659 4.87642 15.5944V13.679C4.87642 13.6144 4.82388 13.5619 4.7593 13.5619H3.53689V12.6329H7.4049V13.5619H6.13731C6.07273 13.5619 6.02019 13.6144 6.02019 13.679V15.5944C6.02019 15.659 6.07273 15.7116 6.13731 15.7116H9.11152C9.1761 15.7116 9.22864 15.659 9.22864 15.5944V13.679C9.22864 13.6144 9.1761 13.5619 9.11152 13.5619H7.90684V12.382C7.90684 12.2434 7.79441 12.131 7.65587 12.131H5.73776V11.4243H7.09001C7.15459 11.4243 7.20713 11.3717 7.20713 11.3071V9.39171C7.20713 9.32712 7.15459 9.27459 7.09001 9.27459H5.73776V8.47549H14.3063V9.27459H12.9303C12.8658 9.27459 12.8132 9.32712 12.8132 9.39171V11.3071C12.8132 11.3717 12.8658 11.4243 12.9303 11.4243H14.3063V12.131H12.3882C12.2497 12.131 12.1373 12.2434 12.1373 12.382V13.5619H10.8911C10.8265 13.5619 10.774 13.6144 10.774 13.679V15.5944C10.774 15.659 10.8265 15.7116 10.8911 15.7116H13.8653C13.9299 15.7116 13.9824 15.659 13.9824 15.5944V13.679C13.9824 13.6144 13.9299 13.5619 13.8653 13.5619H12.6389V12.6329H16.5069V13.5619H15.2433C15.1787 13.5619 15.1262 13.6144 15.1262 13.679V15.5944C15.1262 15.659 15.1787 15.7116 15.2433 15.7116H18.2175C18.2821 15.7116 18.3346 15.659 18.3346 15.5944V13.679C18.3346 13.6144 18.2821 13.5619 18.2175 13.5619V13.5616Z" fill="white"/>
</svg>
